<svg width="124" height="32" viewBox="0 0 124 32" fill="none" xmlns="http://www.w3.org/2000/svg">
<g clip-path="url(#clip0_2400_1641)">
<rect y="2" width="28" height="28" rx="2.8" fill="url(#paint0_linear_2400_1641)"/>
<path d="M7.91338 7.36H10.6854V25H7.91338V7.36Z" fill="white"/>
<path d="M12.0685 7.36H14.8405V14.794L18.3685 7.36H21.1405L17.8393 13.8364L21.1909 25H18.2929L15.9493 17.1376L14.8405 19.3804V25H12.0685V7.36Z" fill="white"/>
</g>
<path d="M37.6875 25V6.67969H41.4883V25H37.6875ZM34.4609 25V21.7188H44.7148V25H34.4609ZM34.4609 9.96094V6.67969H44.7148V9.96094H34.4609ZM58.8264 19.9141L56.803 17.6719L66.592 6.67969H71.1038L58.8264 19.9141ZM55.7366 25V6.67969H59.5373V25H55.7366ZM66.8381 25L59.7288 15.9766L62.6545 13.6797L71.7053 25H66.8381ZM82.1791 25L82.1517 16.9883C82.1517 16.0586 81.9239 15.3659 81.4681 14.9102C81.0306 14.4544 80.4199 14.2266 79.6361 14.2266C79.0163 14.2266 78.4421 14.4271 77.9134 14.8281C77.3848 15.2292 76.9199 15.7031 76.5189 16.25V13.1602C76.8106 12.7773 77.1569 12.4128 77.558 12.0664C77.9772 11.7018 78.4512 11.4102 78.9798 11.1914C79.5085 10.9544 80.0827 10.8359 80.7025 10.8359C81.6504 10.8359 82.4981 11.0456 83.2455 11.4648C83.9929 11.8841 84.5762 12.5221 84.9955 13.3789C85.433 14.2174 85.6517 15.2656 85.6517 16.5234V25H82.1791ZM73.0462 25V11.1914H76.5189V25H73.0462ZM94.9497 25.4102C93.9471 25.4102 92.9992 25.2279 92.1059 24.8633C91.2309 24.4805 90.4471 23.9609 89.7544 23.3047C89.0617 22.6484 88.5239 21.8828 88.1411 21.0078C87.7583 20.1146 87.5669 19.1576 87.5669 18.1367C87.5669 17.1159 87.7583 16.168 88.1411 15.293C88.5239 14.3997 89.0617 13.625 89.7544 12.9688C90.4471 12.2943 91.2309 11.7747 92.1059 11.4102C92.9992 11.0273 93.9471 10.8359 94.9497 10.8359C95.9523 10.8359 96.9002 11.0273 97.7934 11.4102C98.6867 11.7747 99.4705 12.2943 100.145 12.9688C100.838 13.625 101.375 14.3997 101.758 15.293C102.159 16.168 102.36 17.1159 102.36 18.1367C102.36 19.1576 102.159 20.1146 101.758 21.0078C101.375 21.8828 100.838 22.6484 100.145 23.3047C99.4705 23.9609 98.6867 24.4805 97.7934 24.8633C96.9002 25.2279 95.9523 25.4102 94.9497 25.4102ZM94.9497 22.0469C95.6242 22.0469 96.2348 21.901 96.7817 21.6094C97.3468 21.2995 97.8026 20.8529 98.1489 20.2695C98.4953 19.668 98.6684 18.957 98.6684 18.1367C98.6684 17.2799 98.4953 16.5599 98.1489 15.9766C97.8026 15.3932 97.3468 14.9557 96.7817 14.6641C96.2348 14.3542 95.6242 14.1992 94.9497 14.1992C94.3117 14.1992 93.701 14.3542 93.1177 14.6641C92.5526 14.9557 92.0968 15.3932 91.7505 15.9766C91.4223 16.5599 91.2583 17.2799 91.2583 18.1367C91.2583 18.957 91.4223 19.668 91.7505 20.2695C92.0968 20.8529 92.5526 21.2995 93.1177 21.6094C93.701 21.901 94.3117 22.0469 94.9497 22.0469ZM107.146 25L102.388 11.1914H106.162L108.705 19.3672L111.685 11.1914H114.173L117.127 19.3672L119.67 11.1914H123.443L118.658 25H116.142L112.916 16.0586L109.689 25H107.146Z" fill="#F7C663"/>
<defs>
<linearGradient id="paint0_linear_2400_1641" x1="14" y1="2" x2="14" y2="30" gradientUnits="userSpaceOnUse">
<stop stop-color="#F7C663"/>
<stop offset="1" stop-color="#FFBA2F"/>
</linearGradient>
<clipPath id="clip0_2400_1641">
<rect y="2" width="28" height="28" rx="2.8" fill="white"/>
</clipPath>
</defs>
</svg>
