<svg width="31" height="31" viewBox="0 0 31 31" fill="none" xmlns="http://www.w3.org/2000/svg">
<path d="M15.5003 0.204529C13.5305 0.204529 11.5799 0.592515 9.76004 1.34634C7.94015 2.10016 6.28656 3.20505 4.89369 4.59793C2.08064 7.41097 0.500287 11.2263 0.500287 15.2045C0.487174 18.6682 1.68648 22.0273 3.89029 24.6995L0.890287 27.6995C0.682151 27.9105 0.541157 28.1783 0.485095 28.4693C0.429034 28.7603 0.460418 29.0614 0.575287 29.3345C0.699874 29.6044 0.901843 29.8312 1.15556 29.9861C1.40927 30.141 1.70329 30.217 2.00029 30.2045H15.5003C19.4785 30.2045 23.2938 28.6242 26.1069 25.8111C28.9199 22.9981 30.5003 19.1828 30.5003 15.2045C30.5003 11.2263 28.9199 7.41097 26.1069 4.59793C23.2938 1.78488 19.4785 0.204529 15.5003 0.204529ZM15.5003 27.2045H5.61529L7.01029 25.8095C7.28966 25.5285 7.44648 25.1483 7.44648 24.752C7.44648 24.3557 7.28966 23.9756 7.01029 23.6945C5.04617 21.7326 3.82305 19.1503 3.54932 16.3877C3.2756 13.6251 3.9682 10.853 5.50913 8.54381C7.05006 6.23459 9.34397 4.53107 12.0001 3.72349C14.6561 2.91591 17.5101 3.05424 20.0756 4.1149C22.6411 5.17556 24.7596 7.09294 26.0699 9.54037C27.3803 11.9878 27.8016 14.8138 27.262 17.537C26.7224 20.2602 25.2552 22.7121 23.1106 24.4749C20.9659 26.2377 18.2764 27.2023 15.5003 27.2045ZM23.0003 13.7045H8.00029C7.60246 13.7045 7.22093 13.8626 6.93963 14.1439C6.65832 14.4252 6.50029 14.8067 6.50029 15.2045C6.50029 15.6024 6.65832 15.9839 6.93963 16.2652C7.22093 16.5465 7.60246 16.7045 8.00029 16.7045H23.0003C23.3981 16.7045 23.7796 16.5465 24.0609 16.2652C24.3423 15.9839 24.5003 15.6024 24.5003 15.2045C24.5003 14.8067 24.3423 14.4252 24.0609 14.1439C23.7796 13.8626 23.3981 13.7045 23.0003 13.7045ZM20.0003 19.7045H11.0003C10.6025 19.7045 10.2209 19.8626 9.93963 20.1439C9.65832 20.4252 9.50029 20.8067 9.50029 21.2045C9.50029 21.6024 9.65832 21.9839 9.93963 22.2652C10.2209 22.5465 10.6025 22.7045 11.0003 22.7045H20.0003C20.3981 22.7045 20.7796 22.5465 21.0609 22.2652C21.3423 21.9839 21.5003 21.6024 21.5003 21.2045C21.5003 20.8067 21.3423 20.4252 21.0609 20.1439C20.7796 19.8626 20.3981 19.7045 20.0003 19.7045ZM11.0003 10.7045H20.0003C20.3981 10.7045 20.7796 10.5465 21.0609 10.2652C21.3423 9.98388 21.5003 9.60235 21.5003 9.20453C21.5003 8.8067 21.3423 8.42517 21.0609 8.14387C20.7796 7.86256 20.3981 7.70453 20.0003 7.70453H11.0003C10.6025 7.70453 10.2209 7.86256 9.93963 8.14387C9.65832 8.42517 9.50029 8.8067 9.50029 9.20453C9.50029 9.60235 9.65832 9.98388 9.93963 10.2652C10.2209 10.5465 10.6025 10.7045 11.0003 10.7045Z" fill="black"/>
</svg>
