<svg width="37" height="37" viewBox="0 0 37 37" fill="none" xmlns="http://www.w3.org/2000/svg">
<path d="M32 30.2045H6.5V29.3945L14 21.8945L19.7 27.5945C19.981 27.8739 20.3612 28.0307 20.7575 28.0307C21.1538 28.0307 21.534 27.8739 21.815 27.5945L33.065 16.3445C33.2056 16.2051 33.3172 16.0392 33.3933 15.8564C33.4695 15.6736 33.5087 15.4775 33.5087 15.2795C33.5087 15.0815 33.4695 14.8855 33.3933 14.7027C33.3172 14.5199 33.2056 14.354 33.065 14.2145C32.784 13.9352 32.4038 13.7783 32.0075 13.7783C31.6112 13.7783 31.231 13.9352 30.95 14.2145L20.75 24.4145L15.065 18.7145C14.784 18.4352 14.4038 18.2783 14.0075 18.2783C13.6112 18.2783 13.231 18.4352 12.95 18.7145L6.5 25.1495V17.3945L14 9.89453L18.2 14.0945C18.481 14.3739 18.8612 14.5307 19.2575 14.5307C19.6538 14.5307 20.034 14.3739 20.315 14.0945L27.5 6.90953L30.785 10.1945C31.0675 10.475 31.4498 10.6318 31.8478 10.6304C32.2458 10.629 32.627 10.4695 32.9075 10.187C33.188 9.90457 33.3447 9.52227 33.3433 9.12423C33.3419 8.72618 33.1825 8.345 32.9 8.06453L28.535 3.72953C28.254 3.45015 27.8738 3.29334 27.4775 3.29334C27.0812 3.29334 26.701 3.45015 26.42 3.72953L19.22 10.9295L15.035 6.72953C14.754 6.45015 14.3738 6.29334 13.9775 6.29334C13.5812 6.29334 13.201 6.45015 12.92 6.72953L6.5 13.1495V4.70453C6.5 4.3067 6.34196 3.92517 6.06066 3.64387C5.77936 3.36256 5.39782 3.20453 5 3.20453C4.60218 3.20453 4.22064 3.36256 3.93934 3.64387C3.65804 3.92517 3.5 4.3067 3.5 4.70453V31.7045C3.5 32.1024 3.65804 32.4839 3.93934 32.7652C4.22064 33.0465 4.60218 33.2045 5 33.2045H32C32.3978 33.2045 32.7794 33.0465 33.0607 32.7652C33.342 32.4839 33.5 32.1024 33.5 31.7045C33.5 31.3067 33.342 30.9252 33.0607 30.6439C32.7794 30.3626 32.3978 30.2045 32 30.2045Z" fill="black"/>
</svg>
