<svg width="30" height="28" viewBox="0 0 30 28" fill="none" xmlns="http://www.w3.org/2000/svg">
<path d="M28.9243 18.2379C28.8322 18.0784 28.6682 17.9734 28.4848 17.9564C28.3654 17.9455 25.8584 17.7291 22.9566 18.5855C24.4222 14.8668 24.1196 11.3176 24.1035 11.1439C24.0866 10.9605 23.9817 10.7965 23.822 10.7044C23.6624 10.6123 23.4681 10.6033 23.3006 10.6805C23.1684 10.7414 20.3491 12.061 17.9429 14.7846C17.2586 10.95 15.3134 8.15899 15.2137 8.01805C15.1073 7.86759 14.9345 7.77814 14.7501 7.77814C14.5658 7.77814 14.393 7.86759 14.2865 8.01805C14.1868 8.15894 12.2418 10.95 11.5573 14.7846C9.15116 12.061 6.33186 10.7414 6.19961 10.6805C6.03228 10.6034 5.83779 10.6123 5.6782 10.7044C5.51861 10.7965 5.41362 10.9605 5.3967 11.1439C5.38061 11.3177 5.07802 14.867 6.54361 18.5856C3.64171 17.7293 1.13469 17.9455 1.01557 17.9564C0.832102 17.9734 0.66817 18.0784 0.576045 18.2379C0.483921 18.3975 0.474959 18.5919 0.55211 18.7593C0.629149 18.9267 2.48467 22.8835 6.3745 25.1293C9.25124 26.7902 12.3819 27.0195 13.8918 27.0195C14.3292 27.0195 14.6304 27.0003 14.7502 26.991C14.87 27.0003 15.171 27.0195 15.6085 27.0195C17.1186 27.0195 20.2493 26.7901 23.1258 25.1293C27.0157 22.8835 28.8711 18.9267 28.9482 18.7593C29.0254 18.592 29.0164 18.3975 28.9243 18.2379ZM6.94239 24.146C4.36518 22.658 2.72464 20.2818 2.00545 19.0621C3.11635 19.0709 5.12706 19.2155 7.19066 20.0009C7.27504 20.1616 7.36272 20.3221 7.45495 20.4818C8.92594 23.0296 11.0592 24.7894 12.5962 25.8204C11.0617 25.6879 8.91414 25.2845 6.94239 24.146ZM8.43832 19.9141C6.73632 16.9661 6.50415 13.6674 6.50064 12.1279C7.61432 12.7738 9.71243 14.1724 11.3613 16.3334C11.3357 16.6773 11.3216 17.0268 11.3216 17.3815C11.3216 20.4467 12.344 23.1406 13.189 24.8436C11.7579 23.875 9.77978 22.2376 8.43832 19.9141ZM14.7503 25.3425C13.9647 23.9798 12.4571 20.9055 12.4571 17.3815C12.4571 13.8576 13.9648 10.7831 14.7503 9.42068C15.5359 10.7833 17.0435 13.8576 17.0435 17.3816C17.0435 20.9055 15.5357 23.98 14.7503 25.3425ZM18.1789 17.3815C18.1789 17.0268 18.1648 16.6772 18.1392 16.3334C19.7887 14.1718 21.8877 12.7728 23.001 12.1273C22.999 13.6644 22.769 16.958 21.0623 19.914C19.7247 22.2309 17.7456 23.8695 16.3133 24.8401C17.1579 23.1369 18.1789 20.4447 18.1789 17.3815ZM22.5582 24.146C20.5864 25.2843 18.4389 25.6878 16.9044 25.8204C18.4413 24.7894 20.5746 23.0296 22.0456 20.4818C22.1377 20.3221 22.2255 20.1616 22.31 20.0008C24.3673 19.2179 26.3815 19.0729 27.4944 19.0632C26.7748 20.2834 25.1345 22.6585 22.5582 24.146Z" fill="#141414" stroke="#141414" stroke-width="0.768"/>
<path d="M8.92483 4.70453C8.00136 4.70453 7.25 5.45589 7.25 6.37936C7.25 7.30284 8.00136 8.0542 8.92483 8.0542C9.84831 8.0542 10.5997 7.30284 10.5997 6.37936C10.5997 5.45589 9.84831 4.70453 8.92483 4.70453ZM8.92483 6.9187C8.62747 6.9187 8.3855 6.67672 8.3855 6.37936C8.3855 6.082 8.62747 5.84003 8.92483 5.84003C9.22219 5.84003 9.46417 6.082 9.46417 6.37936C9.46417 6.67672 9.22225 6.9187 8.92483 6.9187Z" fill="#141414"/>
<path d="M20.5244 4.70453C19.601 4.70453 18.8496 5.45589 18.8496 6.37936C18.8496 7.30284 19.601 8.0542 20.5244 8.0542C21.4479 8.0542 22.1993 7.30284 22.1993 6.37936C22.1993 5.45589 21.4479 4.70453 20.5244 4.70453ZM20.5244 6.9187C20.2271 6.9187 19.9851 6.67672 19.9851 6.37936C19.9851 6.082 20.2271 5.84003 20.5244 5.84003C20.8218 5.84003 21.0638 6.082 21.0638 6.37936C21.0638 6.67672 20.8219 6.9187 20.5244 6.9187Z" fill="#141414"/>
<path d="M14.9248 0.204529C14.0014 0.204529 13.25 0.955888 13.25 1.87936C13.25 2.80284 14.0014 3.5542 14.9248 3.5542C15.8483 3.5542 16.5997 2.80284 16.5997 1.87936C16.5997 0.955888 15.8483 0.204529 14.9248 0.204529ZM14.9248 2.4187C14.6275 2.4187 14.3855 2.17672 14.3855 1.87936C14.3855 1.582 14.6275 1.34003 14.9248 1.34003C15.2222 1.34003 15.4642 1.582 15.4642 1.87936C15.4642 2.17672 15.2222 2.4187 14.9248 2.4187Z" fill="#141414"/>
</svg>
