<svg width="37" height="37" viewBox="0 0 37 37" fill="none" xmlns="http://www.w3.org/2000/svg">
<path d="M35.8974 1.96007C35.8235 1.68003 35.6762 1.42457 35.4705 1.21983C35.2649 1.01509 35.0084 0.868425 34.7271 0.794833C31.3605 -0.0756706 27.8154 0.0182344 24.5 1.06574C21.1846 2.11324 18.2337 4.07175 15.9871 6.71579L14.1554 8.87956L9.88153 7.85324C8.8422 7.49215 7.70674 7.51779 6.68492 7.92544C5.6631 8.33308 4.82397 9.09518 4.32254 10.0709L0.711737 16.4446C0.585314 16.6678 0.513362 16.9174 0.50169 17.1734C0.490017 17.4293 0.538951 17.6844 0.644542 17.9181C0.750133 18.1518 0.909421 18.3574 1.10955 18.5185C1.30967 18.6796 1.54503 18.7915 1.79662 18.8453L6.84025 19.9223C6.41315 21.2172 6.10819 22.5489 5.92935 23.9001C5.89684 24.1482 5.92196 24.4004 6.00278 24.6372C6.08359 24.8741 6.21794 25.0893 6.39547 25.2664L11.4834 30.3326C11.636 30.4846 11.8171 30.6051 12.0165 30.6872C12.2159 30.7694 12.4296 30.8116 12.6454 30.8114C12.6914 30.8114 12.739 30.8098 12.7866 30.8049C14.1743 30.6807 15.5451 30.4124 16.8766 30.0041L17.9336 34.9134C17.9877 35.164 18.1001 35.3983 18.2619 35.5976C18.4236 35.7969 18.6302 35.9555 18.8648 36.0606C19.0995 36.1657 19.3557 36.2145 19.6127 36.2028C19.8698 36.1912 20.1205 36.1196 20.3447 35.9937L26.7538 32.395C27.6561 31.8493 28.3609 31.0322 28.7665 30.0617C29.1721 29.0912 29.2576 28.0174 29.0106 26.9954L27.9142 22.4848L29.9445 20.6267C32.6095 18.3955 34.5836 15.4567 35.6371 12.1522C36.6906 8.84773 36.782 5.31332 35.8974 1.96007ZM4.66557 16.1145L7.21939 11.6039C7.37831 11.2979 7.6487 11.064 7.97519 10.95C8.30168 10.8361 8.65956 10.8508 8.97555 10.991L11.7953 11.6709L10.7284 12.9325C9.71663 14.1395 8.84147 15.4537 8.11881 16.8515L4.66557 16.1145ZM25.1322 29.5514L20.6762 32.0551L19.9704 28.7784C21.3997 28.0688 22.7313 27.179 23.9325 26.1309L25.1519 25.0147L25.815 27.7341C25.9008 28.0702 25.8814 28.4244 25.7593 28.7492C25.6373 29.074 25.4185 29.3539 25.1322 29.5514ZM27.7829 18.1687L21.7348 23.7024C19.3413 25.7634 16.389 27.0735 13.2494 27.4677L9.30216 23.5389C9.83222 20.4044 11.1926 17.4674 13.2429 15.0309L15.9986 11.7738C16.0443 11.7264 16.0871 11.6762 16.1266 11.6235L18.4818 8.83706C20.2233 6.78913 22.4794 5.23807 25.0197 4.34226C27.5601 3.44646 30.2937 3.23799 32.9414 3.73815C33.4557 6.38278 33.2484 9.11635 32.3411 11.6541C31.4338 14.1918 29.8598 16.4426 27.7829 18.1687ZM26.268 8.09511C25.7811 8.09511 25.3051 8.23888 24.9002 8.50824C24.4954 8.77761 24.1798 9.16046 23.9935 9.6084C23.8072 10.0563 23.7584 10.5492 23.8534 11.0248C23.9484 11.5003 24.1829 11.9371 24.5272 12.2799C24.8715 12.6227 25.3102 12.8562 25.7877 12.9508C26.2653 13.0454 26.7603 12.9969 27.2101 12.8113C27.66 12.6258 28.0445 12.3116 28.315 11.9084C28.5855 11.5053 28.7299 11.0314 28.7299 10.5465C28.7299 9.89636 28.4705 9.27283 28.0088 8.81311C27.5471 8.35338 26.9209 8.09511 26.268 8.09511Z" fill="black"/>
</svg>
