<svg width="37" height="37" viewBox="0 0 37 37" fill="none" xmlns="http://www.w3.org/2000/svg">
<g clip-path="url(#clip0_2452_11220)">
<path d="M13.25 16.7045C16.5637 16.7045 19.25 14.0182 19.25 10.7045C19.25 7.39082 16.5637 4.70453 13.25 4.70453C9.93629 4.70453 7.25 7.39082 7.25 10.7045C7.25 14.0182 9.93629 16.7045 13.25 16.7045Z" stroke="black" stroke-width="3"/>
<path d="M2 30.9545V27.5082C2 25.8731 2.64954 24.305 3.80573 23.1488V23.1488C5.45696 21.4976 7.89939 20.921 10.1147 21.6594L10.885 21.9162C12.4201 22.4279 14.0799 22.4279 15.615 21.9162L16.3853 21.6594C18.6006 20.921 21.043 21.4976 22.6943 23.1488V23.1488C23.8505 24.305 24.5 25.8731 24.5 27.5082V30.9545" stroke="black" stroke-width="3"/>
<path d="M30.4349 13.7695C30.0566 14.1478 29.4433 14.1478 29.0651 13.7695V13.7695C29.0218 13.7262 28.9747 13.6866 28.9229 13.654C28.419 13.3369 27.8236 13.1947 27.2292 13.2512C26.6042 13.3106 26.0194 13.586 25.5755 14.0299C25.1315 14.4738 24.8562 15.0586 24.7968 15.6836C24.7419 16.2612 24.8746 16.8398 25.1731 17.3343C25.2221 17.4155 25.2837 17.4881 25.3508 17.5552L28.6893 20.8937C29.2751 21.4795 30.2249 21.4795 30.8106 20.8937L34.1492 17.5552C34.2162 17.4881 34.2778 17.4155 34.3269 17.3343C34.6254 16.8398 34.7581 16.2612 34.7032 15.6836C34.6438 15.0586 34.3684 14.4738 33.9245 14.0299C33.4805 13.586 32.8958 13.3106 32.2708 13.2512C31.6764 13.1947 31.0809 13.3369 30.5771 13.654C30.5252 13.6866 30.4782 13.7262 30.4349 13.7695V13.7695Z" stroke="black" stroke-width="3"/>
</g>
<defs>
<clipPath id="clip0_2452_11220">
<rect width="36" height="36" fill="white" transform="translate(0.5 0.204529)"/>
</clipPath>
</defs>
</svg>
