<svg width="22" height="22" viewBox="0 0 22 22" fill="none" xmlns="http://www.w3.org/2000/svg">
<path d="M10.9999 17.7983L5.81242 20.9233C5.58326 21.0692 5.34367 21.1317 5.09367 21.1108C4.84367 21.09 4.62492 21.0067 4.43742 20.8608C4.24992 20.715 4.10409 20.5329 3.99992 20.3146C3.89576 20.0963 3.87492 19.8513 3.93742 19.5796L5.31242 13.6733L0.718673 9.70459C0.51034 9.51709 0.38034 9.30334 0.328673 9.06334C0.277006 8.82334 0.292423 8.58917 0.374923 8.36084C0.457423 8.13251 0.582423 7.94501 0.749923 7.79834C0.917423 7.65167 1.14659 7.55792 1.43742 7.51709L7.49992 6.98584L9.84367 1.42334C9.94784 1.17334 10.1095 0.98584 10.3287 0.86084C10.5478 0.73584 10.7716 0.67334 10.9999 0.67334C11.2283 0.67334 11.452 0.73584 11.6712 0.86084C11.8903 0.98584 12.052 1.17334 12.1562 1.42334L14.4999 6.98584L20.5624 7.51709C20.8541 7.55876 21.0833 7.65251 21.2499 7.79834C21.4166 7.94417 21.5416 8.13167 21.6249 8.36084C21.7083 8.59001 21.7241 8.82459 21.6724 9.06459C21.6208 9.30459 21.4903 9.51792 21.2812 9.70459L16.6874 13.6733L18.0624 19.5796C18.1249 19.8504 18.1041 20.0954 17.9999 20.3146C17.8958 20.5338 17.7499 20.7158 17.5624 20.8608C17.3749 21.0058 17.1562 21.0892 16.9062 21.1108C16.6562 21.1325 16.4166 21.07 16.1874 20.9233L10.9999 17.7983Z" fill="#F7C663"/>
</svg>
