<svg width="145" height="123" viewBox="0 0 145 123" fill="none" xmlns="http://www.w3.org/2000/svg">
<path d="M139.541 72.106L140.024 86.7582L116.614 122.629L101.769 112.468C101.769 112.468 107.441 98.2673 107.372 96.1187C107.299 93.97 139.541 72.106 139.541 72.106Z" fill="white"/>
<path d="M112.755 107.188C112.755 107.188 111.976 115.817 116.631 121.549L140.325 84.5409C140.524 84.2266 141.024 84.3523 141.036 84.718L141.081 86.1753L117.819 122.154C117.432 122.754 116.716 123.08 115.994 122.983L3.81969 107.936C3.17177 107.851 2.59774 107.474 2.27378 106.931C-1.64213 100.37 0.688093 93.3814 0.688093 93.3814L30.1228 56.5337L139.24 68.8601C139.979 68.9401 140.541 69.5287 140.564 70.2487C140.576 70.5744 140.473 70.9002 140.269 71.163L112.755 107.188Z" fill="#A5A5A5"/>
<path d="M112.755 107.759C112.733 107.759 112.71 107.759 112.687 107.754L2.86529 94.3929C2.5527 94.3529 2.33105 94.0728 2.37083 93.7585C2.41061 93.4442 2.69479 93.2271 3.0017 93.2614L112.824 106.628C113.136 106.668 113.358 106.948 113.318 107.262C113.284 107.548 113.039 107.759 112.755 107.759Z" fill="black"/>
<path d="M115.574 108.725C115.455 108.725 115.341 108.691 115.239 108.616C114.989 108.428 114.932 108.074 115.119 107.816L137.018 77.9177C137.205 77.6662 137.558 77.6091 137.813 77.7977C138.064 77.9863 138.12 78.3406 137.933 78.5977L116.034 108.496C115.921 108.645 115.75 108.725 115.574 108.725Z" fill="black"/>
<path d="M116.256 112.457C116.143 112.457 116.023 112.422 115.927 112.348C115.671 112.165 115.614 111.805 115.802 111.548L137.683 81.112C137.865 80.8548 138.223 80.7977 138.479 80.9863C138.734 81.1691 138.791 81.5292 138.604 81.7863L116.722 112.222C116.609 112.377 116.432 112.457 116.256 112.457Z" fill="black"/>
<path d="M116.938 116.194C116.824 116.194 116.711 116.16 116.614 116.092C116.358 115.909 116.296 115.554 116.472 115.297L138.319 83.7927C138.501 83.5355 138.854 83.4727 139.109 83.6498C139.365 83.8327 139.428 84.187 139.251 84.4441L117.404 115.949C117.29 116.109 117.114 116.194 116.938 116.194Z" fill="black"/>
<path d="M143.144 53.0767V68.0546L119.092 103.731L104.9 92.7531C104.9 92.7531 110.902 78.4837 110.902 76.2893C110.902 74.0892 143.144 53.0767 143.144 53.0767Z" fill="white"/>
<path d="M115.818 87.8097C115.818 87.8097 114.784 96.593 119.149 102.628L143.514 65.8028C143.718 65.4885 144.201 65.6371 144.201 66.0142V67.5L120.297 103.29C119.899 103.885 119.188 104.188 118.484 104.062L9.24728 84.1409C8.61641 84.0266 8.0708 83.6209 7.76957 83.0494C4.15488 76.1862 6.65561 69.1458 6.65561 69.1458L89.0774 41.1558L142.957 49.7391C143.679 49.8534 144.207 50.4763 144.207 51.2077C144.207 51.5449 144.093 51.8706 143.889 52.1335L115.818 87.8097Z" fill="#83817E"/>
<path d="M115.818 88.3811C115.784 88.3811 115.756 88.3811 115.722 88.3753L8.73592 70.2658C8.42901 70.2144 8.21872 69.9172 8.26987 69.6086C8.32103 69.3 8.61657 69.0886 8.92347 69.14L115.909 87.2496C116.216 87.301 116.426 87.5982 116.375 87.9067C116.33 88.1868 116.091 88.3811 115.818 88.3811Z" fill="black"/>
<path d="M118.546 89.4782C118.427 89.4782 118.307 89.4382 118.205 89.3639C117.955 89.1753 117.904 88.8153 118.097 88.5638L140.479 58.928C140.666 58.6765 141.024 58.6251 141.274 58.8194C141.524 59.008 141.576 59.368 141.382 59.6194L119.001 89.2553C118.887 89.4039 118.717 89.4782 118.546 89.4782Z" fill="black"/>
<path d="M119.092 93.3243C118.972 93.3243 118.853 93.29 118.751 93.21C118.501 93.0215 118.449 92.6614 118.637 92.41L141.019 62.2255C141.206 61.9741 141.564 61.9227 141.814 62.1112C142.064 62.2998 142.115 62.6598 141.928 62.9113L119.546 93.0957C119.433 93.2443 119.262 93.3243 119.092 93.3243Z" fill="black"/>
<path d="M119.637 97.1644C119.524 97.1644 119.404 97.1301 119.308 97.0558C119.052 96.8729 118.995 96.5129 119.177 96.2558L141.559 64.9741C141.74 64.7169 142.098 64.6598 142.354 64.8427C142.61 65.0255 142.667 65.3855 142.485 65.6427L120.103 96.9244C119.984 97.0787 119.814 97.1644 119.637 97.1644Z" fill="black"/>
<path d="M6.21826 52.6765L18.1081 34.0298L133.409 38.95L133.278 60.374L110.897 72.9976C110.897 72.9976 71.0497 70.8032 68.3216 70.8032C65.5935 70.8032 6.21826 52.6765 6.21826 52.6765Z" fill="#A5A5A5"/>
<path d="M5.27483 53.8079C4.07562 56.6538 2.30806 62.8141 5.41692 69.923C5.79771 70.7974 6.65592 71.3745 7.60506 71.426L132.187 78.4778L133.278 60.3682L7.7983 52.2478C6.71275 52.1792 5.70109 52.8021 5.27483 53.8079Z" fill="#A5A5A5"/>
<path d="M132.738 60.9399C132.727 60.9399 132.715 60.9399 132.704 60.9399L6.61616 53.2595C6.30357 53.2424 6.06486 52.9681 6.08191 52.6538C6.09896 52.3395 6.37177 52.0994 6.68436 52.1166L132.772 59.8027C133.085 59.8199 133.324 60.0942 133.307 60.4085C133.284 60.7056 133.034 60.9399 132.738 60.9399Z" fill="black"/>
<path d="M140.558 22.3145C140.558 22.3145 135.824 32.3264 140.558 41.4069L86.3377 63.1109L74.3342 52.6875L73.7886 38.9668C73.7886 38.9668 113.09 26.3432 113.635 25.7946C114.175 25.246 140.558 22.3145 140.558 22.3145Z" fill="white"/>
<path d="M86.3378 63.1113C79.7904 53.2307 86.3378 41.7044 86.3378 41.7044L141.331 22.0348C141.74 21.8862 142.013 21.4976 142.013 21.0633V20.3033C142.013 20.0518 141.843 19.8347 141.604 19.7718L64.0926 0.0164891C64.0017 -0.00636926 63.8994 -0.00636926 63.8084 0.0222037L14.1349 14.2915C14.061 14.3144 13.9871 14.3487 13.9303 14.4001C13.8507 14.4687 6.03591 21.4176 12.7083 34.2812C12.7651 34.3955 12.8618 34.4869 12.9811 34.5326L86.1218 65.2657C86.19 65.2942 86.2582 65.3057 86.3321 65.3057C86.4003 65.3057 86.4742 65.2942 86.5367 65.2657L141.666 42.7616C141.871 42.6759 142.007 42.4759 142.007 42.253V41.9444C142.007 41.4073 141.467 41.0358 140.973 41.2358L86.3378 63.1113Z" fill="#C1C1C1"/>
<path d="M86.3374 42.2811C86.2692 42.2811 86.2067 42.2697 86.1385 42.2468L14.0947 15.354C13.7992 15.2454 13.6514 14.9139 13.7594 14.6168C13.8674 14.3196 14.197 14.171 14.4926 14.2796L86.542 41.1725C86.8375 41.2811 86.9853 41.6125 86.8773 41.9097C86.7864 42.1382 86.5704 42.2811 86.3374 42.2811Z" fill="black"/>
<path d="M89.0943 46.4361C88.867 46.4361 88.651 46.299 88.5657 46.0704C88.4521 45.7732 88.5998 45.4475 88.8897 45.3332L137.762 26.395C138.057 26.2808 138.381 26.4293 138.495 26.7208C138.609 27.0179 138.461 27.3437 138.171 27.458L89.2989 46.3961C89.2307 46.4247 89.1625 46.4361 89.0943 46.4361Z" fill="black"/>
<path d="M89.0489 58.4542C88.8215 58.4542 88.6056 58.317 88.5203 58.0884C88.4067 57.7913 88.5544 57.4656 88.8443 57.3513L137.716 38.4131C138.012 38.2988 138.336 38.4474 138.45 38.7388C138.563 39.036 138.416 39.3617 138.126 39.476L89.2535 58.4142C89.1853 58.4428 89.1171 58.4542 89.0489 58.4542Z" fill="black"/>
<path d="M87.4293 51.4019C87.2019 51.4019 86.986 51.2648 86.9007 51.0362C86.787 50.739 86.9348 50.4133 87.2247 50.299L136.097 31.3609C136.392 31.2466 136.716 31.3952 136.83 31.6866C136.944 31.9838 136.796 32.3095 136.506 32.4238L87.6339 51.3619C87.5714 51.3905 87.4975 51.4019 87.4293 51.4019Z" fill="black"/>
<path d="M87.4175 55.2252C87.1902 55.2252 86.9742 55.088 86.889 54.8594C86.7753 54.5623 86.9231 54.2366 87.2129 54.1223L136.085 35.1841C136.381 35.0698 136.705 35.2184 136.818 35.5098C136.932 35.807 136.784 36.1327 136.494 36.247L87.6221 55.1852C87.5539 55.2137 87.4857 55.2252 87.4175 55.2252Z" fill="black"/>
</svg>
