<svg width="294" height="294" viewBox="0 0 294 294" fill="none" xmlns="http://www.w3.org/2000/svg">
<path d="M147.025 89.772C178.659 89.7721 204.326 115.373 204.326 146.982C204.326 178.59 178.659 204.191 147.025 204.191C115.392 204.191 89.7237 178.59 89.7236 146.982C89.7236 115.373 115.392 89.772 147.025 89.772Z" stroke="url(#paint0_radial_3458_34057)" stroke-width="14.6926"/>
<circle opacity="0.8" cx="147.025" cy="147.074" r="78.7892" stroke="url(#paint1_radial_3458_34057)" stroke-width="14.6926"/>
<circle opacity="0.6" cx="147.025" cy="147.073" r="96.2367" stroke="url(#paint2_radial_3458_34057)" stroke-width="14.6926"/>
<path d="M162.455 127.181C162.243 127.181 162.031 127.128 161.845 127.022C156.751 124.395 152.346 123.28 147.066 123.28C141.812 123.28 136.824 124.527 132.286 127.022C131.65 127.367 130.854 127.128 130.482 126.491C130.137 125.854 130.376 125.032 131.013 124.687C135.948 122.007 141.361 120.627 147.066 120.627C152.717 120.627 157.653 121.874 163.066 124.66C163.729 125.005 163.968 125.801 163.623 126.438C163.384 126.915 162.933 127.181 162.455 127.181ZM124.485 141.111C124.22 141.111 123.955 141.031 123.716 140.872C123.106 140.448 122.973 139.625 123.398 139.015C126.024 135.3 129.368 132.381 133.348 130.338C141.679 126.04 152.346 126.013 160.704 130.312C164.684 132.355 168.027 135.247 170.654 138.935C171.079 139.519 170.946 140.368 170.336 140.793C169.726 141.217 168.903 141.084 168.478 140.474C166.09 137.131 163.066 134.504 159.484 132.673C151.868 128.773 142.13 128.773 134.542 132.7C130.933 134.557 127.908 137.211 125.52 140.554C125.308 140.925 124.91 141.111 124.485 141.111ZM141.069 173.137C140.724 173.137 140.379 173.005 140.14 172.739C137.832 170.431 136.585 168.945 134.807 165.734C132.976 162.471 132.021 158.491 132.021 154.219C132.021 146.338 138.761 139.917 147.039 139.917C155.318 139.917 162.057 146.338 162.057 154.219C162.057 154.962 161.474 155.545 160.731 155.545C159.988 155.545 159.404 154.962 159.404 154.219C159.404 147.798 153.858 142.57 147.039 142.57C140.22 142.57 134.674 147.798 134.674 154.219C134.674 158.04 135.524 161.569 137.142 164.434C138.84 167.486 140.008 168.786 142.051 170.855C142.555 171.386 142.555 172.209 142.051 172.739C141.759 173.005 141.414 173.137 141.069 173.137ZM160.094 168.229C156.936 168.229 154.15 167.433 151.868 165.867C147.915 163.187 145.553 158.836 145.553 154.219C145.553 153.476 146.137 152.892 146.88 152.892C147.623 152.892 148.207 153.476 148.207 154.219C148.207 157.96 150.117 161.489 153.354 163.665C155.238 164.938 157.44 165.549 160.094 165.549C160.731 165.549 161.792 165.469 162.853 165.283C163.57 165.151 164.26 165.628 164.392 166.371C164.525 167.088 164.047 167.777 163.304 167.91C161.792 168.202 160.465 168.229 160.094 168.229ZM154.761 173.695C154.654 173.695 154.522 173.668 154.416 173.641C150.197 172.474 147.437 170.908 144.545 168.069C140.83 164.381 138.787 159.472 138.787 154.219C138.787 149.92 142.449 146.418 146.96 146.418C151.47 146.418 155.132 149.92 155.132 154.219C155.132 157.058 157.6 159.366 160.651 159.366C163.702 159.366 166.17 157.058 166.17 154.219C166.17 144.215 157.547 136.096 146.933 136.096C139.397 136.096 132.499 140.288 129.394 146.789C128.359 148.938 127.829 151.459 127.829 154.219C127.829 156.288 128.014 159.552 129.606 163.797C129.872 164.487 129.527 165.257 128.837 165.496C128.147 165.761 127.378 165.389 127.139 164.726C125.839 161.25 125.202 157.801 125.202 154.219C125.202 151.035 125.812 148.142 127.006 145.622C130.535 138.219 138.363 133.416 146.933 133.416C159.006 133.416 168.823 142.73 168.823 154.192C168.823 158.491 165.162 161.993 160.651 161.993C156.14 161.993 152.479 158.491 152.479 154.192C152.479 151.353 150.011 149.045 146.96 149.045C143.908 149.045 141.441 151.353 141.441 154.192C141.441 158.729 143.192 162.975 146.402 166.159C148.923 168.653 151.338 170.033 155.079 171.068C155.795 171.253 156.193 171.996 156.008 172.686C155.875 173.297 155.318 173.695 154.761 173.695Z" fill="#F7C663"/>
<circle cx="147.026" cy="147.074" r="29.5689" fill="#F7C663"/>
<path d="M138.017 136.273C137.857 136.271 137.701 136.219 137.572 136.125C137.443 136.03 137.346 135.898 137.295 135.746C137.245 135.594 137.243 135.43 137.289 135.277C137.336 135.124 137.43 134.989 137.556 134.891C140.318 132.937 143.645 131.942 147.026 132.058C149.689 132.058 153.513 132.509 156.536 134.681C156.701 134.8 156.813 134.979 156.847 135.18C156.881 135.38 156.834 135.586 156.716 135.752C156.594 135.917 156.413 136.027 156.21 136.058C156.008 136.09 155.802 136.041 155.635 135.922C153.068 134.291 150.066 133.478 147.026 133.59C143.992 133.487 141.005 134.372 138.517 136.113C138.376 136.225 138.198 136.282 138.017 136.273Z" fill="white"/>
<path d="M159.268 143.33C159.145 143.329 159.023 143.298 158.913 143.241C158.804 143.184 158.709 143.101 158.638 143C156.906 140.557 153.813 137.304 147.026 137.304C144.769 137.247 142.532 137.736 140.505 138.73C138.478 139.723 136.721 141.191 135.384 143.01C135.264 143.173 135.084 143.283 134.883 143.315C134.683 143.347 134.477 143.298 134.313 143.18C134.226 143.12 134.153 143.042 134.098 142.952C134.043 142.862 134.007 142.762 133.993 142.657C133.979 142.553 133.987 142.447 134.016 142.345C134.045 142.244 134.095 142.15 134.162 142.069C135.645 140.066 137.588 138.448 139.826 137.352C142.065 136.256 144.534 135.715 147.026 135.772C152.642 135.772 156.846 137.854 159.879 142.119C159.995 142.286 160.041 142.493 160.005 142.694C159.969 142.894 159.856 143.073 159.689 143.19C159.565 143.275 159.419 143.324 159.268 143.33Z" fill="white"/>
<path d="M143.303 162.09C143.147 162.089 142.996 162.042 142.867 161.954C142.739 161.867 142.64 161.743 142.582 161.599C142.542 161.505 142.522 161.403 142.522 161.301C142.523 161.199 142.544 161.097 142.586 161.004C142.627 160.91 142.687 160.825 142.762 160.756C142.837 160.686 142.926 160.632 143.022 160.598C147.397 158.916 150.03 155.473 150.03 151.379C150.059 150.977 150.002 150.573 149.862 150.195C149.722 149.817 149.501 149.474 149.216 149.189C148.931 148.904 148.588 148.684 148.21 148.543C147.832 148.403 147.428 148.346 147.026 148.376C145.165 148.376 144.264 149.377 144.023 151.729C143.912 152.829 143.378 153.843 142.534 154.558C141.69 155.273 140.602 155.633 139.499 155.563C138.905 155.572 138.316 155.457 137.77 155.225C137.223 154.994 136.731 154.651 136.324 154.219C135.917 153.786 135.605 153.274 135.407 152.714C135.209 152.155 135.13 151.56 135.174 150.968C135.229 147.873 136.507 144.926 138.727 142.769C140.948 140.612 143.931 139.421 147.026 139.456C150.2 139.456 153.245 140.712 155.496 142.95C157.747 145.188 159.02 148.225 159.039 151.399C158.967 153.633 158.496 155.837 157.647 157.905C157.566 158.09 157.416 158.236 157.23 158.312C157.043 158.389 156.834 158.39 156.646 158.316C156.553 158.278 156.469 158.221 156.398 158.15C156.327 158.079 156.27 157.994 156.232 157.901C156.194 157.808 156.175 157.708 156.175 157.608C156.176 157.507 156.197 157.407 156.236 157.315C157.004 155.433 157.434 153.43 157.507 151.399C157.494 148.63 156.383 145.979 154.419 144.027C152.454 142.075 149.796 140.983 147.026 140.988C145.686 140.961 144.354 141.199 143.107 141.688C141.859 142.177 140.72 142.908 139.754 143.838C138.789 144.767 138.017 145.879 137.482 147.107C136.947 148.336 136.659 149.658 136.636 150.998C136.595 151.388 136.637 151.781 136.759 152.154C136.881 152.526 137.08 152.868 137.344 153.157C137.608 153.446 137.93 153.677 138.29 153.833C138.649 153.988 139.037 154.066 139.429 154.061C139.789 154.097 140.153 154.061 140.5 153.956C140.846 153.85 141.168 153.677 141.448 153.446C141.727 153.215 141.958 152.931 142.126 152.611C142.295 152.29 142.399 151.94 142.432 151.579C142.792 148.466 144.324 146.884 146.996 146.884C147.602 146.853 148.207 146.951 148.773 147.17C149.339 147.389 149.851 147.725 150.278 148.156C150.705 148.586 151.037 149.102 151.251 149.67C151.465 150.237 151.557 150.843 151.521 151.449C151.521 156.194 148.518 160.178 143.513 162.09C143.443 162.097 143.372 162.097 143.303 162.09Z" fill="white"/>
<path d="M150.8 161.369C150.608 161.367 150.424 161.296 150.28 161.169C150.208 161.098 150.152 161.014 150.113 160.921C150.074 160.828 150.054 160.729 150.054 160.628C150.054 160.528 150.074 160.428 150.113 160.335C150.152 160.242 150.208 160.158 150.28 160.088C152.532 157.753 153.8 154.642 153.823 151.399C153.823 149.837 153.343 144.742 147.116 144.742C146.209 144.71 145.305 144.859 144.456 145.18C143.607 145.502 142.83 145.989 142.171 146.614C141.582 147.197 141.116 147.893 140.801 148.66C140.487 149.427 140.329 150.249 140.339 151.078C140.337 151.281 140.254 151.474 140.11 151.617C139.966 151.759 139.771 151.839 139.569 151.839C139.468 151.84 139.368 151.822 139.274 151.784C139.181 151.746 139.096 151.691 139.024 151.62C138.952 151.549 138.895 151.465 138.857 151.372C138.818 151.279 138.798 151.179 138.798 151.078C138.782 150.053 138.971 149.034 139.352 148.082C139.734 147.13 140.301 146.263 141.02 145.532C141.818 144.767 142.759 144.168 143.79 143.769C144.821 143.37 145.921 143.18 147.026 143.21C153.113 143.21 155.275 147.615 155.275 151.399C155.261 155.009 153.864 158.477 151.371 161.089C151.302 161.174 151.215 161.244 151.117 161.292C151.018 161.341 150.91 161.367 150.8 161.369Z" fill="white"/>
<path d="M139.68 158.826C139.158 158.825 138.636 158.795 138.118 158.736C138.018 158.725 137.921 158.694 137.833 158.646C137.745 158.597 137.668 158.532 137.605 158.453C137.542 158.375 137.496 158.285 137.468 158.188C137.44 158.091 137.431 157.99 137.442 157.89C137.453 157.79 137.484 157.694 137.533 157.606C137.581 157.518 137.647 157.44 137.725 157.377C137.804 157.315 137.894 157.268 137.991 157.24C138.087 157.212 138.188 157.204 138.288 157.215C140.781 157.495 142.743 157.055 144.134 155.893C144.776 155.32 145.294 154.622 145.659 153.843C146.024 153.064 146.227 152.219 146.256 151.359C146.261 151.257 146.287 151.158 146.331 151.067C146.376 150.975 146.438 150.894 146.515 150.828C146.592 150.761 146.681 150.711 146.778 150.68C146.874 150.649 146.976 150.638 147.077 150.648C147.279 150.663 147.467 150.756 147.601 150.908C147.736 151.059 147.806 151.257 147.798 151.459C147.755 152.529 147.495 153.58 147.034 154.547C146.573 155.514 145.92 156.377 145.115 157.085C143.57 158.297 141.641 158.915 139.68 158.826Z" fill="white"/>
<defs>
<radialGradient id="paint0_radial_3458_34057" cx="0" cy="0" r="1" gradientUnits="userSpaceOnUse" gradientTransform="translate(147.025 146.982) rotate(90) scale(60.6071 60.7187)">
<stop stop-color="#F7C663"/>
<stop offset="0.773365" stop-color="#F7C663" stop-opacity="0.520833"/>
<stop offset="1" stop-color="#F7C663" stop-opacity="0"/>
</radialGradient>
<radialGradient id="paint1_radial_3458_34057" cx="0" cy="0" r="1" gradientUnits="userSpaceOnUse" gradientTransform="translate(147.025 147.074) rotate(90) scale(78.9729)">
<stop stop-color="#F7C663"/>
<stop offset="0.864974" stop-color="#F7C663" stop-opacity="0.47"/>
<stop offset="1" stop-color="#F7C663" stop-opacity="0"/>
</radialGradient>
<radialGradient id="paint2_radial_3458_34057" cx="0" cy="0" r="1" gradientUnits="userSpaceOnUse" gradientTransform="translate(147.025 147.073) rotate(90) scale(95.3184)">
<stop stop-color="#F7C663"/>
<stop offset="0.868837" stop-color="#F7C663" stop-opacity="0.578125"/>
<stop offset="1" stop-color="#F7C663" stop-opacity="0"/>
</radialGradient>
</defs>
</svg>
