<svg width="92" height="149" viewBox="0 0 92 149" fill="none" xmlns="http://www.w3.org/2000/svg">
<g clip-path="url(#clip0_2398_4197)">
<path d="M41.5424 38.8863L36.7386 36.0078L35.8236 41.5321C34.3672 50.2551 28.4083 58.3605 21.8355 64.0564C9.24971 71.999 9.25 85.499 9.25 90.749C13.0625 100.326 27.169 113.478 36.99 114.572L47.055 115.815C41.4353 112.38 45.7968 121.812 47.055 115.815C47.4131 114.976 33.3988 119.665 41.5424 114.572L43.395 114.9L47.7415 114.984C48.645 117.698 46.4432 112.609 48.033 114.824C48.7955 115.891 48.6133 112.837 49.3224 113.985C51.7739 117.969 50.0951 110.502 48.5129 114.898C47.0718 118.893 51.0164 113.241 47.7415 114.984L51.4396 114.572C60.6582 113.546 70.1041 109.522 74.4999 104.249C78.8576 99.0221 81.1357 92.5137 83.4996 86.999C85.75 81.749 74.9666 72.4515 71.7336 66.7289C67.944 60.0266 62.9991 54.4603 57.6006 49.0656C56.6666 50.9337 56.739 51.6886 54.8175 54.6891C52.3222 48.0628 47.6387 42.4875 41.5424 38.8863Z" fill="#F94C13"/>
</g>
<g clip-path="url(#clip1_2398_4197)">
<path d="M23.3125 78.9375H24.0625V78.1875V75.8438C24.0625 75.4211 24.2304 75.0157 24.5293 74.7168L24.004 74.1915L24.5293 74.7168C24.8282 74.4179 25.2336 74.25 25.6562 74.25C26.0789 74.25 26.4843 74.4179 26.7832 74.7168L27.3123 74.1877L26.7832 74.7168C27.0821 75.0157 27.25 75.4211 27.25 75.8438V78.1875V78.9375H28H65.5H66.25V78.1875V75.8438C66.25 75.4211 66.4179 75.0157 66.7168 74.7168L66.1871 74.1871L66.7168 74.7168C67.0157 74.4179 67.4211 74.25 67.8438 74.25C68.2664 74.25 68.6718 74.4179 68.9707 74.7168L69.501 74.1865L68.9707 74.7168C69.2696 75.0157 69.4375 75.4211 69.4375 75.8438V78.1875V78.9375H70.1875H74.875C77.1625 78.9375 79.3563 79.8462 80.9738 81.4637L81.5041 80.9334L80.9738 81.4637C82.5913 83.0812 83.5 85.275 83.5 87.5625V91.5H10V87.5625C10 85.275 10.9087 83.0812 12.5262 81.4637C14.1437 79.8462 16.3375 78.9375 18.625 78.9375H23.3125ZM10 97.6875H83.5V139.125C83.5 141.412 82.5913 143.606 80.9738 145.224C79.3563 146.841 77.1625 147.75 74.875 147.75H18.625C16.3375 147.75 14.1437 146.841 12.5262 145.224L11.9959 145.754L12.5262 145.224C10.9087 143.606 10 141.412 10 139.125V97.6875Z" fill="#F94C13" stroke="#F94C13" stroke-width="1.5"/>
<path d="M35.8349 127.128L42.1949 120.48C42.6429 120 43.0029 119.576 43.2749 119.208C43.5629 118.824 43.7709 118.464 43.8989 118.128C44.0269 117.776 44.0909 117.424 44.0909 117.072C44.0909 116.368 43.8589 115.816 43.3949 115.416C42.9469 115.016 42.3629 114.816 41.6429 114.816C40.9069 114.816 40.2509 115.008 39.6749 115.392C39.1149 115.776 38.5869 116.384 38.0909 117.216L35.8589 115.32C36.5309 114.184 37.3629 113.328 38.3549 112.752C39.3629 112.16 40.5149 111.864 41.8109 111.864C42.9149 111.864 43.8749 112.08 44.6909 112.512C45.5229 112.944 46.1629 113.544 46.6109 114.312C47.0589 115.08 47.2829 115.976 47.2829 117C47.2829 117.688 47.1949 118.312 47.0189 118.872C46.8589 119.432 46.5789 119.992 46.1789 120.552C45.7949 121.096 45.2589 121.712 44.5709 122.4L39.9389 127.128H35.8349ZM35.8349 129V127.128L38.6189 126.168H47.6429V129H35.8349ZM52.3406 129V112.128H55.5566V129H52.3406ZM49.0286 114.96V112.128H55.3166V114.96H49.0286Z" fill="white"/>
</g>
<defs>
<clipPath id="clip0_2398_4197">
<rect width="91.5" height="91.5" fill="white" transform="translate(0.25)"/>
</clipPath>
<clipPath id="clip1_2398_4197">
<rect width="75" height="75" fill="white" transform="translate(9.25 73.5)"/>
</clipPath>
</defs>
</svg>
