<svg width="28" height="27" viewBox="0 0 28 27" fill="none" xmlns="http://www.w3.org/2000/svg">
<path d="M26.9662 15.4648C27.0894 17.6379 26.1177 19.7268 24.3797 21.0026L25.4334 23.0916C25.7482 23.7225 25.7893 24.4655 25.5156 25.1245C25.2555 25.7834 24.7218 26.3021 24.0649 26.5265L22.9837 26.877C22.5335 27.0317 22.0476 27.0407 21.5922 26.9028C21.1368 26.7648 20.7339 26.4866 20.4382 26.1059L17.5368 22.6009C16.3188 22.3906 15.1692 21.8579 14.1976 21.0587C13.5133 21.269 12.829 21.3812 12.1447 21.3812C10.9404 21.3812 9.73605 21.0026 8.72332 20.2736C7.99798 20.4979 7.25896 20.5961 6.50625 20.5821C5.42509 20.5961 4.35761 20.3718 3.35856 19.9512C2.39644 19.5123 1.57431 18.8049 0.986207 17.9099C0.3981 17.0148 0.0677556 15.9683 0.0329558 14.89C-0.0765291 13.8806 0.0876982 12.8571 0.511952 11.9318C0.115069 10.8803 0.0740125 9.73071 0.416153 8.6652C0.92252 7.33332 1.88051 6.22575 3.07116 5.52476C3.86493 3.15541 6.09568 1.57117 8.5454 1.73941C10.7351 -0.363566 14.0881 -0.587883 16.5241 1.22067C17.0989 1.06646 17.7011 0.982337 18.3032 0.982337C20.1645 0.940277 21.9299 1.78147 23.0932 3.28159C25.8851 4.02464 27.8832 6.57625 27.9927 9.54845C28.0611 11.1046 27.6505 12.6328 26.8157 13.9367C26.9115 14.4414 26.9662 14.9461 26.9662 15.4648ZM20.1234 13.488C20.9035 13.5862 21.5194 14.189 21.5194 14.9881C21.5194 15.36 21.3752 15.7166 21.1185 15.9795C20.8619 16.2424 20.5138 16.3901 20.1508 16.3901H19.2886C18.8507 17.6519 18.0843 18.7595 17.0715 19.6007C17.4137 19.7268 17.7695 19.7969 18.1253 19.8951C25.146 19.7969 24.3249 15.4087 24.3249 15.3386C24.3073 14.8617 24.198 14.393 24.0034 13.9593C23.8088 13.5256 23.5326 13.1355 23.1907 12.8113C22.8488 12.487 22.4478 12.2351 22.0107 12.0697C21.5737 11.9044 21.109 11.8289 20.6435 11.8477C20.2805 11.8477 19.9324 11.7 19.6758 11.4371C19.4191 11.1741 19.2749 10.8175 19.2749 10.4457C19.2749 10.0739 19.4191 9.71729 19.6758 9.45437C19.9324 9.19144 20.2805 9.04374 20.6435 9.04374C22.3268 9.0858 23.9417 9.73071 25.2008 10.8663C25.2692 10.4597 25.3103 10.0391 25.3103 9.61855C25.2282 7.88009 24.4618 6.36595 21.3825 6.07153C19.6718 1.92167 15.3608 4.22092 15.3608 5.51074C15.3198 5.8332 15.6482 6.52017 15.703 6.56223C16.0659 6.56223 16.414 6.70994 16.6707 6.97286C16.9273 7.23578 17.0715 7.59238 17.0715 7.96421C17.0715 8.7353 16.4557 9.36619 15.703 9.36619C14.9776 9.33815 14.2934 9.05776 13.7459 8.58108C13.089 9.0157 12.3363 9.28207 11.5562 9.36619C10.7762 9.43629 10.1329 8.8755 10.0919 8.10441C10.0671 7.92133 10.079 7.735 10.1268 7.55678C10.1746 7.37857 10.2575 7.21222 10.3702 7.06789C10.4829 6.92356 10.6231 6.80428 10.7823 6.71734C10.9416 6.6304 11.1164 6.57762 11.2962 6.56223C11.5152 6.53419 12.5827 6.36595 12.5827 5.4827C12.5827 4.55739 12.9248 3.67414 13.5133 2.97315C12.2542 2.62266 10.8993 3.08531 9.53077 4.78171C7.01262 4.37513 5.98619 4.72563 5.23349 7.4595C3.93335 8.11843 3.24907 8.58108 2.94799 9.98306C4.42604 9.67463 5.94514 9.80081 7.35476 10.3336C8.03904 10.5999 8.42223 11.385 8.16221 12.1421C7.90218 12.8711 7.10841 13.2357 6.39676 12.9693C5.39771 12.5207 4.27549 12.4926 3.24907 12.8852C2.81113 13.2637 2.81113 14.0488 2.81113 14.6657C2.81113 15.7032 3.3175 16.6705 4.17969 17.2313C4.90503 17.6098 5.71248 17.8061 6.51993 17.7921C6.31465 17.4276 6.13674 17.0491 5.98619 16.6565C5.87846 16.2963 5.91127 15.9073 6.07775 15.5714C6.24422 15.2355 6.53137 14.9788 6.87881 14.8553C7.22624 14.7318 7.60689 14.7512 7.94068 14.9093C8.27447 15.0674 8.5354 15.352 8.66857 15.7032C9.216 17.3014 10.6119 18.395 12.2542 18.5772C14.1291 18.4791 15.7988 17.3435 16.6199 15.591C16.9347 13.6563 18.4538 13.488 20.1234 13.488ZM22.8605 23.9608L22.012 22.1383L21.0404 22.3626L22.4089 24.115L22.8605 23.9608ZM16.4967 11.8898C16.5086 11.5316 16.3862 11.1824 16.1546 10.9138C15.923 10.6453 15.5998 10.4778 15.2514 10.4457C14.2797 10.3896 13.3354 10.7261 12.61 11.385C11.8299 12.1982 11.4194 13.3198 11.4604 14.4554C11.4604 14.8272 11.6046 15.1838 11.8613 15.4467C12.1179 15.7097 12.466 15.8574 12.829 15.8574C13.6091 15.8574 14.1976 15.2265 14.1976 14.4554C14.1976 14.0769 14.2934 13.6983 14.5123 13.3899C14.6766 13.2497 14.8818 13.1796 15.1008 13.1796C15.8535 13.2216 16.4967 12.6468 16.4967 11.8898Z" fill="#F7C663"/>
</svg>
