<svg width="28" height="27" viewBox="0 0 28 27" fill="none" xmlns="http://www.w3.org/2000/svg">
<path d="M7 9.94737C7.92826 9.94737 8.8185 9.57307 9.47487 8.90683C10.1313 8.24058 10.5 7.33695 10.5 6.39474C10.5 5.45252 10.1313 4.54889 9.47487 3.88265C8.8185 3.2164 7.92826 2.84211 7 2.84211C6.07174 2.84211 5.1815 3.2164 4.52513 3.88265C3.86875 4.54889 3.5 5.45252 3.5 6.39474C3.5 7.33695 3.86875 8.24058 4.52513 8.90683C5.1815 9.57307 6.07174 9.94737 7 9.94737ZM7 12.7895C6.17267 12.7895 5.35345 12.6241 4.58909 12.3027C3.82474 11.9813 3.13024 11.5103 2.54523 10.9165C1.96022 10.3227 1.49616 9.61774 1.17956 8.8419C0.862954 8.06605 0.7 7.23451 0.7 6.39474C0.7 5.55497 0.862954 4.72342 1.17956 3.94758C1.49616 3.17173 1.96022 2.46678 2.54523 1.87297C3.13024 1.27917 3.82474 0.808136 4.58909 0.48677C5.35345 0.165405 6.17267 -1.25135e-08 7 0C8.67086 2.52722e-08 10.2733 0.673729 11.4548 1.87297C12.6363 3.07222 13.3 4.69875 13.3 6.39474C13.3 8.09073 12.6363 9.71725 11.4548 10.9165C10.2733 12.1157 8.67086 12.7895 7 12.7895ZM21.7 15.6316C22.4426 15.6316 23.1548 15.3321 23.6799 14.7991C24.205 14.2661 24.5 13.5432 24.5 12.7895C24.5 12.0357 24.205 11.3128 23.6799 10.7798C23.1548 10.2468 22.4426 9.94737 21.7 9.94737C20.9574 9.94737 20.2452 10.2468 19.7201 10.7798C19.195 11.3128 18.9 12.0357 18.9 12.7895C18.9 13.5432 19.195 14.2661 19.7201 14.7991C20.2452 15.3321 20.9574 15.6316 21.7 15.6316ZM21.7 18.4737C20.2148 18.4737 18.7904 17.8748 17.7402 16.8088C16.69 15.7428 16.1 14.297 16.1 12.7895C16.1 11.2819 16.69 9.83613 17.7402 8.77013C18.7904 7.70413 20.2148 7.10526 21.7 7.10526C23.1852 7.10526 24.6096 7.70413 25.6598 8.77013C26.71 9.83613 27.3 11.2819 27.3 12.7895C27.3 14.297 26.71 15.7428 25.6598 16.8088C24.6096 17.8748 23.1852 18.4737 21.7 18.4737ZM25.2 27V26.2895C25.2 25.3473 24.8313 24.4436 24.1749 23.7774C23.5185 23.1111 22.6283 22.7368 21.7 22.7368C20.7717 22.7368 19.8815 23.1111 19.2251 23.7774C18.5687 24.4436 18.2 25.3473 18.2 26.2895V27H15.4V26.2895C15.4 25.4497 15.563 24.6182 15.8796 23.8423C16.1962 23.0665 16.6602 22.3615 17.2452 21.7677C17.8302 21.1739 18.5247 20.7029 19.2891 20.3815C20.0534 20.0601 20.8727 19.8947 21.7 19.8947C22.5273 19.8947 23.3466 20.0601 24.1109 20.3815C24.8753 20.7029 25.5698 21.1739 26.1548 21.7677C26.7398 22.3615 27.2038 23.0665 27.5204 23.8423C27.837 24.6182 28 25.4497 28 26.2895V27H25.2ZM11.2 27V21.3158C11.2 20.7559 11.0914 20.2016 10.8803 19.6843C10.6692 19.1671 10.3599 18.6972 9.96985 18.3013C9.57984 17.9054 9.11684 17.5914 8.60727 17.3771C8.0977 17.1629 7.55155 17.0526 7 17.0526C6.44845 17.0526 5.9023 17.1629 5.39273 17.3771C4.88316 17.5914 4.42016 17.9054 4.03015 18.3013C3.64015 18.6972 3.33078 19.1671 3.11971 19.6843C2.90864 20.2016 2.8 20.7559 2.8 21.3158V27H0V21.3158C0 19.4314 0.737498 17.6241 2.05025 16.2916C3.36301 14.9591 5.14348 14.2105 7 14.2105C8.85651 14.2105 10.637 14.9591 11.9497 16.2916C13.2625 17.6241 14 19.4314 14 21.3158V27H11.2Z" fill="#F7C663"/>
</svg>
