<svg width="25" height="29" viewBox="0 0 25 29" fill="none" xmlns="http://www.w3.org/2000/svg">
<path d="M12.5 26.2381C9.92151 26.2381 7.44862 25.2196 5.62535 23.4068C3.80208 21.5939 2.77778 19.1352 2.77778 16.5714C2.77778 14.0077 3.80208 11.5489 5.62535 9.73606C7.44862 7.92321 9.92151 6.90476 12.5 6.90476C15.0785 6.90476 17.5514 7.92321 19.3746 9.73606C21.1979 11.5489 22.2222 14.0077 22.2222 16.5714C22.2222 19.1352 21.1979 21.5939 19.3746 23.4068C17.5514 25.2196 15.0785 26.2381 12.5 26.2381ZM22.2639 8.82429L24.2361 6.86333C23.6111 6.15905 22.9861 5.52381 22.2778 4.91619L20.3056 6.90476C18.1528 5.16476 15.4444 4.14286 12.5 4.14286C9.18479 4.14286 6.00537 5.45229 3.66116 7.7831C1.31696 10.1139 0 13.2752 0 16.5714C0 19.8677 1.31696 23.0289 3.66116 25.3598C6.00537 27.6906 9.18479 29 12.5 29C19.4444 29 25 23.4348 25 16.5714C25 13.6438 23.9722 10.951 22.2639 8.82429ZM11.1111 17.9524H13.8889V9.66667H11.1111M16.6667 0H8.33333V2.7619H16.6667V0Z" fill="#F7C663"/>
</svg>
