<svg width="26" height="28" viewBox="0 0 26 28" fill="none" xmlns="http://www.w3.org/2000/svg">
<path d="M14.569 12.9336C14.9239 13.0703 15.2694 13.2207 15.6056 13.3848C15.9418 13.5488 16.2687 13.7357 16.5862 13.9453C16.3807 14.1641 16.194 14.3919 16.0259 14.6289C15.8578 14.8659 15.7037 15.1211 15.5636 15.3945C14.8445 14.9388 14.0787 14.5924 13.2662 14.3555C12.4537 14.1185 11.6178 14 10.7586 14C9.93678 14 9.14296 14.1048 8.37716 14.3145C7.61135 14.5241 6.89691 14.8158 6.23384 15.1895C5.57076 15.5632 4.96839 16.0189 4.42672 16.5566C3.88506 17.0944 3.4181 17.6868 3.02586 18.334C2.63362 18.9811 2.3301 19.6784 2.1153 20.4258C1.9005 21.1732 1.7931 21.9479 1.7931 22.75H0C0 21.6562 0.163434 20.6035 0.490302 19.5918C0.81717 18.5801 1.28879 17.6458 1.90517 16.7891C2.52155 15.9323 3.25 15.1712 4.09052 14.5059C4.93103 13.8405 5.88362 13.3164 6.94828 12.9336C5.89296 12.2591 5.07112 11.4115 4.48276 10.3906C3.8944 9.36979 3.59555 8.23958 3.58621 7C3.58621 6.03385 3.77299 5.12695 4.14655 4.2793C4.52011 3.43164 5.02909 2.6888 5.67349 2.05078C6.31789 1.41276 7.07902 0.911458 7.9569 0.546875C8.83477 0.182292 9.76868 0 10.7586 0C11.7486 0 12.6778 0.182292 13.5463 0.546875C14.4149 0.911458 15.176 1.4082 15.8297 2.03711C16.4835 2.66602 16.9971 3.40885 17.3707 4.26562C17.7443 5.1224 17.931 6.03385 17.931 7C17.931 7.60156 17.8563 8.18945 17.7069 8.76367C17.5575 9.33789 17.3333 9.88021 17.0345 10.3906C16.7356 10.901 16.3854 11.3704 15.9838 11.7988C15.5823 12.2272 15.1106 12.6055 14.569 12.9336ZM5.37931 7C5.37931 7.72917 5.5194 8.4082 5.79957 9.03711C6.07974 9.66602 6.46264 10.222 6.94828 10.7051C7.43391 11.1882 8.00359 11.5664 8.65733 11.8398C9.31106 12.1133 10.0115 12.25 10.7586 12.25C11.4964 12.25 12.1922 12.1133 12.8459 11.8398C13.4996 11.5664 14.0693 11.1927 14.555 10.7188C15.0406 10.2448 15.4282 9.6888 15.7177 9.05078C16.0072 8.41276 16.1473 7.72917 16.1379 7C16.1379 6.27995 15.9978 5.60091 15.7177 4.96289C15.4375 4.32487 15.0546 3.76888 14.569 3.29492C14.0833 2.82096 13.509 2.44271 12.8459 2.16016C12.1828 1.8776 11.4871 1.74089 10.7586 1.75C10.0115 1.75 9.31573 1.88672 8.67134 2.16016C8.02694 2.43359 7.45726 2.80729 6.96228 3.28125C6.46731 3.75521 6.07974 4.31576 5.79957 4.96289C5.5194 5.61003 5.37931 6.28906 5.37931 7ZM26 18.375C26 18.849 25.9253 19.3092 25.7759 19.7559C25.6264 20.2025 25.4023 20.6172 25.1034 21V28L21.5172 26.25L17.931 28V21C17.6415 20.6172 17.4221 20.2025 17.2726 19.7559C17.1232 19.3092 17.0438 18.849 17.0345 18.375C17.0345 17.7734 17.1512 17.2083 17.3847 16.6797C17.6182 16.151 17.9357 15.6908 18.3373 15.2988C18.7389 14.9069 19.2152 14.5924 19.7662 14.3555C20.3172 14.1185 20.9009 14 21.5172 14C22.1336 14 22.7126 14.1139 23.2543 14.3418C23.796 14.5697 24.2676 14.8841 24.6692 15.2852C25.0708 15.6862 25.393 16.151 25.6358 16.6797C25.8786 17.2083 26 17.7734 26 18.375ZM21.5172 15.75C21.1437 15.75 20.7935 15.8184 20.4666 15.9551C20.1397 16.0918 19.8549 16.2786 19.6121 16.5156C19.3693 16.7526 19.1778 17.0306 19.0377 17.3496C18.8976 17.6686 18.8276 18.0104 18.8276 18.375C18.8276 18.7396 18.8976 19.0814 19.0377 19.4004C19.1778 19.7194 19.3693 19.9974 19.6121 20.2344C19.8549 20.4714 20.1397 20.6582 20.4666 20.7949C20.7935 20.9316 21.1437 21 21.5172 21C21.8908 21 22.241 20.9316 22.5679 20.7949C22.8948 20.6582 23.1796 20.4714 23.4224 20.2344C23.6652 19.9974 23.8567 19.7194 23.9968 19.4004C24.1369 19.0814 24.2069 18.7396 24.2069 18.375C24.2069 18.0104 24.1369 17.6686 23.9968 17.3496C23.8567 17.0306 23.6652 16.7526 23.4224 16.5156C23.1796 16.2786 22.8948 16.0918 22.5679 15.9551C22.241 15.8184 21.8908 15.75 21.5172 15.75ZM23.3103 25.1699V22.3809C22.75 22.627 22.1523 22.75 21.5172 22.75C20.8822 22.75 20.2845 22.627 19.7241 22.3809V25.1699C20.023 25.0241 20.3218 24.8828 20.6207 24.7461C20.9195 24.6094 21.2184 24.459 21.5172 24.2949C21.8161 24.4499 22.1149 24.5957 22.4138 24.7324C22.7126 24.8691 23.0115 25.015 23.3103 25.1699Z" fill="#F7C663"/>
</svg>
