<svg width="25" height="25" viewBox="0 0 25 25" fill="none" xmlns="http://www.w3.org/2000/svg">
<path d="M19.0786 5.22117L15.294 0L1.37857 10.939L0.607143 10.9308V10.9426H0V25H25V10.9426H23.8548L21.5762 4.38358L19.0786 5.22117ZM21.3393 10.9426H9.40119L18.2929 7.96003L20.1048 7.38953L21.3393 10.9426ZM16.7262 6.01073L7.54762 9.08931L14.8167 3.37496L16.7262 6.01073ZM2.38095 20.5122V15.4281C2.88354 15.2535 3.34006 14.9705 3.71703 14.5997C4.094 14.229 4.38187 13.7799 4.55952 13.2855H20.4405C20.618 13.7801 20.9058 14.2294 21.2828 14.6004C21.6597 14.9714 22.1163 15.2546 22.619 15.4292V20.5133C22.1163 20.688 21.6597 20.9712 21.2828 21.3422C20.9058 21.7131 20.618 22.1624 20.4405 22.6571H4.5619C4.38355 22.1624 4.0952 21.7131 3.71788 21.342C3.34056 20.9709 2.88381 20.6874 2.38095 20.5122Z" fill="#F7C663"/>
</svg>
