<svg width="30" height="27" viewBox="0 0 30 27" fill="none" xmlns="http://www.w3.org/2000/svg">
<path d="M23.4416 9.17611H20.7237H23.4416ZM20.7237 9.17611H18.0059H20.7237ZM20.7237 9.17611V6.45825V9.17611ZM20.7237 9.17611V11.894V9.17611Z" fill="#F7C663"/>
<path d="M23.4416 9.17611H20.7237M20.7237 9.17611H18.0059M20.7237 9.17611V6.45825M20.7237 9.17611V11.894" stroke="#F7C663" stroke-width="1.5" stroke-linecap="round"/>
<path d="M11.1953 23.1895C11.9317 23.782 12.4805 24.2043 12.9521 24.4824C13.3608 24.7233 13.7233 24.8619 14.1084 24.9238V25.9707C12.8578 25.8204 11.9041 25.1017 10.541 23.9971L11.1953 23.1895ZM18.6758 23.9971C17.313 25.1013 16.3591 25.8205 15.1084 25.9707V24.9238C15.4938 24.8618 15.856 24.7226 16.2646 24.4814C16.7361 24.2032 17.2845 23.7808 18.0205 23.1885L18.6758 23.9971ZM7.17871 19.623C8.21257 20.6521 9.29433 21.6317 10.4199 22.5596L9.76562 23.3662C8.6083 22.4135 7.49659 21.4062 6.43555 20.3477L7.17871 19.623ZM28.7002 10.1055C28.5471 12.4793 27.3281 14.8479 25.7246 16.9912L25.376 17.4463C23.5965 19.7151 21.3783 21.7683 19.4492 23.3623L18.7949 22.5557C20.564 21.0933 22.5579 19.2565 24.209 17.2402L24.5576 16.8047C26.269 14.6214 27.4941 12.3149 27.6582 10.1055H28.7002ZM5.94629 19.4277L5.95312 19.4072C5.96664 19.3751 5.98337 19.3441 6.00293 19.3154L6.06934 19.2363C6.11918 19.1878 6.17833 19.1493 6.24316 19.124C6.25044 19.1212 6.25825 19.1197 6.26562 19.1172L5.94629 19.4277ZM3.21191 15.3398C3.19157 15.3679 3.16893 15.3946 3.14355 15.418L3.06055 15.4795C3.03085 15.4975 2.9993 15.5128 2.9668 15.5244L2.86621 15.5498C2.86173 15.5505 2.85703 15.5493 2.85254 15.5498L3.2168 15.3291L3.21191 15.3398ZM1.55957 10.1084C1.66163 11.4834 2.17347 12.9001 2.96973 14.3096L2.08008 14.8477C1.2147 13.3217 0.62245 11.7182 0.518555 10.1084H1.55957ZM5.33105 0.953125C7.88658 -0.0469595 11.0072 0.597076 13.876 3.0918C13.7494 3.21867 13.6228 3.34798 13.498 3.48145L13.1592 3.84375C10.6106 1.64064 7.99308 1.13597 5.93457 1.83789L5.70996 1.91992C3.4327 2.81311 1.6892 5.3012 1.54883 9.1084H0.509766C0.64745 5.1227 2.43239 2.23352 5.06348 1.06445L5.33105 0.953125ZM15.3389 3.0918C18.1066 0.683183 21.108 -0.00115542 23.6113 0.852539L23.8838 0.953125H23.8848C26.6627 2.0402 28.5646 4.98756 28.707 9.10547H27.6689C27.5331 5.42351 25.8963 2.97383 23.7275 2.01074L23.5068 1.91895C21.4156 1.09986 18.6983 1.55925 16.0557 3.84473L15.7188 3.4834C15.5934 3.34937 15.4661 3.21919 15.3389 3.0918ZM14.6396 3.80566L14.6084 3.83496L14.5762 3.80469C14.5864 3.7944 14.5972 3.78465 14.6074 3.77441C14.618 3.78497 14.6291 3.79505 14.6396 3.80566Z" fill="#F7C663" stroke="#F7C663"/>
</svg>
