<svg width="28" height="27" viewBox="0 0 28 27" fill="none" xmlns="http://www.w3.org/2000/svg">
<path d="M25.299 20.25C26.0618 20.25 26.7048 20.52 27.2281 21.06C27.7514 21.6 28.0086 22.23 27.9998 22.95L17.3166 27L8.00374 24.3V12.15H10.598L20.2701 15.7815C20.9619 16.0605 21.3078 16.5645 21.3078 17.2935C21.3078 17.7165 21.157 18.0855 20.8555 18.4005C20.5539 18.7155 20.1725 18.882 19.7113 18.9H15.9862L13.658 17.9955L13.2189 19.2645L15.9862 20.25H25.299ZM19.9774 1.6605C20.9176 0.5535 22.1149 0 23.5695 0C24.7758 0 25.7957 0.45 26.6295 1.35C27.4632 2.25 27.9066 3.285 27.9599 4.455C27.9599 5.382 27.5164 6.489 26.6295 7.776C25.7425 9.063 24.8689 10.1385 24.0086 11.0025C23.1482 11.8665 21.8045 13.149 19.9774 14.85C18.1326 13.149 16.7756 11.8665 15.9064 11.0025C15.0372 10.1385 14.1635 9.063 13.2855 7.776C12.4074 6.489 11.9772 5.382 11.995 4.455C11.995 3.231 12.4251 2.196 13.2855 1.35C14.1458 0.504 15.1835 0.054 16.3986 0C17.8177 0 19.0106 0.5535 19.9774 1.6605ZM0 12.15H5.34292V27H0V12.15Z" fill="#F7C663"/>
</svg>
