<svg width="25" height="25" viewBox="0 0 25 25" fill="none" xmlns="http://www.w3.org/2000/svg">
<path d="M8.375 13.6562L10.0938 14.8125L12.5 13.5938L14.9062 14.8125L16.5625 13.7188L15.3125 11.25H9.5625L8.375 13.6562ZM4.03125 22.5H20.9375L17.6875 15.9688L15.0938 17.6875L12.5 16.4062L9.90625 17.6875L7.25 15.9375L4.03125 22.5ZM0 25L7.3125 10.1562C7.52083 9.73958 7.82833 9.40125 8.235 9.14125C8.64167 8.88125 9.08417 8.75083 9.5625 8.75H11.25V0H20L18.75 2.5L20 5H13.75V8.75H15.3125C15.7917 8.75 16.2292 8.875 16.625 9.125C17.0208 9.375 17.3333 9.70833 17.5625 10.125L25 25H0Z" fill="#F7C663"/>
</svg>
