<svg width="22" height="22" viewBox="0 0 22 22" fill="none" xmlns="http://www.w3.org/2000/svg">
<path d="M7.60613 9.2949C8.53955 9.2949 9.29624 8.53821 9.29624 7.60479C9.29624 6.67136 8.53955 5.91467 7.60613 5.91467C6.67271 5.91467 5.91602 6.67136 5.91602 7.60479C5.91602 8.53821 6.67271 9.2949 7.60613 9.2949Z" fill="#F7C663"/>
<path d="M13.5202 9.2949C14.4536 9.2949 15.2103 8.53821 15.2103 7.60479C15.2103 6.67136 14.4536 5.91467 13.5202 5.91467C12.5868 5.91467 11.8301 6.67136 11.8301 7.60479C11.8301 8.53821 12.5868 9.2949 13.5202 9.2949Z" fill="#F7C663"/>
<path d="M10.5632 21.1264C4.73836 21.1264 0 16.3881 0 10.5632C0 4.73836 4.73836 0 10.5632 0C16.3881 0 21.1264 4.73836 21.1264 10.5632C21.1264 16.3881 16.3881 21.1264 10.5632 21.1264ZM10.5632 1.50903C5.56832 1.50903 1.50903 5.56832 1.50903 10.5632C1.50903 15.5581 5.56832 19.6174 10.5632 19.6174C15.5581 19.6174 19.6174 15.5581 19.6174 10.5632C19.6174 5.56832 15.5581 1.50903 10.5632 1.50903Z" fill="#F7C663"/>
<path d="M10.5546 16.056C8.4863 16.056 6.62764 14.4686 5.94287 12.1212C5.89424 11.9152 5.91211 11.6945 5.99287 11.5038C6.07364 11.313 6.21128 11.1664 6.37802 11.0936C6.54475 11.0207 6.72816 11.027 6.89121 11.1111C7.05426 11.1953 7.18481 11.3511 7.25651 11.547C7.4969 12.3721 7.94326 13.0867 8.534 13.5921C9.12474 14.0976 9.83075 14.3691 10.5546 14.3691C11.2784 14.3691 11.9844 14.0976 12.5752 13.5921C13.1659 13.0867 13.6123 12.3721 13.8527 11.547C13.9785 11.108 14.3837 10.8715 14.7471 11.0404C15.1104 11.1924 15.3061 11.6821 15.1663 12.1212C14.8301 13.274 14.2057 14.2719 13.3795 14.9769C12.5532 15.6818 11.566 16.0589 10.5546 16.056Z" fill="#F7C663"/>
</svg>
