<svg width="25" height="23" viewBox="0 0 25 23" fill="none" xmlns="http://www.w3.org/2000/svg">
<path d="M0 23V20.5789H11.25V7.05132C10.7083 6.86974 10.2396 6.58728 9.84375 6.20395C9.44792 5.82062 9.15625 5.36667 8.96875 4.84211H5L8.75 13.3158C8.75 14.3246 8.32292 15.182 7.46875 15.8882C6.61458 16.5943 5.58333 16.9474 4.375 16.9474C3.16667 16.9474 2.13542 16.5943 1.28125 15.8882C0.427083 15.182 0 14.3246 0 13.3158L3.75 4.84211H1.25V2.42105H8.96875C9.21875 1.71491 9.66667 1.13507 10.3125 0.681528C10.9583 0.227985 11.6875 0.00080916 12.5 2.14252e-06C13.3125 -0.000804875 14.0417 0.226371 14.6875 0.681528C15.3333 1.13669 15.7812 1.71653 16.0312 2.42105H23.75V4.84211H21.25L25 13.3158C25 14.3246 24.5729 15.182 23.7188 15.8882C22.8646 16.5943 21.8333 16.9474 20.625 16.9474C19.4167 16.9474 18.3854 16.5943 17.5312 15.8882C16.6771 15.182 16.25 14.3246 16.25 13.3158L20 4.84211H16.0312C15.8438 5.36667 15.5521 5.82062 15.1562 6.20395C14.7604 6.58728 14.2917 6.86974 13.75 7.05132V20.5789H25V23H0ZM18.2812 13.3158H22.9688L20.625 8.05L18.2812 13.3158ZM2.03125 13.3158H6.71875L4.375 8.05L2.03125 13.3158ZM12.5 4.84211C12.8542 4.84211 13.1513 4.7259 13.3913 4.49348C13.6313 4.26105 13.7508 3.97376 13.75 3.63158C13.7492 3.28941 13.6292 3.00211 13.39 2.76969C13.1508 2.53727 12.8542 2.42105 12.5 2.42105C12.1458 2.42105 11.8492 2.53727 11.61 2.76969C11.3708 3.00211 11.2508 3.28941 11.25 3.63158C11.2492 3.97376 11.3692 4.26146 11.61 4.49469C11.8508 4.72791 12.1475 4.84372 12.5 4.84211Z" fill="#F7C663"/>
</svg>
