<svg width="27" height="28" viewBox="0 0 27 28" fill="none" xmlns="http://www.w3.org/2000/svg">
<path d="M14.125 1.51501C13.9168 1.5048 13.7084 1.4998 13.5 1.50001C6.59624 1.50001 1 7.09625 1 14C1 20.9037 6.59624 26.5 13.5 26.5C20.4037 26.5 26 20.9037 26 14C26 12.9212 25.8625 11.8737 25.6062 10.875" stroke="#F7C663" stroke-width="1.5" stroke-linecap="round" stroke-linejoin="round"/>
<path d="M8.5 17.7501C9.08217 18.5264 9.83707 19.1564 10.7049 19.5903C11.5728 20.0242 12.5297 20.2501 13.5 20.2501C14.4703 20.2501 15.4272 20.0242 16.2951 19.5903C17.1629 19.1564 17.9178 18.5264 18.5 17.7501M11 10.8751H9.38375C8.8175 10.8751 8.275 11.1001 7.875 11.5001M16 10.8751H17.6162C18.1825 10.8751 18.725 11.1001 19.125 11.5001M18.36 1.91389C19.5337 1.22889 20.5575 1.50514 21.1725 1.94514C21.425 2.12514 21.5512 2.21514 21.625 2.21514C21.7 2.21514 21.825 2.12514 22.0775 1.94514C22.6925 1.50514 23.7162 1.22889 24.89 1.91389C26.43 2.81389 26.7775 5.78139 23.2275 8.28514C22.55 8.76138 22.2112 9.00013 21.625 9.00013C21.0387 9.00013 20.7 8.76263 20.0237 8.28514C16.4725 5.78139 16.82 2.81389 18.3612 1.91389" stroke="#F7C663" stroke-width="1.5" stroke-linecap="round" stroke-linejoin="round"/>
</svg>
