<svg width="18" height="15" viewBox="0 0 18 15" fill="none" xmlns="http://www.w3.org/2000/svg">
<path d="M9.5558 13.276L12.6218 7.522L14.5538 7.018C14.3298 7.41 14.0778 7.746 13.7978 8.026C13.5178 8.306 13.1958 8.446 12.8318 8.446C12.0478 8.446 11.3198 8.11 10.6478 7.438C9.9758 6.766 9.63981 5.912 9.63981 4.876C9.63981 3.784 10.0038 2.86 10.7318 2.104C11.4878 1.32 12.4118 0.927999 13.5038 0.927999C14.5398 0.927999 15.4358 1.32 16.1918 2.104C16.9758 2.86 17.3678 3.784 17.3678 4.876C17.3678 5.324 17.2698 5.856 17.0738 6.472C16.9058 7.06 16.5698 7.816 16.0658 8.74L12.7058 14.956L9.5558 13.276ZM0.105805 13.276L3.1718 7.522L5.06181 7.018C4.86581 7.41 4.62781 7.746 4.34781 8.026C4.0678 8.306 3.7458 8.446 3.3818 8.446C2.5698 8.446 1.8278 8.11 1.1558 7.438C0.483805 6.766 0.147805 5.912 0.147805 4.876C0.147805 3.784 0.511805 2.86 1.2398 2.104C1.9958 1.32 2.9198 0.927999 4.0118 0.927999C5.04781 0.927999 5.9438 1.32 6.6998 2.104C7.48381 2.86 7.87581 3.784 7.87581 4.876C7.87581 5.324 7.79181 5.856 7.62381 6.472C7.45581 7.06 7.11981 7.816 6.61581 8.74L3.2138 14.956L0.105805 13.276Z" fill="#0099FF"/>
</svg>
