<svg width="50" height="49" viewBox="0 0 50 49" fill="none" xmlns="http://www.w3.org/2000/svg">
<path d="M11.3215 38.1788C11.7298 38.5872 12.1382 38.7913 12.7507 38.7913C13.3632 38.7913 13.7715 38.5872 14.1798 38.1788L25.0007 27.358L35.8215 38.1788C36.2298 38.5872 36.8423 38.7913 37.2507 38.7913C37.659 38.7913 38.2715 38.5872 38.6798 38.1788C39.4965 37.3622 39.4965 36.1372 38.6798 35.3205L27.859 24.4997L38.6798 13.6788C39.4965 12.8622 39.4965 11.6372 38.6798 10.8205C37.8632 10.0038 36.6382 10.0038 35.8215 10.8205L25.0007 21.6413L14.1798 10.8205C13.3632 10.0038 12.1382 10.0038 11.3215 10.8205C10.5048 11.6372 10.5048 12.8622 11.3215 13.6788L22.1423 24.4997L11.3215 35.3205C10.5048 36.1372 10.5048 37.3622 11.3215 38.1788Z" fill="black"/>
</svg>
