<svg width="74" height="73" viewBox="0 0 74 73" fill="none" xmlns="http://www.w3.org/2000/svg">
<g clip-path="url(#clip0_2391_3588)">
<rect x="0.5" width="73" height="73" rx="36.5" fill="#F7C663"/>
<g filter="url(#filter0_d_2391_3588)">
<g clip-path="url(#clip1_2391_3588)">
<path d="M46.6157 17.8287C43.9505 16.616 40.8845 16 37.5017 16C34.0945 16 31.0268 16.616 28.386 17.8305C27.9486 18.0317 27.756 18.5515 27.9572 18.9908C28.1603 19.4283 28.6765 19.6208 29.1175 19.4196C31.529 18.3118 34.35 17.7501 37.5017 17.7501C40.6325 17.7501 43.4535 18.3118 45.8895 19.4213C46.0068 19.4755 46.131 19.5 46.2518 19.5C46.5842 19.5 46.9028 19.3093 47.0498 18.9873C47.2493 18.548 47.055 18.0282 46.6157 17.8287Z" fill="white"/>
<path d="M50.3764 25.0108C46.8291 21.4058 42.3754 19.5 37.4981 19.5C32.6402 19.5 28.1899 21.4057 24.6304 25.009C24.2909 25.3537 24.2944 25.9084 24.6374 26.248C24.9821 26.5875 25.5351 26.5823 25.8746 26.241C29.1 22.9756 33.1179 21.2501 37.4981 21.2501C41.8959 21.2501 45.9191 22.9756 49.1286 26.2393C49.3001 26.4125 49.5259 26.5001 49.7516 26.5001C49.9721 26.5001 50.1944 26.4161 50.3659 26.2481C50.7107 25.9085 50.7159 25.3556 50.3764 25.0108Z" fill="white"/>
<path d="M37.4982 23C36.2504 23 35.0114 23.154 33.8144 23.4585C33.3455 23.5775 33.062 24.0534 33.1809 24.5225C33.2999 24.9915 33.7794 25.2715 34.2449 25.1542C35.3002 24.8865 36.3957 24.75 37.4982 24.75C44.7363 24.75 50.6232 30.6369 50.6232 37.875C50.6232 38.358 51.0153 38.75 51.4983 38.75C51.9813 38.75 52.3733 38.358 52.3733 37.875C52.3733 29.6727 45.7005 23 37.4982 23Z" fill="white"/>
<path d="M31.2265 25.3249C30.985 24.9102 30.4513 24.7684 30.0295 25.0116C28.913 25.6643 27.8753 26.4711 26.9495 27.4092C24.2248 30.1637 22.69 33.8754 22.627 37.8636C22.6201 38.3466 23.005 38.7439 23.4898 38.7509C23.4933 38.7509 23.4985 38.7509 23.5038 38.7509C23.9798 38.7509 24.37 38.3693 24.377 37.8899C24.433 34.3549 25.7875 31.0701 28.1938 28.6377C29.0128 27.8082 29.928 27.0977 30.9133 26.5219C31.3297 26.2787 31.4698 25.7432 31.2265 25.3249Z" fill="white"/>
<path d="M46.0733 30.4077C43.9068 27.9245 40.7813 26.5 37.4982 26.5C34.4463 26.5 31.585 27.697 29.4395 29.8688C27.301 32.0283 26.125 34.9491 26.125 38.1358C26.1303 40.0188 25.5423 42.2763 24.4887 44.4446L23.997 45.3196C23.7607 45.7413 23.9094 46.2734 24.3312 46.5114C24.4677 46.5884 24.6147 46.6251 24.76 46.6251C25.0662 46.6251 25.3638 46.4641 25.523 46.1789L26.0392 45.2584C27.2484 42.7699 27.882 40.3059 27.875 38.0904C27.875 35.4112 28.8708 32.9297 30.682 31.0992C32.4985 29.2617 34.9171 28.2501 37.4982 28.2501C40.2755 28.2501 42.9215 29.4559 44.7537 31.5594C45.0705 31.9233 45.6253 31.9601 45.9892 31.6434C46.3533 31.3247 46.39 30.7718 46.0733 30.4077Z" fill="white"/>
<path d="M50.501 47.9621L49.514 44.7334C48.9592 42.2012 48.912 39.7843 48.8823 38.3389L48.8735 37.8752C48.8735 36.5784 48.6547 35.3044 48.2242 34.0882C48.0632 33.6332 47.568 33.3952 47.1077 33.5562C46.6527 33.7172 46.4147 34.216 46.5757 34.6727C46.9397 35.7 47.1235 36.778 47.1235 37.898L47.134 38.374C47.1655 39.8825 47.2144 42.4077 47.8234 45.1745L48.8245 48.4715C48.9382 48.8495 49.2865 49.091 49.6627 49.091C49.7467 49.091 49.8325 49.0787 49.9183 49.0542C50.3803 48.9124 50.641 48.4258 50.501 47.9621Z" fill="white"/>
<path d="M47.9474 52.0045L47.1336 49.3988C45.6899 44.8907 45.4204 39.8227 45.3732 37.875C45.3732 33.5332 41.8399 30 37.4982 30C33.1564 30 29.6249 33.5875 29.6249 38.0273C29.6284 38.9477 29.4586 43.811 25.7626 49.1415C25.4861 49.5388 25.5858 50.0848 25.9814 50.3595C26.3769 50.6342 26.9247 50.5363 27.1994 50.1407C31.0949 44.5249 31.3801 39.4447 31.3749 37.9992C31.3749 34.5535 34.1223 31.7517 37.4981 31.7517C40.8756 31.7517 43.6231 34.4992 43.6231 37.8977C43.6861 40.4387 44.0099 45.3807 45.4659 49.929L46.2744 52.5242C46.3916 52.8987 46.7364 53.1385 47.1108 53.1385C47.1966 53.1385 47.2841 53.1262 47.3716 53.1C47.8336 52.9547 48.0909 52.4648 47.9474 52.0045Z" fill="white"/>
<path d="M41.8735 37.875C41.8735 35.4635 39.91 33.5 37.4985 33.5C35.0871 33.5 33.1236 35.4635 33.1236 37.9083C33.1341 38.197 33.3283 45.071 27.7703 52.3038C27.4763 52.687 27.5481 53.2366 27.9313 53.5306C28.3163 53.8263 28.8641 53.7511 29.1581 53.3695C35.0958 45.6415 34.8823 38.1568 34.8718 37.8751C34.8718 36.4278 36.0495 35.2501 37.4968 35.2501C38.9441 35.2501 40.1218 36.4278 40.1235 37.8943C40.1481 38.8744 40.1533 47.7154 33.3213 56.5913C33.0273 56.9746 33.0972 57.5241 33.4805 57.8181C33.6415 57.9406 33.8287 58.0001 34.0143 58.0001C34.2768 58.0001 34.5357 57.8829 34.7073 57.6589C41.9189 48.2927 41.8979 38.8952 41.8735 37.875Z" fill="white"/>
<path d="M38.3696 37.8364C38.3468 37.3551 37.9688 36.9718 37.4578 37.0016C36.9765 37.0226 36.602 37.4304 36.6213 37.9134C36.6213 37.9256 36.6703 39.2066 36.3448 41.2314C36.2696 41.7092 36.5951 42.1589 37.071 42.2359C37.1183 42.2428 37.1655 42.2464 37.211 42.2464C37.6328 42.2464 38.0055 41.9402 38.0738 41.5114C38.4308 39.2906 38.3731 37.8941 38.3696 37.8364Z" fill="white"/>
<path d="M36.653 44.062C36.1875 43.9237 35.7028 44.1897 35.5645 44.6517C34.4708 48.346 32.6508 51.8005 30.1588 54.9224C29.8578 55.3004 29.919 55.8499 30.297 56.1526C30.458 56.2822 30.6504 56.3434 30.843 56.3434C31.1002 56.3434 31.3539 56.2314 31.5272 56.0143C34.161 52.7173 36.0842 49.0616 37.2444 45.1504C37.381 44.6867 37.1168 44.1985 36.653 44.062Z" fill="white"/>
<path d="M45.1337 54.5464L44.0784 51.1952C43.6584 49.9387 43.2664 48.6104 43.2647 48.6052C43.1597 48.2499 42.8447 47.9997 42.4755 47.9787C42.0975 47.9525 41.7632 48.1694 41.6197 48.5107C41.6004 48.5562 39.651 53.1395 37.4162 56.657C37.1572 57.0647 37.278 57.6055 37.6857 57.8645C37.8309 57.9572 37.9937 58.001 38.1546 58.001C38.4451 58.001 38.7269 57.8575 38.8932 57.595C40.2459 55.4652 41.4744 53.017 42.2759 51.3143C42.3214 51.4543 42.3687 51.596 42.4159 51.736L43.4642 55.0715C43.6095 55.5317 44.0959 55.7907 44.5614 55.6437C45.0216 55.4983 45.2789 55.0084 45.1337 54.5464Z" fill="white"/>
</g>
</g>
</g>
<defs>
<filter id="filter0_d_2391_3588" x="8.5" y="10" width="66" height="66" filterUnits="userSpaceOnUse" color-interpolation-filters="sRGB">
<feFlood flood-opacity="0" result="BackgroundImageFix"/>
<feColorMatrix in="SourceAlpha" type="matrix" values="0 0 0 0 0 0 0 0 0 0 0 0 0 0 0 0 0 0 127 0" result="hardAlpha"/>
<feOffset dx="4" dy="6"/>
<feGaussianBlur stdDeviation="6"/>
<feColorMatrix type="matrix" values="0 0 0 0 0 0 0 0 0 0 0 0 0 0 0 0 0 0 0.08 0"/>
<feBlend mode="normal" in2="BackgroundImageFix" result="effect1_dropShadow_2391_3588"/>
<feBlend mode="normal" in="SourceGraphic" in2="effect1_dropShadow_2391_3588" result="shape"/>
</filter>
<clipPath id="clip0_2391_3588">
<rect x="0.5" width="73" height="73" rx="36.5" fill="white"/>
</clipPath>
<clipPath id="clip1_2391_3588">
<rect x="16.5" y="16" width="42" height="42" fill="white"/>
</clipPath>
</defs>
</svg>
