<svg width="562" height="376" viewBox="0 0 562 376" fill="none" xmlns="http://www.w3.org/2000/svg">
<path d="M197.336 186L317.762 186V146.798H197.336V186Z" fill="#C7C7C7"/>
<path d="M317.762 146.805V186.007H505.477V182.182H501.431V150.63H505.477V146.805H317.762Z" fill="#A6A6A6"/>
<path d="M322.692 181.935L501.641 181.935V150.87L322.692 150.87V181.935Z" fill="#C4B6B6"/>
<path d="M322.685 181.935C367.293 181.808 457.048 181.65 501.641 181.598L501.304 181.935V150.87C474.155 151.943 395.408 150.735 367.465 151.088L322.722 150.983C322.85 150.315 322.722 182.078 322.722 181.935H322.685ZM322.685 181.935C322.685 181.83 322.58 150.863 322.58 150.765C322.58 150.668 367.398 150.668 367.428 150.653L501.641 150.495H502.015V150.87L501.978 181.935V182.273H501.641C457.04 182.228 367.278 182.07 322.685 181.935Z" fill="#DBDBDB"/>
<path d="M437.416 175.065C451.099 175.245 464.782 175.37 478.465 175.44L501.641 175.5V174.637L478.465 174.697C464.782 174.747 451.099 174.87 437.416 175.065Z" fill="#DBDBDB"/>
<path d="M322.686 167.723V168.518L352.561 168.6L395.865 168.488C409.548 168.423 423.231 168.3 436.914 168.12C423.231 167.94 409.548 167.818 395.865 167.753L352.561 167.64L322.686 167.723Z" fill="#DBDBDB"/>
<path d="M322.686 156.075V157.035L365.398 156.922C379.09 156.857 392.773 156.735 406.446 156.555C392.763 156.375 379.08 156.252 365.398 156.187L322.686 156.075Z" fill="#DBDBDB"/>
<path d="M322.686 175.147V175.942H334.158C347.841 175.882 361.526 175.76 375.214 175.575C361.521 175.405 347.836 175.282 334.158 175.207L322.686 175.147Z" fill="#DBDBDB"/>
<path d="M436.043 161.76C449.731 161.93 463.416 162.052 477.099 162.127L501.64 162.195V161.325L477.099 161.392C463.406 161.452 449.721 161.575 436.043 161.76Z" fill="#DBDBDB"/>
<path d="M489.733 164.947C480.316 164.897 470.892 164.86 461.46 164.835H431.644H402.593C393.166 164.835 383.742 164.872 374.32 164.947C383.747 164.997 393.171 165.035 402.593 165.06H431.644H461.46C470.887 165.035 480.311 164.997 489.733 164.947Z" fill="#DBDBDB"/>
<path d="M477.939 117.667H357.514V146.805H477.939V117.667Z" fill="#EBEBEB"/>
<path d="M357.507 146.805V117.667H169.791V120.51H173.837V143.962H169.791V146.805H357.507Z" fill="#DBDBDB"/>
<path d="M352.583 120.69H173.635V143.782H352.583V120.69Z" fill="#C4B6B6"/>
<path d="M352.583 120.69C307.975 120.825 218.22 120.982 173.634 121.035L173.979 120.69V143.782C171.611 142.747 263.614 143.85 263.082 143.52C285.368 143.52 330.283 143.625 352.56 143.7C352.433 144.195 352.56 120.592 352.56 120.69H352.583ZM352.583 120.69L352.665 143.782V143.865H352.583C330.26 143.94 285.42 144.037 263.105 144.045L173.634 144.157H173.26V143.782V120.69V120.345H173.604C218.205 120.397 307.967 120.555 352.553 120.69H352.583Z" fill="#DBDBDB"/>
<path d="M237.86 125.798C224.177 125.663 210.492 125.57 196.804 125.52L173.627 125.475V126.113L196.804 126.075C210.472 126.04 224.157 125.948 237.86 125.798Z" fill="#DBDBDB"/>
<path d="M352.584 131.273V130.68L322.715 130.62L279.411 130.703C265.729 130.753 252.043 130.843 238.355 130.973C252.038 131.108 265.724 131.2 279.411 131.25L322.715 131.333L352.584 131.273Z" fill="#DBDBDB"/>
<path d="M352.582 139.913V139.163L309.87 139.245C296.183 139.295 282.497 139.388 268.814 139.523C282.497 139.648 296.183 139.738 309.87 139.793L352.582 139.913Z" fill="#DBDBDB"/>
<path d="M352.583 125.738V125.145H341.111C327.428 125.19 313.745 125.283 300.062 125.423C313.745 125.553 327.428 125.643 341.111 125.693L352.583 125.738Z" fill="#DBDBDB"/>
<path d="M239.231 135.69C225.543 135.565 211.855 135.472 198.168 135.412L173.627 135.367V136.012L198.168 135.96C211.86 135.915 225.548 135.825 239.231 135.69Z" fill="#DBDBDB"/>
<path d="M185.535 133.32C194.962 133.36 204.386 133.387 213.807 133.402H243.631H272.675C282.102 133.402 291.526 133.375 300.947 133.32C291.526 133.275 282.102 133.247 272.675 133.237H243.631H213.807C204.381 133.252 194.957 133.28 185.535 133.32Z" fill="#DBDBDB"/>
<path d="M244.957 59.0249H77.8555V186.007H244.957V59.0249Z" fill="#EBEBEB"/>
<path d="M308.463 59.0249H244.957V186.007H308.463V59.0249Z" fill="#DBDBDB"/>
<path d="M77.8555 122.025H244.957L114.46 125.317L77.8555 122.025Z" fill="#DBDBDB"/>
<path d="M244.957 170.55H77.8555L208.359 173.842L244.957 170.55Z" fill="#DBDBDB"/>
<path d="M77.8555 86.2573H183.706L89.6125 88.9423L77.8555 86.2573Z" fill="#DBDBDB"/>
<path d="M244.957 151.71H139.113L233.2 154.395L244.957 151.71Z" fill="#DBDBDB"/>
<path d="M258.984 66.9224H153.141L247.234 69.6149L258.984 66.9224Z" fill="#DBDBDB"/>
<path d="M150.316 74.9697H269.7L249.798 76.5822L150.316 74.9697Z" fill="#DBDBDB"/>
<path d="M94.0996 135.742H213.483L193.581 137.355L94.0996 135.742Z" fill="#DBDBDB"/>
<path d="M167.514 98.4375H244.957L258.797 102.743L167.514 98.4375Z" fill="#EBEBEB"/>
<path d="M186.178 141.345H263.621L277.454 145.65L186.178 141.345Z" fill="#EBEBEB"/>
<path d="M169.146 160.252H246.59L260.43 164.557L169.146 160.252Z" fill="#EBEBEB"/>
<path d="M56.5215 98.4375H133.965L147.798 102.743L56.5215 98.4375Z" fill="#DBDBDB"/>
<path d="M155.892 73.6274H78.4554L64.6152 77.9249L155.892 73.6274Z" fill="#EBEBEB"/>
<path d="M160.079 149.558H82.6351L68.7949 153.863L160.079 149.558Z" fill="#EBEBEB"/>
<path d="M155.892 155.955H78.4554L64.6152 160.253L155.892 155.955Z" fill="#DBDBDB"/>
<path d="M244.957 141.345H307.144L320.984 145.65L244.957 141.345Z" fill="#DBDBDB"/>
<path d="M266.664 122.025H314.891L308.462 118.507L266.664 122.025Z" fill="#DBDBDB"/>
<path d="M41.5586 186.023C194.962 185.565 367.039 185.558 520.443 186.023C367.039 186.488 194.962 186.48 41.5586 186.023Z" fill="#263238"/>
<path d="M350.277 292.2L424.694 273.893L519.245 287.078L441.614 306.743L350.277 292.2Z" fill="white" fill-opacity="0.22"/>
<path d="M350.277 292.2L424.671 273.81C424.671 273.81 519.289 286.905 519.289 286.898L520.241 287.025L519.289 287.273L441.614 306.848C441.614 306.848 350.307 292.193 350.277 292.2ZM350.277 292.2C350.277 292.2 441.756 306.653 441.591 306.645L519.2 286.898V287.265C519.2 287.265 424.574 273.968 424.716 273.975L350.277 292.2Z" fill="#DBDBDB"/>
<path d="M438.652 301.643C443.231 300.233 447.952 298.92 452.687 297.623C457.423 296.325 462.234 295.08 467.06 293.873C471.885 292.665 476.801 291.443 481.732 290.295L489.165 288.578C491.698 288.038 494.178 287.468 496.741 286.958C494.493 287.67 492.11 288.323 489.794 289.013L482.713 290.97C477.992 292.283 473.167 293.52 468.341 294.72C463.515 295.92 458.6 297.15 453.669 298.298C448.738 299.445 443.763 300.593 438.652 301.643Z" fill="#C7C7C7"/>
<path d="M450.949 294.195C456.195 292.395 461.86 290.85 467.599 289.38C473.339 287.91 479.259 286.523 485.568 285.443C480.323 287.25 474.666 288.788 468.918 290.258C463.171 291.728 457.221 293.085 450.949 294.195Z" fill="#C7C7C7"/>
<path d="M416.232 298.665C420.811 297.255 425.532 295.942 430.267 294.645C435.003 293.347 439.814 292.102 444.64 290.895C449.465 289.687 454.381 288.465 459.304 287.317L466.745 285.607C469.27 285.067 471.758 284.497 474.321 283.98C472.073 284.692 469.69 285.352 467.374 286.035L460.293 288C455.565 289.305 450.747 290.542 445.921 291.75C441.095 292.957 436.18 294.18 431.249 295.327C426.318 296.475 421.343 297.615 416.232 298.665Z" fill="#C7C7C7"/>
<path d="M413.371 295.058C421.157 292.613 429.332 290.438 437.605 288.308C445.877 286.178 454.315 284.198 463.082 282.45C455.296 284.895 447.121 287.07 438.856 289.2C430.591 291.33 422.168 293.31 413.371 295.058Z" fill="#C7C7C7"/>
<path d="M423.098 288.27C427.391 286.71 432.09 285.413 436.863 284.183C441.636 282.953 446.604 281.843 451.902 280.973C447.608 282.54 442.91 283.83 438.144 285.06C433.379 286.29 428.403 287.4 423.098 288.27Z" fill="#C7C7C7"/>
<path d="M42.7578 215.318L146.016 195.758L245.655 224.895L142.914 245.16L42.7578 215.318Z" fill="white" fill-opacity="0.36"/>
<path d="M42.7578 215.318L146.023 195.66C146.023 195.66 245.685 224.723 245.685 224.715L246.434 224.933L245.685 225.083L142.914 245.273C142.876 245.273 42.7878 215.34 42.7578 215.34V215.318ZM42.7578 215.318L142.944 245.063C142.696 245.115 245.685 224.693 245.602 224.715V225.075L145.993 195.825C146.188 195.78 42.7278 215.325 42.7578 215.325V215.318Z" fill="#DBDBDB"/>
<path d="M141.467 239.22C148.211 237.66 155.007 236.22 161.834 234.773C168.66 233.325 175.539 231.945 182.425 230.58C189.312 229.215 196.236 227.88 203.204 226.613L213.658 224.708C217.172 224.108 220.656 223.478 224.201 222.908C220.844 223.695 217.457 224.408 214.055 225.158L203.819 227.355C197 228.81 190.114 230.183 183.235 231.548C176.356 232.913 169.424 234.248 162.456 235.515C155.487 236.783 148.526 238.065 141.467 239.22Z" fill="#DBDBDB"/>
<path d="M167.934 228.848C175.292 226.95 182.92 225.345 190.571 223.815C198.222 222.285 206.015 220.89 214.018 219.758C206.659 221.655 199.031 223.26 191.38 224.79C183.73 226.32 175.936 227.715 167.934 228.848Z" fill="#DBDBDB"/>
<path d="M131.283 230.917C137.165 229.522 143.13 228.24 149.11 226.965C155.09 225.69 161.099 224.482 167.154 223.275C173.208 222.067 179.271 220.912 185.393 219.81L194.572 218.16C197.667 217.642 200.724 217.095 203.841 216.607C200.911 217.312 197.929 217.957 194.969 218.632L186.015 220.56C180.02 221.842 174.025 223.042 167.971 224.25C161.916 225.457 155.861 226.605 149.739 227.715C143.617 228.825 137.503 229.927 131.283 230.917Z" fill="#DBDBDB"/>
<path d="M126.48 226.71C131.913 225.405 137.428 224.205 142.966 223.02C148.503 221.835 154.078 220.71 159.668 219.6C165.258 218.49 170.908 217.41 176.558 216.397L185.063 214.897C187.933 214.425 190.773 213.922 193.666 213.48C190.961 214.147 188.196 214.74 185.468 215.378L177.18 217.17C171.658 218.362 166.068 219.48 160.478 220.59C154.888 221.7 149.238 222.772 143.588 223.792C137.938 224.812 132.25 225.772 126.48 226.71Z" fill="#DBDBDB"/>
<path d="M100.756 226.628C107.5 225.068 114.296 223.628 121.123 222.173C127.949 220.718 134.828 219.353 141.714 217.98C148.601 216.608 155.525 215.288 162.486 214.013L172.977 212.108C176.491 211.515 179.975 210.878 183.52 210.308C180.163 211.103 176.776 211.808 173.374 212.558L163.145 214.733C156.326 216.18 149.44 217.553 142.561 218.925C135.682 220.298 128.751 221.618 121.782 222.893C114.813 224.168 107.815 225.465 100.756 226.628Z" fill="#DBDBDB"/>
<path d="M99.9023 221.64C105.852 220.23 111.892 218.933 117.939 217.643C123.986 216.353 130.093 215.13 136.2 213.893C142.307 212.655 148.452 211.5 154.641 210.383L163.933 208.71C167.058 208.185 170.16 207.63 173.307 207.143C170.31 207.855 167.312 208.5 164.315 209.19L155.256 211.133C149.216 212.43 143.109 213.645 137.002 214.883C130.895 216.12 124.743 217.275 118.553 218.393C112.364 219.51 106.189 220.635 99.9023 221.64Z" fill="#DBDBDB"/>
<path d="M80.3965 220.328C87.1405 218.768 93.9369 217.328 100.771 215.88C107.605 214.433 114.476 213.023 121.393 211.688C128.309 210.353 135.203 208.988 142.172 207.72L152.625 205.815C156.139 205.215 159.631 204.585 163.168 204.015C159.811 204.803 156.424 205.515 153.029 206.265L142.801 208.448C135.982 209.895 129.096 211.268 122.209 212.633C115.323 213.998 108.399 215.333 101.43 216.6C94.4615 217.868 87.4627 219.173 80.3965 220.328Z" fill="#DBDBDB"/>
<path d="M104.053 210.51C111.883 208.515 119.961 206.82 128.099 205.2C136.237 203.58 144.479 202.088 152.954 200.865C145.124 202.86 137.053 204.548 128.908 206.175C120.763 207.803 112.528 209.273 104.053 210.51Z" fill="#DBDBDB"/>
<path d="M194.062 315.173L325.286 290.318L451.893 327.345L321.337 353.093L194.062 315.173Z" fill="white" fill-opacity="0.19"/>
<path d="M194.077 315.173L325.286 290.22C325.286 290.22 451.923 327.173 451.923 327.165L452.672 327.383L451.923 327.533L321.337 353.19C321.299 353.198 194.077 315.173 194.077 315.173ZM194.077 315.173L321.382 353.003C321.149 353.003 451.931 327.15 451.871 327.165V327.525L325.256 290.408C325.451 290.348 194.033 315.21 194.063 315.158L194.077 315.173Z" fill="#DBDBDB"/>
<path d="M319.494 345.548C328.044 343.568 336.729 341.715 345.384 339.893C354.038 338.07 362.798 336.308 371.543 334.568C380.288 332.828 389.092 331.14 397.949 329.52L411.235 327.105C415.731 326.355 420.13 325.538 424.633 324.818C420.369 325.823 416.038 326.745 411.745 327.713L398.744 330.473C390.081 332.318 381.329 334.058 372.584 335.798C363.84 337.538 355.035 339.225 346.178 340.838C337.321 342.45 328.471 344.078 319.494 345.548Z" fill="#DBDBDB"/>
<path d="M353.131 332.362C362.483 329.955 372.149 327.915 381.89 325.973C391.632 324.03 401.523 322.222 411.699 320.812C402.347 323.227 392.673 325.267 382.932 327.21C373.191 329.152 363.299 330.922 353.131 332.362Z" fill="#DBDBDB"/>
<path d="M306.561 334.995C314.054 333.225 321.615 331.59 329.213 329.977C336.811 328.365 344.477 326.82 352.143 325.29C359.808 323.76 367.534 322.29 375.312 320.88L386.987 318.78C390.913 318.127 394.802 317.43 398.766 316.815C395.019 317.715 391.273 318.532 387.526 319.387L376.151 321.832C368.56 323.46 360.887 324.99 353.222 326.52C345.556 328.05 337.823 329.52 330.045 330.922C322.267 332.325 314.459 333.772 306.561 334.995Z" fill="#DBDBDB"/>
<path d="M300.484 329.648C307.386 327.99 314.399 326.468 321.466 324.968C328.532 323.468 335.583 322.028 342.687 320.61C349.791 319.193 356.924 317.835 364.148 316.545L374.968 314.61C378.61 314.018 382.214 313.373 385.893 312.81C382.454 313.658 378.947 314.415 375.47 315.218L364.942 317.468C357.928 318.968 350.825 320.4 343.721 321.818C336.617 323.235 329.484 324.593 322.26 325.883C315.036 327.173 307.783 328.523 300.484 329.648Z" fill="#DBDBDB"/>
<path d="M267.76 329.542C276.31 327.562 284.994 325.71 293.649 323.887C302.304 322.065 311.064 320.302 319.808 318.562C328.553 316.822 337.358 315.135 346.192 313.522L359.478 311.107C363.974 310.357 368.373 309.54 372.876 308.857C368.613 309.862 364.281 310.785 359.988 311.752L346.987 314.512C338.324 316.357 329.572 318.097 320.828 319.837C312.083 321.577 303.278 323.265 294.421 324.877C285.564 326.49 276.737 328.072 267.76 329.542Z" fill="#DBDBDB"/>
<path d="M266.682 323.205C274.242 321.42 281.916 319.763 289.604 318.135C297.292 316.508 305.04 314.94 312.833 313.388C320.626 311.835 328.404 310.35 336.272 308.933L348.044 306.773C352.023 306.113 355.957 305.408 359.966 304.778C356.219 305.685 352.36 306.51 348.554 307.38L337.044 309.855C329.363 311.498 321.6 313.05 313.815 314.595C306.029 316.14 298.244 317.595 290.376 319.05C282.508 320.505 274.67 321.93 266.682 323.205Z" fill="#DBDBDB"/>
<path d="M241.893 321.54C250.442 319.56 259.127 317.708 267.782 315.885C276.437 314.063 285.197 312.3 293.941 310.56C302.686 308.82 311.491 307.133 320.348 305.513L333.633 303.098C338.129 302.348 342.528 301.53 347.024 300.81C342.768 301.815 338.437 302.738 334.143 303.705L321.142 306.465C312.48 308.31 303.728 310.05 294.983 311.79C286.238 313.53 277.433 315.218 268.576 316.83C259.719 318.443 250.87 320.07 241.893 321.54Z" fill="#DBDBDB"/>
<path d="M271.957 309.06C281.908 306.533 292.189 304.38 302.507 302.31C312.826 300.24 323.331 298.35 334.099 296.798C324.148 299.333 313.867 301.485 303.541 303.548C293.216 305.61 282.725 307.523 271.957 309.06Z" fill="#DBDBDB"/>
<path d="M514.716 252.18L271.768 319.365V270.937L514.716 203.752C527.59 227.512 514.716 252.18 514.716 252.18Z" fill="black"/>
<path d="M34.6934 285.773L271.767 319.365V307.088L56.3716 280.718L34.6934 282.023V285.773Z" fill="#455A64"/>
<path d="M271.776 271.162C280.633 292.5 271.776 319.365 271.776 319.365L46.1289 283.695V241.837L271.776 271.162Z" fill="#455A64"/>
<path d="M266.193 270.443C274.818 291.698 266.905 314.588 266.905 314.588L46.1289 283.523V241.823L266.193 270.443Z" fill="#C4B6B6"/>
<path d="M266.193 270.442C266.485 271.267 267.332 273.592 267.624 274.41C269.377 280.249 270.266 286.313 270.262 292.41C270.295 299.931 269.201 307.414 267.017 314.61C267.122 314.94 46.1511 283.777 46.0761 283.86L45.7539 283.815V283.522V241.822V241.44L46.1286 241.492L156.206 255.915L266.148 270.427L266.193 270.442ZM266.193 270.442C212.061 263.16 98.7842 249.72 46.4583 241.837L46.4957 283.537L46.1735 283.162C46.1735 283.245 267.407 314.355 266.777 314.55C267.896 310.979 268.733 307.325 269.28 303.622C270.951 292.545 270.307 280.92 266.185 270.442H266.193Z" fill="#DBDBDB"/>
<path d="M152.953 259.897C189.79 264.397 231.049 269.947 267.758 275.4C230.921 270.9 189.663 265.342 152.953 259.897Z" fill="#DBDBDB"/>
<path d="M46.1289 257.093C77.7058 260.843 112.737 265.598 144.202 270.33C112.602 266.58 77.5859 261.84 46.1289 257.093Z" fill="#DBDBDB"/>
<path d="M51.3887 261.21C105.048 267.96 165.167 276.075 218.685 283.792C165.033 277.042 104.914 268.927 51.3887 261.21Z" fill="#DBDBDB"/>
<path d="M80.3945 275.377C136.055 282.27 198.422 290.55 253.948 298.41C198.295 291.525 135.928 283.237 80.3945 275.377Z" fill="#DBDBDB"/>
<path d="M117.809 284.198C166.35 290.273 220.789 297.608 269.219 304.643C220.655 298.583 166.245 291.233 117.809 284.198Z" fill="#DBDBDB"/>
<path d="M74.1836 284.115C136.378 292.05 206.066 301.455 268.104 310.298C205.909 302.37 136.221 292.958 74.1836 284.115Z" fill="#DBDBDB"/>
<path d="M271.775 271.163L514.716 203.753L269.22 192.623L34.6934 236.153V240.353L271.775 271.163Z" fill="#2F2F2F"/>
<path d="M278.002 263.753C308.14 254.61 339.095 246.353 370.02 239.22C339.889 248.37 308.934 256.613 278.002 263.753Z" fill="#37474F"/>
<path d="M219.719 259.462C228.111 259.897 236.781 260.872 245.114 261.885C253.446 262.897 262.049 264.135 270.216 265.822C261.824 265.395 253.154 264.412 244.829 263.4C236.504 262.387 227.894 261.112 219.719 259.462Z" fill="#37474F"/>
<path d="M41.2129 236.97C98.2746 243.105 155.793 250.343 212.473 258.54C155.366 252.42 97.855 245.168 41.2129 236.97Z" fill="#37474F"/>
<path d="M436.861 231.067C460.57 223.612 484.566 216.82 508.85 210.69C485.151 218.145 461.155 224.937 436.861 231.067Z" fill="#455A64"/>
<path d="M310.891 194.13C307.744 194.745 294.751 195.442 294.488 192.63C294.084 188.4 325.159 158.4 336.309 152.76C346.912 147.39 381.074 135.675 389.511 135.42L389.586 162.36C384.813 163.575 346.784 159.862 338.796 164.107C335.327 165.952 330.734 173.602 321.382 185.752C318.092 190.035 312.75 193.762 310.891 194.13Z" fill="#FFC727"/>
<g opacity="0.3">
<path d="M310.891 194.13C307.744 194.745 294.751 195.442 294.488 192.63C294.084 188.4 325.159 158.4 336.309 152.76C346.912 147.39 381.074 135.675 389.511 135.42L389.586 162.36C384.813 163.575 346.784 159.862 338.796 164.107C335.327 165.952 330.734 173.602 321.382 185.752C318.092 190.035 312.75 193.762 310.891 194.13Z" fill="black"/>
</g>
<path d="M304.439 194.13C301.284 194.745 289.205 195.442 288.935 192.63C288.538 188.4 319.613 158.4 330.756 152.76C341.359 147.39 381.073 135.675 389.511 135.42L389.586 162.36C384.813 163.575 341.239 159.862 333.251 164.107C329.782 165.952 324.259 173.602 314.922 185.752C311.64 190.035 306.297 193.762 304.439 194.13Z" fill="#FFC727"/>
<g opacity="0.2">
<path d="M304.439 194.13C301.284 194.745 289.205 195.442 288.935 192.63C288.538 188.4 319.613 158.4 330.756 152.76C341.359 147.39 381.073 135.675 389.511 135.42L389.586 162.36C384.813 163.575 341.239 159.862 333.251 164.107C329.782 165.952 324.259 173.602 314.922 185.752C311.64 190.035 306.297 193.762 304.439 194.13Z" fill="black"/>
</g>
<path d="M426.962 229.875C429.675 231.015 440.345 231.592 442.174 229.29C444.931 225.802 411.286 178.35 391.519 169.74C373.033 161.752 112.227 111.052 106.847 110.212L106.652 131.272C142.988 136.957 373.542 173.722 387.802 179.94C397.101 183.982 408.948 205.312 417.461 220.05C420.9 226.035 423.815 228.555 426.962 229.875Z" fill="#FFC727"/>
<g opacity="0.2">
<path d="M426.962 229.875C429.675 231.015 440.345 231.592 442.174 229.29C444.931 225.802 411.286 178.35 391.519 169.74C373.033 161.752 112.227 111.052 106.847 110.212L106.652 131.272C142.988 136.957 373.542 173.722 387.802 179.94C397.101 183.982 408.948 205.312 417.461 220.05C420.9 226.035 423.815 228.555 426.962 229.875Z" fill="black"/>
</g>
<path d="M422.46 229.875C425.173 231.015 435.844 231.592 437.672 229.29C440.429 225.802 407.032 177.202 387.272 168.592C368.778 160.605 112.229 111.022 106.849 110.212L102.15 131.272C138.486 136.957 369.04 173.722 383.3 179.94C392.599 183.982 404.446 205.312 412.959 220.05C416.398 226.035 419.313 228.555 422.46 229.875Z" fill="#FFC727"/>
<g opacity="0.1">
<path d="M422.46 229.875C425.173 231.015 435.844 231.592 437.672 229.29C440.429 225.802 407.032 177.202 387.272 168.592C368.778 160.605 112.229 111.022 106.849 110.212L102.15 131.272C138.486 136.957 369.04 173.722 383.3 179.94C392.599 183.982 404.446 205.312 412.959 220.05C416.398 226.035 419.313 228.555 422.46 229.875Z" fill="black"/>
</g>
<g opacity="0.1">
<path d="M157.36 119.932L137.623 136.92C121.205 134.295 108.608 132.307 102.164 131.295L106.855 110.212C108.316 110.437 128.451 114.3 157.36 119.932Z" fill="black"/>
<path d="M207.834 148.29L195.575 146.273L184.186 125.183L202.237 128.753L207.834 148.29Z" fill="black"/>
<path d="M276.879 143.768L263.017 157.44L250.705 155.37L260.551 140.438C266.021 141.543 271.464 142.653 276.879 143.768Z" fill="black"/>
<path d="M385.577 167.97L380.804 179.137C378.511 178.492 375.057 177.682 370.613 176.745L367.174 163.132C375.821 165.172 382.205 166.83 385.577 167.97Z" fill="black"/>
</g>
<path d="M156.416 240.907C129.245 239.595 108.571 208.792 110.324 172.252C111.156 154.815 116.918 138.6 126.54 126.592C136.483 114.187 149.32 107.677 162.808 108.36C176.296 109.042 188.45 116.692 197.15 130.005C205.58 142.86 209.761 159.562 208.914 177.015C207.251 211.59 186.074 239.115 160.769 240.862C159.32 240.96 157.867 240.975 156.416 240.907ZM133.456 132.157C124.996 142.695 119.893 157.095 119.144 172.687C117.645 204.337 134.528 230.97 156.828 232.042C179.128 233.115 198.513 208.237 200.049 176.542C200.799 160.95 197.12 146.137 189.724 134.82C182.597 123.952 172.879 117.69 162.358 117.187C161.237 117.12 160.114 117.12 158.993 117.187C149.672 117.9 140.71 123.097 133.456 132.142V132.157ZM110.362 176.895C108.99 150.165 111.98 145.98 110.766 138.097C110.189 134.347 104.914 130.747 104.914 130.747L109.522 111.555C109.522 111.555 123.887 112.957 127.199 113.01C133.089 113.092 145.805 108.787 156.88 108.51C156.88 108.51 132.804 119.34 125.064 133.147C117.323 146.955 110.362 176.88 110.362 176.88V176.895Z" fill="#FFC727"/>
<path opacity="0.1" d="M156.416 240.907C129.245 239.595 108.571 208.792 110.324 172.252C111.156 154.815 116.918 138.6 126.54 126.592C136.483 114.187 149.32 107.677 162.808 108.36C176.296 109.042 188.45 116.692 197.15 130.005C205.58 142.86 209.761 159.562 208.914 177.015C207.251 211.59 186.074 239.115 160.769 240.862C159.32 240.96 157.867 240.975 156.416 240.907ZM133.456 132.157C124.996 142.695 119.893 157.095 119.144 172.687C117.645 204.337 134.528 230.97 156.828 232.042C179.128 233.115 198.513 208.237 200.049 176.542C200.799 160.95 197.12 146.137 189.724 134.82C182.597 123.952 172.879 117.69 162.358 117.187C161.237 117.12 160.114 117.12 158.993 117.187C149.672 117.9 140.71 123.097 133.456 132.142V132.157ZM110.362 176.895C108.99 150.165 111.98 145.98 110.766 138.097C110.189 134.347 104.914 130.747 104.914 130.747L109.522 111.555C109.522 111.555 123.887 112.957 127.199 113.01C133.089 113.092 145.805 108.787 156.88 108.51C156.88 108.51 132.804 119.34 125.064 133.147C117.323 146.955 110.362 176.88 110.362 176.88V176.895Z" fill="black"/>
<path d="M152.722 240.907C125.544 239.595 104.87 208.792 106.623 172.252C107.455 154.815 113.217 138.6 122.839 126.592C132.782 114.187 145.618 107.677 159.106 108.36C172.594 109.042 184.749 116.692 193.448 130.005C201.878 142.86 206.06 159.562 205.213 177.015C203.549 211.59 182.373 239.115 157.068 240.862C155.622 240.96 154.17 240.975 152.722 240.907ZM129.755 132.157C121.295 142.71 116.222 157.11 115.473 172.702C113.974 204.352 130.849 230.985 153.149 232.057C175.449 233.13 194.835 208.252 196.371 176.557C197.12 160.965 193.441 146.152 186.045 134.835C178.926 123.967 169.2 117.705 158.679 117.202C157.559 117.135 156.435 117.135 155.315 117.202C145.978 117.9 137.009 123.097 129.755 132.142V132.157ZM106.661 176.895C105.289 150.165 108.279 145.98 107.065 138.097C106.488 134.347 101.213 130.747 101.213 130.747L106.031 109.357C106.031 109.357 120.636 111.945 123.94 111.99C129.83 112.08 142.104 108.787 153.164 108.54C153.164 108.54 129.088 119.37 121.347 133.177C113.607 146.985 106.661 176.88 106.661 176.88V176.895Z" fill="#FFC727"/>
<path d="M120.434 119.145C120.262 120.472 117.796 121.237 114.926 120.855C112.056 120.472 109.883 119.085 110.063 117.765C110.243 116.445 112.701 115.672 115.571 116.055C118.441 116.437 120.644 117.817 120.434 119.145Z" fill="#A6A6A6"/>
<path d="M111.322 117.81C111.555 117.172 114.05 116.452 116.777 117.187L111.322 117.81Z" fill="#C4B6B6"/>
<path d="M104.908 130.92C110.093 133.83 112.311 138.12 111.727 144.06C111.15 154.365 109.988 164.572 109.973 174.877C109.902 180.02 110.233 185.161 110.962 190.252C107.643 177.697 108.632 164.46 109.801 151.672L110.55 143.992C111.359 138.247 109.546 134.317 104.893 130.92H104.908Z" fill="#C4B6B6"/>
<path d="M131.988 113.227C139.182 111.172 146.653 109.477 154.176 109.815C146.683 110.482 139.407 112.162 131.988 113.227Z" fill="#C4B6B6"/>
<path opacity="0.1" d="M131.981 132.69C123.806 143.19 118.905 157.5 118.171 173.01C116.71 204.51 133.045 230.97 154.596 232.042C176.147 233.115 194.888 208.365 196.371 176.88C197.121 161.377 193.546 146.64 186.398 135.39C179.511 124.575 170.115 118.35 159.939 117.847C158.856 117.78 157.77 117.78 156.687 117.847C147.657 118.522 138.995 123.682 131.981 132.69Z" fill="#EBEBEB"/>
<g opacity="0.2">
<path d="M173.337 122.077L118.111 178.95C118.059 176.985 118.111 175.012 118.179 173.002C118.44 167.134 119.339 161.312 120.861 155.64L157.579 117.847C158.328 117.847 159.16 117.847 159.954 117.847C164.698 118.117 169.299 119.572 173.337 122.077Z" fill="#C4B6B6"/>
<path d="M192.579 148.522L128.264 214.755C127.081 212.919 126.01 211.013 125.057 209.047L190.031 142.132C191.001 144.212 191.851 146.346 192.579 148.522Z" fill="#C4B6B6"/>
<path d="M195.082 188.092C194.297 192.365 193.149 196.563 191.65 200.64L161.714 231.465C159.377 231.97 156.984 232.164 154.596 232.042C153.921 232.005 153.247 231.952 152.58 231.862L195.082 188.092Z" fill="#C4B6B6"/>
<path d="M195.203 158.714L133.87 221.872C133.578 221.587 133.301 221.287 133.031 220.979L194.919 157.229C195.031 157.724 195.114 158.227 195.203 158.714Z" fill="#C4B6B6"/>
</g>
<path d="M241.077 178.65L247.071 172.132C237.435 163.207 214.753 150.742 197.758 167.28L203.932 173.64C219.159 158.797 240.185 177.84 241.077 178.65Z" fill="#FFC727"/>
<path d="M298.429 249.022C281.13 245.843 265.799 235.922 255.802 221.438C245.806 206.954 241.962 189.091 245.114 171.772C247.475 158.858 253.609 146.934 262.741 137.509C271.872 128.084 283.591 121.581 296.415 118.822C309.238 116.062 322.592 117.171 334.786 122.007C346.981 126.844 357.469 135.19 364.924 145.992C372.379 156.794 376.467 169.566 376.67 182.693C376.873 195.82 373.183 208.713 366.065 219.741C358.948 230.769 348.723 239.437 336.684 244.649C324.645 249.861 311.332 251.383 298.429 249.022ZM253.836 173.392C251.702 185.162 253.293 197.306 258.389 208.127C263.484 218.948 271.829 227.906 282.258 233.749C292.687 239.593 304.679 242.031 316.559 240.722C328.439 239.414 339.614 234.424 348.523 226.45C357.433 218.476 363.632 207.916 366.254 196.245C368.876 184.574 367.791 172.375 363.151 161.351C358.51 150.327 350.545 141.029 340.368 134.756C330.192 128.483 318.311 125.547 306.387 126.36C293.655 127.25 281.581 132.355 272.066 140.871C262.552 149.386 256.139 160.827 253.836 173.392Z" fill="#FFC727"/>
<path d="M369.422 155.362C364.858 140.197 338.279 123.525 338.279 123.525C349.04 126.172 360.909 131.557 366.679 132.757C369.916 133.425 389.549 135.435 389.549 135.435L389.624 162.375C389.624 162.375 384.228 162.675 382.88 166.207C379.987 173.64 381.448 175.44 374.315 201.225C374.247 201.225 373.918 170.52 369.422 155.362Z" fill="#FFC727"/>
<g opacity="0.1">
<path d="M298.429 249.022C281.13 245.843 265.799 235.922 255.802 221.438C245.806 206.954 241.962 189.091 245.114 171.772C247.475 158.858 253.609 146.934 262.741 137.509C271.872 128.084 283.591 121.581 296.415 118.822C309.238 116.062 322.592 117.171 334.786 122.007C346.981 126.844 357.469 135.19 364.924 145.992C372.379 156.794 376.467 169.566 376.67 182.693C376.873 195.82 373.183 208.713 366.065 219.741C358.948 230.769 348.723 239.437 336.684 244.649C324.645 249.861 311.332 251.383 298.429 249.022ZM253.836 173.392C251.702 185.162 253.293 197.306 258.389 208.127C263.484 218.948 271.829 227.906 282.258 233.749C292.687 239.593 304.679 242.031 316.559 240.722C328.439 239.414 339.614 234.424 348.523 226.45C357.433 218.476 363.632 207.916 366.254 196.245C368.876 184.574 367.791 172.375 363.151 161.351C358.51 150.327 350.545 141.029 340.368 134.756C330.192 128.483 318.311 125.547 306.387 126.36C293.655 127.25 281.581 132.355 272.066 140.871C262.552 149.386 256.139 160.827 253.836 173.392Z" fill="black"/>
<path d="M369.422 155.362C364.858 140.197 338.279 123.524 338.279 123.524C349.04 126.172 360.909 131.557 366.679 132.757C369.916 133.424 389.549 135.434 389.549 135.434L389.624 162.374C389.624 162.374 384.228 162.674 382.88 166.207C379.987 173.639 381.448 175.439 374.315 201.224C374.247 201.224 373.918 170.519 369.422 155.362Z" fill="black"/>
</g>
<path d="M292.533 248.055C275.247 244.875 259.928 234.964 249.933 220.495C239.938 206.026 236.085 188.181 239.218 170.872C241.563 157.943 247.688 146.002 256.817 136.559C265.946 127.115 277.669 120.595 290.502 117.822C303.335 115.049 316.701 116.149 328.909 120.982C341.117 125.815 351.618 134.165 359.084 144.973C366.549 155.782 370.644 168.564 370.848 181.703C371.053 194.841 367.36 207.745 360.235 218.782C353.11 229.819 342.874 238.492 330.822 243.704C318.771 248.916 305.446 250.433 292.533 248.062V248.055ZM247.94 172.462C245.796 184.242 247.382 196.397 252.477 207.23C257.572 218.064 265.921 227.033 276.357 232.886C286.794 238.738 298.796 241.181 310.687 239.873C322.578 238.565 333.764 233.572 342.682 225.591C351.599 217.61 357.803 207.04 360.426 195.358C363.049 183.676 361.96 171.465 357.312 160.433C352.664 149.4 344.688 140.097 334.499 133.823C324.31 127.548 312.418 124.617 300.483 125.437C287.753 126.329 275.682 131.434 266.169 139.947C256.656 148.461 250.243 159.9 247.94 172.462Z" fill="#FFC727"/>
<path d="M363.488 154.432C358.925 139.267 332.346 122.595 332.346 122.595C343.106 125.242 354.976 130.627 360.745 131.827C363.983 132.495 383.615 134.505 383.615 134.505L383.69 159.172C383.69 159.172 378.295 160.807 376.946 164.332C374.046 171.765 375.507 174.51 368.374 200.332C368.351 200.272 368.051 169.59 363.488 154.432Z" fill="#FFC727"/>
<path d="M375.207 145.582C375.027 146.91 372.562 147.675 369.699 147.292C366.837 146.91 364.649 145.53 364.829 144.202C365.009 142.875 367.474 142.11 370.336 142.492C373.199 142.875 375.417 144.262 375.207 145.582Z" fill="#A6A6A6"/>
<path d="M366.088 144.255C366.32 143.617 368.815 142.89 371.543 143.632L366.088 144.255Z" fill="#C4B6B6"/>
<path d="M274.129 127.425C279.811 123.093 286.769 120.774 293.911 120.832C287.167 122.812 280.678 124.957 274.129 127.425Z" fill="#C4B6B6"/>
<path d="M246.066 160.522C249.423 147.105 260.633 134.16 272.975 128.122C261.42 136.372 251.731 147.442 246.066 160.522Z" fill="#C4B6B6"/>
<path opacity="0.1" d="M250.675 172.462C245.13 203.64 265.347 233.64 295.755 239.332C326.163 245.025 355.402 224.28 360.947 193.11C366.492 161.94 346.268 131.925 315.86 126.24C311.287 125.378 306.623 125.109 301.982 125.437C277.007 127.2 255.366 146.1 250.675 172.462Z" fill="#EBEBEB"/>
<g opacity="0.2">
<path d="M361.809 185.437L308.389 240.187C304.157 240.382 299.918 240.085 295.755 239.302C293.953 238.968 292.17 238.539 290.412 238.019L359.68 167.002C361.373 172.993 362.092 179.217 361.809 185.437Z" fill="#C4B6B6"/>
<path d="M312.997 125.782L250.225 190.162C249.482 184.273 249.634 178.306 250.674 172.462C250.929 171.007 251.251 169.56 251.611 168.142L291.491 127.215C294.921 126.281 298.435 125.685 301.981 125.437C305.655 125.172 309.346 125.288 312.997 125.782Z" fill="#C4B6B6"/>
<path d="M352.703 151.365L275.154 230.865C273.383 229.685 271.684 228.4 270.066 227.017L348.964 146.145C350.31 147.81 351.559 149.553 352.703 151.365Z" fill="#C4B6B6"/>
<path d="M328.44 130.184L254.541 205.934C253.612 203.78 252.817 201.571 252.158 199.319L321.989 127.709C324.188 128.4 326.343 129.226 328.44 130.184Z" fill="#C4B6B6"/>
<path d="M361.088 192.314C361.051 192.577 360.998 192.847 360.953 193.109C360.878 193.574 360.788 194.039 360.691 194.489L317.23 239.069C316.533 239.219 315.821 239.354 315.102 239.474L361.088 192.314Z" fill="#C4B6B6"/>
<path d="M344.551 141.27L265.332 222.51C265.047 222.21 264.77 221.902 264.5 221.595L343.667 140.407L344.551 141.27Z" fill="#C4B6B6"/>
</g>
</svg>
