<svg width="108" height="71" viewBox="0 0 108 71" fill="none" xmlns="http://www.w3.org/2000/svg">
<path d="M0.5 10C0.5 4.75329 4.75329 0.5 10 0.5H76.4665C79.9917 0.5 83.2271 2.45208 84.8707 5.57073L98.9931 32.3671C100.51 35.2455 100.449 38.7002 98.8297 41.5227L84.9482 65.7264C83.2548 68.679 80.1111 70.5 76.7073 70.5H10C4.75329 70.5 0.5 66.2467 0.5 61V10Z" fill="#FBEFD7" stroke="#F7C663"/>
<path d="M9.312 24.064L12.492 20.74C12.716 20.5 12.896 20.288 13.032 20.104C13.176 19.912 13.28 19.732 13.344 19.564C13.408 19.388 13.44 19.212 13.44 19.036C13.44 18.684 13.324 18.408 13.092 18.208C12.868 18.008 12.576 17.908 12.216 17.908C11.848 17.908 11.52 18.004 11.232 18.196C10.952 18.388 10.688 18.692 10.44 19.108L9.324 18.16C9.66 17.592 10.076 17.164 10.572 16.876C11.076 16.58 11.652 16.432 12.3 16.432C12.852 16.432 13.332 16.54 13.74 16.756C14.156 16.972 14.476 17.272 14.7 17.656C14.924 18.04 15.036 18.488 15.036 19C15.036 19.344 14.992 19.656 14.904 19.936C14.824 20.216 14.684 20.496 14.484 20.776C14.292 21.048 14.024 21.356 13.68 21.7L11.364 24.064H9.312ZM9.312 25V24.064L10.704 23.584H15.216V25H9.312ZM18.9688 25.12C18.3688 25.12 17.8488 25.016 17.4088 24.808C16.9768 24.6 16.6368 24.308 16.3888 23.932C16.1488 23.556 16.0288 23.132 16.0288 22.66C16.0288 22.268 16.1048 21.912 16.2568 21.592C16.4088 21.272 16.6248 21.004 16.9048 20.788C17.1928 20.564 17.5288 20.408 17.9128 20.32L17.8768 20.716C17.5568 20.636 17.2848 20.496 17.0608 20.296C16.8368 20.096 16.6688 19.86 16.5568 19.588C16.4448 19.308 16.3888 19.02 16.3888 18.724C16.3888 18.268 16.4968 17.868 16.7128 17.524C16.9368 17.18 17.2408 16.912 17.6248 16.72C18.0168 16.528 18.4648 16.432 18.9688 16.432C19.4728 16.432 19.9168 16.528 20.3008 16.72C20.6848 16.912 20.9848 17.18 21.2008 17.524C21.4248 17.868 21.5368 18.268 21.5368 18.724C21.5368 19.02 21.4808 19.308 21.3688 19.588C21.2568 19.86 21.0888 20.096 20.8648 20.296C20.6488 20.496 20.3768 20.636 20.0488 20.716L20.0128 20.32C20.4048 20.408 20.7408 20.564 21.0208 20.788C21.3008 21.004 21.5168 21.272 21.6688 21.592C21.8208 21.912 21.8968 22.268 21.8968 22.66C21.8968 23.132 21.7768 23.556 21.5368 23.932C21.2968 24.308 20.9568 24.6 20.5168 24.808C20.0768 25.016 19.5608 25.12 18.9688 25.12ZM18.9688 23.692C19.2328 23.692 19.4688 23.64 19.6768 23.536C19.8848 23.424 20.0448 23.272 20.1568 23.08C20.2768 22.888 20.3368 22.672 20.3368 22.432C20.3368 22.184 20.2768 21.968 20.1568 21.784C20.0448 21.592 19.8848 21.444 19.6768 21.34C19.4688 21.228 19.2328 21.172 18.9688 21.172C18.6968 21.172 18.4568 21.228 18.2488 21.34C18.0488 21.444 17.8888 21.592 17.7688 21.784C17.6488 21.968 17.5888 22.184 17.5888 22.432C17.5888 22.672 17.6488 22.888 17.7688 23.08C17.8888 23.272 18.0488 23.424 18.2488 23.536C18.4568 23.64 18.6968 23.692 18.9688 23.692ZM18.9688 19.936C19.2808 19.936 19.5368 19.836 19.7368 19.636C19.9368 19.436 20.0368 19.18 20.0368 18.868C20.0368 18.548 19.9368 18.288 19.7368 18.088C19.5368 17.888 19.2808 17.788 18.9688 17.788C18.6568 17.788 18.3968 17.888 18.1888 18.088C17.9888 18.288 17.8888 18.544 17.8888 18.856C17.8888 19.176 17.9888 19.436 18.1888 19.636C18.3968 19.836 18.6568 19.936 18.9688 19.936ZM28.5448 25.12C28.1288 25.12 27.7528 25.032 27.4168 24.856C27.0808 24.68 26.8128 24.44 26.6128 24.136C26.4128 23.832 26.3048 23.492 26.2888 23.116V21.052C26.3048 20.676 26.4128 20.34 26.6128 20.044C26.8208 19.74 27.0928 19.504 27.4288 19.336C27.7648 19.168 28.1368 19.084 28.5448 19.084C29.0808 19.084 29.5608 19.216 29.9848 19.48C30.4088 19.744 30.7408 20.104 30.9808 20.56C31.2288 21.016 31.3528 21.532 31.3528 22.108C31.3528 22.676 31.2288 23.188 30.9808 23.644C30.7408 24.1 30.4088 24.46 29.9848 24.724C29.5608 24.988 29.0808 25.12 28.5448 25.12ZM25.3288 25V16.324H26.9008V20.632L26.6368 22.024L26.8888 23.44V25H25.3288ZM28.2808 23.668C28.5688 23.668 28.8208 23.604 29.0368 23.476C29.2608 23.34 29.4328 23.156 29.5528 22.924C29.6808 22.684 29.7448 22.408 29.7448 22.096C29.7448 21.792 29.6808 21.524 29.5528 21.292C29.4328 21.052 29.2608 20.868 29.0368 20.74C28.8128 20.604 28.5568 20.536 28.2688 20.536C27.9808 20.536 27.7248 20.604 27.5008 20.74C27.2848 20.868 27.1128 21.052 26.9848 21.292C26.8648 21.524 26.8048 21.792 26.8048 22.096C26.8048 22.408 26.8648 22.684 26.9848 22.924C27.1128 23.156 27.2888 23.34 27.5128 23.476C27.7368 23.604 27.9928 23.668 28.2808 23.668ZM35.1075 25.12C34.5235 25.12 33.9955 24.988 33.5235 24.724C33.0595 24.452 32.6875 24.088 32.4075 23.632C32.1355 23.168 31.9995 22.652 31.9995 22.084C31.9995 21.516 32.1355 21.008 32.4075 20.56C32.6795 20.104 33.0515 19.744 33.5235 19.48C33.9955 19.208 34.5195 19.072 35.0955 19.072C35.6875 19.072 36.2155 19.208 36.6795 19.48C37.1515 19.744 37.5235 20.104 37.7955 20.56C38.0675 21.008 38.2035 21.516 38.2035 22.084C38.2035 22.652 38.0675 23.168 37.7955 23.632C37.5235 24.088 37.1515 24.452 36.6795 24.724C36.2155 24.988 35.6915 25.12 35.1075 25.12ZM35.0955 23.656C35.3915 23.656 35.6515 23.592 35.8755 23.464C36.1075 23.328 36.2835 23.144 36.4035 22.912C36.5315 22.672 36.5955 22.4 36.5955 22.096C36.5955 21.792 36.5315 21.524 36.4035 21.292C36.2755 21.06 36.0995 20.88 35.8755 20.752C35.6515 20.616 35.3915 20.548 35.0955 20.548C34.8075 20.548 34.5515 20.616 34.3275 20.752C34.1035 20.88 33.9275 21.06 33.7995 21.292C33.6715 21.524 33.6075 21.792 33.6075 22.096C33.6075 22.4 33.6715 22.672 33.7995 22.912C33.9275 23.144 34.1035 23.328 34.3275 23.464C34.5515 23.592 34.8075 23.656 35.0955 23.656ZM41.9395 25.12C41.3555 25.12 40.8275 24.988 40.3555 24.724C39.8915 24.452 39.5195 24.088 39.2395 23.632C38.9675 23.168 38.8315 22.652 38.8315 22.084C38.8315 21.516 38.9675 21.008 39.2395 20.56C39.5115 20.104 39.8835 19.744 40.3555 19.48C40.8275 19.208 41.3515 19.072 41.9275 19.072C42.5195 19.072 43.0475 19.208 43.5115 19.48C43.9835 19.744 44.3555 20.104 44.6275 20.56C44.8995 21.008 45.0355 21.516 45.0355 22.084C45.0355 22.652 44.8995 23.168 44.6275 23.632C44.3555 24.088 43.9835 24.452 43.5115 24.724C43.0475 24.988 42.5235 25.12 41.9395 25.12ZM41.9275 23.656C42.2235 23.656 42.4835 23.592 42.7075 23.464C42.9395 23.328 43.1155 23.144 43.2355 22.912C43.3635 22.672 43.4275 22.4 43.4275 22.096C43.4275 21.792 43.3635 21.524 43.2355 21.292C43.1075 21.06 42.9315 20.88 42.7075 20.752C42.4835 20.616 42.2235 20.548 41.9275 20.548C41.6395 20.548 41.3835 20.616 41.1595 20.752C40.9355 20.88 40.7595 21.06 40.6315 21.292C40.5035 21.524 40.4395 21.792 40.4395 22.096C40.4395 22.4 40.5035 22.672 40.6315 22.912C40.7595 23.144 40.9355 23.328 41.1595 23.464C41.3835 23.592 41.6395 23.656 41.9275 23.656ZM49.7436 25L47.4996 22.012L49.7316 19.204H51.5436L48.9276 22.372L48.9876 21.604L51.6636 25H49.7436ZM46.0476 25V16.324H47.6196V25H46.0476ZM11.688 40.132C11.36 40.132 11.036 40.088 10.716 40C10.404 39.912 10.116 39.792 9.852 39.64C9.588 39.48 9.36 39.288 9.168 39.064L10.104 38.116C10.304 38.34 10.536 38.508 10.8 38.62C11.064 38.732 11.356 38.788 11.676 38.788C11.932 38.788 12.124 38.752 12.252 38.68C12.388 38.608 12.456 38.5 12.456 38.356C12.456 38.196 12.384 38.072 12.24 37.984C12.104 37.896 11.924 37.824 11.7 37.768C11.476 37.704 11.24 37.636 10.992 37.564C10.752 37.484 10.52 37.384 10.296 37.264C10.072 37.136 9.888 36.964 9.744 36.748C9.608 36.524 9.54 36.236 9.54 35.884C9.54 35.516 9.628 35.196 9.804 34.924C9.988 34.652 10.248 34.44 10.584 34.288C10.92 34.136 11.316 34.06 11.772 34.06C12.252 34.06 12.684 34.144 13.068 34.312C13.46 34.48 13.784 34.732 14.04 35.068L13.092 36.016C12.916 35.8 12.716 35.644 12.492 35.548C12.276 35.452 12.04 35.404 11.784 35.404C11.552 35.404 11.372 35.44 11.244 35.512C11.124 35.584 11.064 35.684 11.064 35.812C11.064 35.956 11.132 36.068 11.268 36.148C11.412 36.228 11.596 36.3 11.82 36.364C12.044 36.42 12.276 36.488 12.516 36.568C12.764 36.64 12.996 36.744 13.212 36.88C13.436 37.016 13.616 37.196 13.752 37.42C13.896 37.644 13.968 37.932 13.968 38.284C13.968 38.852 13.764 39.304 13.356 39.64C12.948 39.968 12.392 40.132 11.688 40.132ZM17.5 40.12C16.988 40.12 16.532 40.012 16.132 39.796C15.74 39.58 15.432 39.28 15.208 38.896C14.984 38.512 14.872 38.068 14.872 37.564V34.204H16.456V37.528C16.456 37.768 16.496 37.976 16.576 38.152C16.656 38.32 16.776 38.448 16.936 38.536C17.096 38.624 17.284 38.668 17.5 38.668C17.828 38.668 18.084 38.568 18.268 38.368C18.452 38.168 18.544 37.888 18.544 37.528V34.204H20.116V37.564C20.116 38.076 20.004 38.524 19.78 38.908C19.564 39.292 19.256 39.592 18.856 39.808C18.464 40.016 18.012 40.12 17.5 40.12ZM21.3679 40V34.204H22.9399V40H21.3679ZM25.1479 40V36.58C25.1479 36.244 25.0399 35.984 24.8239 35.8C24.6159 35.608 24.3559 35.512 24.0439 35.512C23.8359 35.512 23.6479 35.556 23.4799 35.644C23.3119 35.724 23.1799 35.844 23.0839 36.004C22.9879 36.164 22.9399 36.356 22.9399 36.58L22.3279 36.28C22.3279 35.832 22.4239 35.444 22.6159 35.116C22.8159 34.788 23.0839 34.536 23.4199 34.36C23.7559 34.176 24.1359 34.084 24.5599 34.084C24.9599 34.084 25.3239 34.176 25.6519 34.36C25.9799 34.536 26.2399 34.788 26.4319 35.116C26.6239 35.436 26.7199 35.824 26.7199 36.28V40H25.1479ZM28.9279 40V36.58C28.9279 36.244 28.8199 35.984 28.6039 35.8C28.3959 35.608 28.1359 35.512 27.8239 35.512C27.6239 35.512 27.4359 35.556 27.2599 35.644C27.0919 35.724 26.9599 35.844 26.8639 36.004C26.7679 36.164 26.7199 36.356 26.7199 36.58L25.8199 36.364C25.8519 35.9 25.9759 35.5 26.1919 35.164C26.4079 34.82 26.6919 34.556 27.0439 34.372C27.3959 34.18 27.7879 34.084 28.2199 34.084C28.6519 34.084 29.0399 34.176 29.3839 34.36C29.7279 34.536 29.9999 34.792 30.1999 35.128C30.3999 35.464 30.4999 35.864 30.4999 36.328V40H28.9279ZM31.7741 40V34.204H33.3461V40H31.7741ZM35.5541 40V36.58C35.5541 36.244 35.4461 35.984 35.2301 35.8C35.0221 35.608 34.7621 35.512 34.4501 35.512C34.2421 35.512 34.0541 35.556 33.8861 35.644C33.7181 35.724 33.5861 35.844 33.4901 36.004C33.3941 36.164 33.3461 36.356 33.3461 36.58L32.7341 36.28C32.7341 35.832 32.8301 35.444 33.0221 35.116C33.2221 34.788 33.4901 34.536 33.8261 34.36C34.1621 34.176 34.5421 34.084 34.9661 34.084C35.3661 34.084 35.7301 34.176 36.0581 34.36C36.3861 34.536 36.6461 34.788 36.8381 35.116C37.0301 35.436 37.1261 35.824 37.1261 36.28V40H35.5541ZM39.3341 40V36.58C39.3341 36.244 39.2261 35.984 39.0101 35.8C38.8021 35.608 38.5421 35.512 38.2301 35.512C38.0301 35.512 37.8421 35.556 37.6661 35.644C37.4981 35.724 37.3661 35.844 37.2701 36.004C37.1741 36.164 37.1261 36.356 37.1261 36.58L36.2261 36.364C36.2581 35.9 36.3821 35.5 36.5981 35.164C36.8141 34.82 37.0981 34.556 37.4501 34.372C37.8021 34.18 38.1941 34.084 38.6261 34.084C39.0581 34.084 39.4461 34.176 39.7901 34.36C40.1341 34.536 40.4061 34.792 40.6061 35.128C40.8061 35.464 40.9061 35.864 40.9061 36.328V40H39.3341ZM44.6044 40.12C44.0764 40.12 43.6004 39.988 43.1764 39.724C42.7524 39.46 42.4204 39.1 42.1804 38.644C41.9404 38.188 41.8204 37.676 41.8204 37.108C41.8204 36.532 41.9404 36.016 42.1804 35.56C42.4204 35.104 42.7524 34.744 43.1764 34.48C43.6004 34.216 44.0764 34.084 44.6044 34.084C45.0204 34.084 45.3924 34.168 45.7204 34.336C46.0484 34.504 46.3084 34.74 46.5004 35.044C46.7004 35.34 46.8084 35.676 46.8244 36.052V38.14C46.8084 38.524 46.7004 38.864 46.5004 39.16C46.3084 39.456 46.0484 39.692 45.7204 39.868C45.3924 40.036 45.0204 40.12 44.6044 40.12ZM44.8924 38.668C45.3324 38.668 45.6884 38.524 45.9604 38.236C46.2324 37.94 46.3684 37.56 46.3684 37.096C46.3684 36.792 46.3044 36.524 46.1764 36.292C46.0564 36.052 45.8844 35.868 45.6604 35.74C45.4444 35.604 45.1884 35.536 44.8924 35.536C44.6044 35.536 44.3484 35.604 44.1244 35.74C43.9084 35.868 43.7364 36.052 43.6084 36.292C43.4884 36.524 43.4284 36.792 43.4284 37.096C43.4284 37.408 43.4884 37.684 43.6084 37.924C43.7364 38.156 43.9084 38.34 44.1244 38.476C44.3484 38.604 44.6044 38.668 44.8924 38.668ZM46.2844 40V38.44L46.5364 37.024L46.2844 35.632V34.204H47.8444V40H46.2844ZM49.2351 40V34.204H50.8071V40H49.2351ZM50.8071 36.796L50.1951 36.388C50.2671 35.676 50.4751 35.116 50.8191 34.708C51.1631 34.292 51.6591 34.084 52.3071 34.084C52.5871 34.084 52.8391 34.132 53.0631 34.228C53.2871 34.316 53.4911 34.464 53.6751 34.672L52.6911 35.8C52.6031 35.704 52.4951 35.632 52.3671 35.584C52.2471 35.536 52.1071 35.512 51.9471 35.512C51.6111 35.512 51.3351 35.62 51.1191 35.836C50.9111 36.044 50.8071 36.364 50.8071 36.796ZM54.2273 40V34.204H55.8113V40H54.2273ZM55.0193 33.268C54.7633 33.268 54.5513 33.184 54.3833 33.016C54.2153 32.84 54.1313 32.624 54.1313 32.368C54.1313 32.12 54.2153 31.908 54.3833 31.732C54.5513 31.556 54.7633 31.468 55.0193 31.468C55.2833 31.468 55.4953 31.556 55.6553 31.732C55.8233 31.908 55.9073 32.12 55.9073 32.368C55.9073 32.624 55.8233 32.84 55.6553 33.016C55.4953 33.184 55.2833 33.268 55.0193 33.268ZM59.9758 40.12C59.3678 40.12 58.8278 39.992 58.3558 39.736C57.8838 39.472 57.5078 39.112 57.2278 38.656C56.9558 38.2 56.8198 37.68 56.8198 37.096C56.8198 36.52 56.9518 36.008 57.2158 35.56C57.4878 35.104 57.8558 34.744 58.3198 34.48C58.7838 34.208 59.2998 34.072 59.8678 34.072C60.4278 34.072 60.9198 34.2 61.3438 34.456C61.7758 34.704 62.1118 35.048 62.3518 35.488C62.5998 35.92 62.7238 36.412 62.7238 36.964C62.7238 37.068 62.7158 37.176 62.6998 37.288C62.6918 37.392 62.6718 37.512 62.6398 37.648L57.7678 37.66V36.484L61.9078 36.472L61.2718 36.964C61.2558 36.62 61.1918 36.332 61.0798 36.1C60.9758 35.868 60.8198 35.692 60.6118 35.572C60.4118 35.444 60.1638 35.38 59.8678 35.38C59.5558 35.38 59.2838 35.452 59.0518 35.596C58.8198 35.732 58.6398 35.928 58.5118 36.184C58.3918 36.432 58.3318 36.728 58.3318 37.072C58.3318 37.424 58.3958 37.732 58.5238 37.996C58.6598 38.252 58.8518 38.452 59.0998 38.596C59.3478 38.732 59.6358 38.8 59.9638 38.8C60.2598 38.8 60.5278 38.752 60.7678 38.656C61.0078 38.552 61.2158 38.4 61.3918 38.2L62.3158 39.124C62.0358 39.452 61.6918 39.7 61.2838 39.868C60.8838 40.036 60.4478 40.12 59.9758 40.12ZM65.688 40.132C65.36 40.132 65.036 40.088 64.716 40C64.404 39.912 64.116 39.792 63.852 39.64C63.588 39.48 63.36 39.288 63.168 39.064L64.104 38.116C64.304 38.34 64.536 38.508 64.8 38.62C65.064 38.732 65.356 38.788 65.676 38.788C65.932 38.788 66.124 38.752 66.252 38.68C66.388 38.608 66.456 38.5 66.456 38.356C66.456 38.196 66.384 38.072 66.24 37.984C66.104 37.896 65.924 37.824 65.7 37.768C65.476 37.704 65.24 37.636 64.992 37.564C64.752 37.484 64.52 37.384 64.296 37.264C64.072 37.136 63.888 36.964 63.744 36.748C63.608 36.524 63.54 36.236 63.54 35.884C63.54 35.516 63.628 35.196 63.804 34.924C63.988 34.652 64.248 34.44 64.584 34.288C64.92 34.136 65.316 34.06 65.772 34.06C66.252 34.06 66.684 34.144 67.068 34.312C67.46 34.48 67.784 34.732 68.04 35.068L67.092 36.016C66.916 35.8 66.716 35.644 66.492 35.548C66.276 35.452 66.04 35.404 65.784 35.404C65.552 35.404 65.372 35.44 65.244 35.512C65.124 35.584 65.064 35.684 65.064 35.812C65.064 35.956 65.132 36.068 65.268 36.148C65.412 36.228 65.596 36.3 65.82 36.364C66.044 36.42 66.276 36.488 66.516 36.568C66.764 36.64 66.996 36.744 67.212 36.88C67.436 37.016 67.616 37.196 67.752 37.42C67.896 37.644 67.968 37.932 67.968 38.284C67.968 38.852 67.764 39.304 67.356 39.64C66.948 39.968 66.392 40.132 65.688 40.132ZM73.7958 40.12C73.2678 40.12 72.7918 39.988 72.3678 39.724C71.9438 39.46 71.6118 39.1 71.3718 38.644C71.1318 38.188 71.0118 37.676 71.0118 37.108C71.0118 36.532 71.1318 36.016 71.3718 35.56C71.6118 35.104 71.9438 34.744 72.3678 34.48C72.7918 34.216 73.2678 34.084 73.7958 34.084C74.2118 34.084 74.5838 34.168 74.9118 34.336C75.2398 34.504 75.4998 34.74 75.6918 35.044C75.8918 35.34 75.9998 35.676 76.0158 36.052V38.14C75.9998 38.524 75.8918 38.864 75.6918 39.16C75.4998 39.456 75.2398 39.692 74.9118 39.868C74.5838 40.036 74.2118 40.12 73.7958 40.12ZM74.0838 38.668C74.5238 38.668 74.8798 38.524 75.1518 38.236C75.4238 37.94 75.5598 37.56 75.5598 37.096C75.5598 36.792 75.4958 36.524 75.3678 36.292C75.2478 36.052 75.0758 35.868 74.8518 35.74C74.6358 35.604 74.3798 35.536 74.0838 35.536C73.7958 35.536 73.5398 35.604 73.3158 35.74C73.0998 35.868 72.9278 36.052 72.7998 36.292C72.6798 36.524 72.6198 36.792 72.6198 37.096C72.6198 37.408 72.6798 37.684 72.7998 37.924C72.9278 38.156 73.0998 38.34 73.3158 38.476C73.5398 38.604 73.7958 38.668 74.0838 38.668ZM75.4758 40V38.44L75.7278 37.024L75.4758 35.632V34.204H77.0358V40H75.4758ZM9.696 55V49.204H11.268V55H9.696ZM13.476 55V51.58C13.476 51.244 13.368 50.984 13.152 50.8C12.944 50.608 12.684 50.512 12.372 50.512C12.164 50.512 11.976 50.556 11.808 50.644C11.64 50.724 11.508 50.844 11.412 51.004C11.316 51.164 11.268 51.356 11.268 51.58L10.656 51.28C10.656 50.832 10.752 50.444 10.944 50.116C11.144 49.788 11.412 49.536 11.748 49.36C12.084 49.176 12.464 49.084 12.888 49.084C13.288 49.084 13.652 49.176 13.98 49.36C14.308 49.536 14.568 49.788 14.76 50.116C14.952 50.436 15.048 50.824 15.048 51.28V55H13.476ZM17.256 55V51.58C17.256 51.244 17.148 50.984 16.932 50.8C16.724 50.608 16.464 50.512 16.152 50.512C15.952 50.512 15.764 50.556 15.588 50.644C15.42 50.724 15.288 50.844 15.192 51.004C15.096 51.164 15.048 51.356 15.048 51.58L14.148 51.364C14.18 50.9 14.304 50.5 14.52 50.164C14.736 49.82 15.02 49.556 15.372 49.372C15.724 49.18 16.116 49.084 16.548 49.084C16.98 49.084 17.368 49.176 17.712 49.36C18.056 49.536 18.328 49.792 18.528 50.128C18.728 50.464 18.828 50.864 18.828 51.328V55H17.256ZM22.8263 55.12C22.2423 55.12 21.7143 54.988 21.2423 54.724C20.7783 54.452 20.4063 54.088 20.1263 53.632C19.8543 53.168 19.7183 52.652 19.7183 52.084C19.7183 51.516 19.8543 51.008 20.1263 50.56C20.3983 50.104 20.7703 49.744 21.2423 49.48C21.7143 49.208 22.2383 49.072 22.8143 49.072C23.4063 49.072 23.9343 49.208 24.3983 49.48C24.8703 49.744 25.2423 50.104 25.5143 50.56C25.7863 51.008 25.9223 51.516 25.9223 52.084C25.9223 52.652 25.7863 53.168 25.5143 53.632C25.2423 54.088 24.8703 54.452 24.3983 54.724C23.9343 54.988 23.4103 55.12 22.8263 55.12ZM22.8143 53.656C23.1103 53.656 23.3703 53.592 23.5943 53.464C23.8263 53.328 24.0023 53.144 24.1223 52.912C24.2503 52.672 24.3143 52.4 24.3143 52.096C24.3143 51.792 24.2503 51.524 24.1223 51.292C23.9943 51.06 23.8183 50.88 23.5943 50.752C23.3703 50.616 23.1103 50.548 22.8143 50.548C22.5263 50.548 22.2703 50.616 22.0463 50.752C21.8223 50.88 21.6463 51.06 21.5183 51.292C21.3903 51.524 21.3263 51.792 21.3263 52.096C21.3263 52.4 21.3903 52.672 21.5183 52.912C21.6463 53.144 21.8223 53.328 22.0463 53.464C22.2703 53.592 22.5263 53.656 22.8143 53.656ZM30.8343 55V51.676C30.8343 51.332 30.7263 51.052 30.5103 50.836C30.2943 50.62 30.0143 50.512 29.6703 50.512C29.4463 50.512 29.2463 50.56 29.0703 50.656C28.8943 50.752 28.7543 50.888 28.6503 51.064C28.5543 51.24 28.5063 51.444 28.5063 51.676L27.8943 51.364C27.8943 50.908 27.9903 50.512 28.1823 50.176C28.3823 49.832 28.6543 49.564 28.9983 49.372C29.3503 49.18 29.7463 49.084 30.1863 49.084C30.6103 49.084 30.9903 49.192 31.3263 49.408C31.6623 49.616 31.9263 49.892 32.1183 50.236C32.3103 50.572 32.4063 50.936 32.4063 51.328V55H30.8343ZM26.9343 55V49.204H28.5063V55H26.9343ZM34.4543 55V46.792H36.0263V55H34.4543ZM33.0983 50.584V49.204H37.3823V50.584H33.0983ZM42.1663 55V51.676C42.1663 51.332 42.0583 51.052 41.8423 50.836C41.6263 50.62 41.3463 50.512 41.0023 50.512C40.7783 50.512 40.5783 50.56 40.4023 50.656C40.2263 50.752 40.0863 50.888 39.9823 51.064C39.8863 51.24 39.8383 51.444 39.8383 51.676L39.2263 51.364C39.2263 50.908 39.3223 50.512 39.5143 50.176C39.7063 49.832 39.9703 49.564 40.3063 49.372C40.6503 49.18 41.0423 49.084 41.4823 49.084C41.9223 49.084 42.3103 49.18 42.6463 49.372C42.9903 49.564 43.2583 49.828 43.4503 50.164C43.6423 50.5 43.7383 50.888 43.7383 51.328V55H42.1663ZM38.2663 55V46.324H39.8383V55H38.2663Z" fill="#F7C663"/>
</svg>
