<svg width="350" height="50" viewBox="0 0 350 50" fill="none" xmlns="http://www.w3.org/2000/svg">
<rect x="0.5" y="0.5" width="349" height="49" rx="9.5" fill="#FFF6E6"/>
<rect x="0.5" y="0.5" width="349" height="49" rx="9.5" stroke="#F7C663"/>
<path fill-rule="evenodd" clip-rule="evenodd" d="M14.9348 19.6547C14.6168 18.7817 13.3828 18.7817 13.0648 19.6547L11.6218 23.6218L7.65475 25.0648C6.78175 25.3828 6.78175 26.6168 7.65475 26.9348L11.6218 28.3778L13.0648 32.3448C13.3828 33.2178 14.6168 33.2178 14.9348 32.3448L16.3778 28.3778L20.3448 26.9348C21.2178 26.6168 21.2178 25.3828 20.3448 25.0648L16.3778 23.6218L14.9348 19.6547Z" fill="url(#paint0_linear_2391_3575)"/>
<path fill-rule="evenodd" clip-rule="evenodd" d="M20.9675 12.3274C20.8085 11.8909 20.1915 11.8909 20.0325 12.3274L19.311 14.311L17.3274 15.0325C16.8909 15.1915 16.8909 15.8085 17.3274 15.9675L19.311 16.689L20.0325 18.6726C20.1915 19.1091 20.8085 19.1091 20.9675 18.6726L21.689 16.689L23.6726 15.9675C24.1091 15.8085 24.1091 15.1915 23.6726 15.0325L21.689 14.311L20.9675 12.3274Z" fill="url(#paint1_linear_2391_3575)"/>
<path fill-rule="evenodd" clip-rule="evenodd" d="M27.8015 33.5612C27.5289 32.8129 26.4711 32.8129 26.1985 33.5612L24.9616 36.9616L21.5612 38.1985C20.8129 38.4711 20.8129 39.5289 21.5612 39.8015L24.9616 41.0384L26.1985 44.4388C26.4711 45.1871 27.5289 45.1871 27.8015 44.4388L29.0384 41.0384L32.4388 39.8015C33.1871 39.5289 33.1871 38.4711 32.4388 38.1985L29.0384 36.9616L27.8015 33.5612Z" fill="#F7C663"/>
<path d="M68.6738 20V10.256H70.8718V20H68.6738ZM65.5798 12.034V10.116H73.9658V12.034H65.5798ZM76.2123 20.14C75.5869 20.14 75.0269 19.986 74.5323 19.678C74.0469 19.37 73.6596 18.95 73.3703 18.418C73.0903 17.886 72.9503 17.2793 72.9503 16.598C72.9503 15.9167 73.0903 15.31 73.3703 14.778C73.6596 14.246 74.0469 13.826 74.5323 13.518C75.0269 13.21 75.5869 13.056 76.2123 13.056C76.6696 13.056 77.0803 13.1447 77.4443 13.322C77.8176 13.4993 78.1209 13.7467 78.3543 14.064C78.5876 14.372 78.7183 14.7267 78.7463 15.128V18.068C78.7183 18.4693 78.5876 18.8287 78.3543 19.146C78.1303 19.454 77.8316 19.6967 77.4583 19.874C77.0849 20.0513 76.6696 20.14 76.2123 20.14ZM76.6463 18.208C77.1036 18.208 77.4723 18.0587 77.7523 17.76C78.0323 17.452 78.1723 17.0647 78.1723 16.598C78.1723 16.2807 78.1069 16.0007 77.9763 15.758C77.8549 15.5153 77.6776 15.3287 77.4443 15.198C77.2203 15.058 76.9589 14.988 76.6603 14.988C76.3616 14.988 76.0956 15.058 75.8623 15.198C75.6383 15.3287 75.4563 15.5153 75.3163 15.758C75.1856 16.0007 75.1203 16.2807 75.1203 16.598C75.1203 16.906 75.1856 17.1813 75.3163 17.424C75.4469 17.6667 75.6289 17.858 75.8623 17.998C76.0956 18.138 76.3569 18.208 76.6463 18.208ZM78.0883 20V18.166L78.4103 16.514L78.0883 14.862V13.196H80.1883V20H78.0883ZM85.6164 20.14C85.1591 20.14 84.7391 20.0513 84.3564 19.874C83.9738 19.6967 83.6611 19.454 83.4184 19.146C83.1758 18.8287 83.0358 18.4693 82.9984 18.068V15.198C83.0358 14.7967 83.1758 14.4327 83.4184 14.106C83.6611 13.7793 83.9738 13.5227 84.3564 13.336C84.7391 13.1493 85.1591 13.056 85.6164 13.056C86.2604 13.056 86.8298 13.21 87.3244 13.518C87.8284 13.826 88.2204 14.246 88.5004 14.778C88.7898 15.31 88.9344 15.9167 88.9344 16.598C88.9344 17.2793 88.7898 17.886 88.5004 18.418C88.2204 18.95 87.8284 19.37 87.3244 19.678C86.8298 19.986 86.2604 20.14 85.6164 20.14ZM81.6964 22.87V13.196H83.8384V14.946L83.4884 16.598L83.8104 18.25V22.87H81.6964ZM85.2244 18.208C85.5324 18.208 85.7984 18.138 86.0224 17.998C86.2558 17.858 86.4378 17.6667 86.5684 17.424C86.6991 17.1813 86.7644 16.906 86.7644 16.598C86.7644 16.2807 86.6991 16.0007 86.5684 15.758C86.4378 15.5153 86.2558 15.3287 86.0224 15.198C85.7984 15.058 85.5371 14.988 85.2384 14.988C84.9398 14.988 84.6738 15.058 84.4404 15.198C84.2164 15.3287 84.0391 15.5153 83.9084 15.758C83.7778 16.0007 83.7124 16.2807 83.7124 16.598C83.7124 16.906 83.7731 17.1813 83.8944 17.424C84.0251 17.6667 84.2071 17.858 84.4404 17.998C84.6738 18.138 84.9351 18.208 85.2244 18.208ZM93.6546 20V10.382H95.7966V20H93.6546ZM92.1146 15.016V13.196H97.3366V15.016H92.1146ZM101.42 20.154C100.72 20.154 100.085 20 99.5157 19.692C98.9557 19.3747 98.5124 18.9453 98.1857 18.404C97.859 17.8627 97.6957 17.256 97.6957 16.584C97.6957 15.912 97.859 15.31 98.1857 14.778C98.5124 14.246 98.9557 13.826 99.5157 13.518C100.076 13.2007 100.71 13.042 101.42 13.042C102.129 13.042 102.764 13.196 103.324 13.504C103.884 13.812 104.327 14.2367 104.654 14.778C104.98 15.31 105.144 15.912 105.144 16.584C105.144 17.256 104.98 17.8627 104.654 18.404C104.327 18.9453 103.884 19.3747 103.324 19.692C102.764 20 102.129 20.154 101.42 20.154ZM101.42 18.208C101.728 18.208 101.998 18.1427 102.232 18.012C102.465 17.872 102.642 17.6807 102.764 17.438C102.894 17.186 102.96 16.9013 102.96 16.584C102.96 16.2667 102.894 15.9913 102.764 15.758C102.633 15.5153 102.451 15.3287 102.218 15.198C101.994 15.058 101.728 14.988 101.42 14.988C101.121 14.988 100.855 15.058 100.622 15.198C100.388 15.3287 100.206 15.5153 100.076 15.758C99.945 16.0007 99.8797 16.2807 99.8797 16.598C99.8797 16.906 99.945 17.186 100.076 17.438C100.206 17.6807 100.388 17.872 100.622 18.012C100.855 18.1427 101.121 18.208 101.42 18.208ZM112.166 20.154C111.466 20.154 110.831 20 110.262 19.692C109.693 19.384 109.245 18.9593 108.918 18.418C108.591 17.8767 108.428 17.27 108.428 16.598C108.428 15.9167 108.591 15.31 108.918 14.778C109.254 14.2367 109.707 13.812 110.276 13.504C110.845 13.196 111.485 13.042 112.194 13.042C112.726 13.042 113.211 13.1353 113.65 13.322C114.098 13.4993 114.495 13.77 114.84 14.134L113.468 15.506C113.309 15.3287 113.123 15.198 112.908 15.114C112.703 15.03 112.465 14.988 112.194 14.988C111.886 14.988 111.611 15.058 111.368 15.198C111.135 15.3287 110.948 15.5153 110.808 15.758C110.677 15.9913 110.612 16.2667 110.612 16.584C110.612 16.9013 110.677 17.1813 110.808 17.424C110.948 17.6667 111.139 17.858 111.382 17.998C111.625 18.138 111.895 18.208 112.194 18.208C112.474 18.208 112.721 18.1613 112.936 18.068C113.16 17.9653 113.351 17.8253 113.51 17.648L114.868 19.02C114.513 19.3933 114.112 19.678 113.664 19.874C113.216 20.0607 112.717 20.154 112.166 20.154ZM118.933 20.154C118.233 20.154 117.599 20 117.029 19.692C116.469 19.3747 116.026 18.9453 115.699 18.404C115.373 17.8627 115.209 17.256 115.209 16.584C115.209 15.912 115.373 15.31 115.699 14.778C116.026 14.246 116.469 13.826 117.029 13.518C117.589 13.2007 118.224 13.042 118.933 13.042C119.643 13.042 120.277 13.196 120.837 13.504C121.397 13.812 121.841 14.2367 122.167 14.778C122.494 15.31 122.657 15.912 122.657 16.584C122.657 17.256 122.494 17.8627 122.167 18.404C121.841 18.9453 121.397 19.3747 120.837 19.692C120.277 20 119.643 20.154 118.933 20.154ZM118.933 18.208C119.241 18.208 119.512 18.1427 119.745 18.012C119.979 17.872 120.156 17.6807 120.277 17.438C120.408 17.186 120.473 16.9013 120.473 16.584C120.473 16.2667 120.408 15.9913 120.277 15.758C120.147 15.5153 119.965 15.3287 119.731 15.198C119.507 15.058 119.241 14.988 118.933 14.988C118.635 14.988 118.369 15.058 118.135 15.198C117.902 15.3287 117.72 15.5153 117.589 15.758C117.459 16.0007 117.393 16.2807 117.393 16.598C117.393 16.906 117.459 17.186 117.589 17.438C117.72 17.6807 117.902 17.872 118.135 18.012C118.369 18.1427 118.635 18.208 118.933 18.208ZM123.724 20V13.196H125.866V20H123.724ZM128.078 20V16.024C128.078 15.6787 127.97 15.4127 127.756 15.226C127.55 15.03 127.294 14.932 126.986 14.932C126.771 14.932 126.58 14.9787 126.412 15.072C126.244 15.156 126.108 15.2773 126.006 15.436C125.912 15.5947 125.866 15.7907 125.866 16.024L125.04 15.66C125.04 15.1187 125.156 14.6567 125.39 14.274C125.623 13.882 125.94 13.5833 126.342 13.378C126.743 13.1633 127.196 13.056 127.7 13.056C128.176 13.056 128.6 13.1633 128.974 13.378C129.356 13.5927 129.66 13.8913 129.884 14.274C130.108 14.6567 130.22 15.114 130.22 15.646V20H128.078ZM132.432 20V16.024C132.432 15.6787 132.324 15.4127 132.11 15.226C131.904 15.03 131.648 14.932 131.34 14.932C131.125 14.932 130.934 14.9787 130.766 15.072C130.598 15.156 130.462 15.2773 130.36 15.436C130.266 15.5947 130.22 15.7907 130.22 16.024L128.988 15.856C129.006 15.2773 129.142 14.7827 129.394 14.372C129.655 13.952 129.996 13.63 130.416 13.406C130.845 13.1727 131.326 13.056 131.858 13.056C132.38 13.056 132.842 13.168 133.244 13.392C133.654 13.6067 133.976 13.9193 134.21 14.33C134.452 14.7313 134.574 15.2167 134.574 15.786V20H132.432ZM135.946 20V13.196H138.088V20H135.946ZM140.3 20V16.024C140.3 15.6787 140.193 15.4127 139.978 15.226C139.773 15.03 139.516 14.932 139.208 14.932C138.994 14.932 138.802 14.9787 138.634 15.072C138.466 15.156 138.331 15.2773 138.228 15.436C138.135 15.5947 138.088 15.7907 138.088 16.024L137.262 15.66C137.262 15.1187 137.379 14.6567 137.612 14.274C137.846 13.882 138.163 13.5833 138.564 13.378C138.966 13.1633 139.418 13.056 139.922 13.056C140.398 13.056 140.823 13.1633 141.196 13.378C141.579 13.5927 141.882 13.8913 142.106 14.274C142.33 14.6567 142.442 15.114 142.442 15.646V20H140.3ZM144.654 20V16.024C144.654 15.6787 144.547 15.4127 144.332 15.226C144.127 15.03 143.87 14.932 143.562 14.932C143.348 14.932 143.156 14.9787 142.988 15.072C142.82 15.156 142.685 15.2773 142.582 15.436C142.489 15.5947 142.442 15.7907 142.442 16.024L141.21 15.856C141.229 15.2773 141.364 14.7827 141.616 14.372C141.878 13.952 142.218 13.63 142.638 13.406C143.068 13.1727 143.548 13.056 144.08 13.056C144.603 13.056 145.065 13.168 145.466 13.392C145.877 13.6067 146.199 13.9193 146.432 14.33C146.675 14.7313 146.796 15.2167 146.796 15.786V20H144.654ZM148.169 20V13.196H150.311V20H148.169ZM149.247 12.258C148.911 12.258 148.631 12.146 148.407 11.922C148.192 11.6887 148.085 11.4087 148.085 11.082C148.085 10.746 148.192 10.466 148.407 10.242C148.631 10.018 148.911 9.906 149.247 9.906C149.583 9.906 149.858 10.018 150.073 10.242C150.288 10.466 150.395 10.746 150.395 11.082C150.395 11.4087 150.288 11.6887 150.073 11.922C149.858 12.146 149.583 12.258 149.247 12.258ZM152.785 20V10.382H154.927V20H152.785ZM151.245 15.016V13.196H156.467V15.016H151.245ZM158.277 20.154C157.913 20.154 157.609 20.028 157.367 19.776C157.124 19.524 157.003 19.2207 157.003 18.866C157.003 18.4927 157.124 18.1847 157.367 17.942C157.609 17.69 157.913 17.564 158.277 17.564C158.65 17.564 158.953 17.69 159.187 17.942C159.429 18.1847 159.551 18.4927 159.551 18.866C159.551 19.2207 159.429 19.524 159.187 19.776C158.953 20.028 158.65 20.154 158.277 20.154ZM168.844 20.14C168.144 20.14 167.495 20.014 166.898 19.762C166.301 19.5007 165.778 19.1413 165.33 18.684C164.891 18.2267 164.551 17.6947 164.308 17.088C164.065 16.4813 163.944 15.8327 163.944 15.142C163.944 14.442 164.065 13.7887 164.308 13.182C164.551 12.5753 164.891 12.048 165.33 11.6C165.778 11.1427 166.296 10.788 166.884 10.536C167.481 10.2747 168.13 10.144 168.83 10.144C169.595 10.144 170.267 10.2747 170.846 10.536C171.425 10.7973 171.938 11.152 172.386 11.6L171.476 12.51C171.168 12.1647 170.79 11.894 170.342 11.698C169.903 11.502 169.399 11.404 168.83 11.404C168.317 11.404 167.845 11.4973 167.416 11.684C166.987 11.8613 166.613 12.118 166.296 12.454C165.979 12.79 165.731 13.1867 165.554 13.644C165.386 14.1013 165.302 14.6007 165.302 15.142C165.302 15.6833 165.386 16.1827 165.554 16.64C165.731 17.0973 165.979 17.494 166.296 17.83C166.613 18.166 166.987 18.4273 167.416 18.614C167.845 18.7913 168.317 18.88 168.83 18.88C169.437 18.88 169.964 18.782 170.412 18.586C170.86 18.3807 171.238 18.1053 171.546 17.76L172.456 18.656C172.008 19.1227 171.481 19.4867 170.874 19.748C170.277 20.0093 169.6 20.14 168.844 20.14ZM176.654 20.14C176.001 20.14 175.413 19.986 174.89 19.678C174.368 19.37 173.952 18.9547 173.644 18.432C173.336 17.9 173.182 17.3073 173.182 16.654C173.182 16.01 173.336 15.4313 173.644 14.918C173.952 14.3953 174.368 13.98 174.89 13.672C175.413 13.364 176.001 13.21 176.654 13.21C177.298 13.21 177.882 13.364 178.404 13.672C178.936 13.9707 179.356 14.3813 179.664 14.904C179.972 15.4267 180.126 16.01 180.126 16.654C180.126 17.3073 179.972 17.9 179.664 18.432C179.356 18.9547 178.936 19.37 178.404 19.678C177.882 19.986 177.298 20.14 176.654 20.14ZM176.654 18.922C177.074 18.922 177.448 18.824 177.774 18.628C178.101 18.432 178.358 18.166 178.544 17.83C178.731 17.4847 178.824 17.0927 178.824 16.654C178.824 16.2247 178.726 15.842 178.53 15.506C178.344 15.17 178.087 14.9087 177.76 14.722C177.443 14.526 177.074 14.428 176.654 14.428C176.234 14.428 175.861 14.526 175.534 14.722C175.208 14.9087 174.951 15.17 174.764 15.506C174.578 15.842 174.484 16.2247 174.484 16.654C174.484 17.0927 174.578 17.4847 174.764 17.83C174.951 18.166 175.208 18.432 175.534 18.628C175.861 18.824 176.234 18.922 176.654 18.922ZM181.546 20V13.35H182.806V20H181.546ZM186.04 20V15.982C186.04 15.4873 185.886 15.1 185.578 14.82C185.279 14.5307 184.901 14.386 184.444 14.386C184.136 14.386 183.861 14.4513 183.618 14.582C183.375 14.7127 183.179 14.8947 183.03 15.128C182.881 15.3613 182.806 15.6413 182.806 15.968L182.288 15.716C182.288 15.212 182.395 14.7733 182.61 14.4C182.834 14.0267 183.137 13.7373 183.52 13.532C183.903 13.3173 184.332 13.21 184.808 13.21C185.275 13.21 185.695 13.3127 186.068 13.518C186.451 13.7233 186.749 14.0127 186.964 14.386C187.188 14.7593 187.3 15.2027 187.3 15.716V20H186.04ZM190.534 20V15.982C190.534 15.4873 190.38 15.1 190.072 14.82C189.773 14.5307 189.4 14.386 188.952 14.386C188.644 14.386 188.364 14.4513 188.112 14.582C187.869 14.7127 187.673 14.8947 187.524 15.128C187.375 15.3613 187.3 15.6413 187.3 15.968L186.586 15.716C186.614 15.2027 186.749 14.764 186.992 14.4C187.244 14.0267 187.566 13.7373 187.958 13.532C188.35 13.3173 188.779 13.21 189.246 13.21C189.731 13.21 190.165 13.3127 190.548 13.518C190.931 13.7233 191.234 14.0127 191.458 14.386C191.691 14.7593 191.808 15.2073 191.808 15.73V20H190.534ZM193.523 20V13.35H194.783V20H193.523ZM198.017 20V15.982C198.017 15.4873 197.863 15.1 197.555 14.82C197.256 14.5307 196.878 14.386 196.421 14.386C196.113 14.386 195.837 14.4513 195.595 14.582C195.352 14.7127 195.156 14.8947 195.007 15.128C194.857 15.3613 194.783 15.6413 194.783 15.968L194.265 15.716C194.265 15.212 194.372 14.7733 194.587 14.4C194.811 14.0267 195.114 13.7373 195.497 13.532C195.879 13.3173 196.309 13.21 196.785 13.21C197.251 13.21 197.671 13.3127 198.045 13.518C198.427 13.7233 198.726 14.0127 198.941 14.386C199.165 14.7593 199.277 15.2027 199.277 15.716V20H198.017ZM202.511 20V15.982C202.511 15.4873 202.357 15.1 202.049 14.82C201.75 14.5307 201.377 14.386 200.929 14.386C200.621 14.386 200.341 14.4513 200.089 14.582C199.846 14.7127 199.65 14.8947 199.501 15.128C199.351 15.3613 199.277 15.6413 199.277 15.968L198.563 15.716C198.591 15.2027 198.726 14.764 198.969 14.4C199.221 14.0267 199.543 13.7373 199.935 13.532C200.327 13.3173 200.756 13.21 201.223 13.21C201.708 13.21 202.142 13.3127 202.525 13.518C202.907 13.7233 203.211 14.0127 203.435 14.386C203.668 14.7593 203.785 15.2073 203.785 15.73V20H202.511ZM205.513 20V13.35H206.773V20H205.513ZM206.143 12.02C205.91 12.02 205.719 11.9453 205.569 11.796C205.42 11.6373 205.345 11.4413 205.345 11.208C205.345 10.984 205.42 10.7973 205.569 10.648C205.719 10.4893 205.91 10.41 206.143 10.41C206.377 10.41 206.568 10.4893 206.717 10.648C206.867 10.7973 206.941 10.984 206.941 11.208C206.941 11.4413 206.867 11.6373 206.717 11.796C206.568 11.9453 206.377 12.02 206.143 12.02ZM209.652 20V10.564H210.912V20H209.652ZM208.014 14.498V13.35H216.512V14.498H208.014ZM213.614 20V10.564H214.874V20H213.614ZM217.763 20V13.35H219.023V20H217.763ZM218.393 12.02C218.16 12.02 217.969 11.9453 217.819 11.796C217.67 11.6373 217.595 11.4413 217.595 11.208C217.595 10.984 217.67 10.7973 217.819 10.648C217.969 10.4893 218.16 10.41 218.393 10.41C218.627 10.41 218.818 10.4893 218.967 10.648C219.117 10.7973 219.191 10.984 219.191 11.208C219.191 11.4413 219.117 11.6373 218.967 11.796C218.818 11.9453 218.627 12.02 218.393 12.02ZM225.584 20V16.122C225.584 15.618 225.425 15.2027 225.108 14.876C224.791 14.5493 224.38 14.386 223.876 14.386C223.54 14.386 223.241 14.4607 222.98 14.61C222.719 14.7593 222.513 14.9647 222.364 15.226C222.215 15.4873 222.14 15.786 222.14 16.122L221.622 15.828C221.622 15.324 221.734 14.876 221.958 14.484C222.182 14.092 222.495 13.784 222.896 13.56C223.297 13.3267 223.75 13.21 224.254 13.21C224.758 13.21 225.201 13.336 225.584 13.588C225.976 13.84 226.284 14.1713 226.508 14.582C226.732 14.9833 226.844 15.4127 226.844 15.87V20H225.584ZM220.88 20V13.35H222.14V20H220.88ZM231.308 22.926C230.627 22.926 230.02 22.8 229.488 22.548C228.965 22.296 228.545 21.9413 228.228 21.484L229.04 20.658C229.311 21.0033 229.633 21.2647 230.006 21.442C230.379 21.6287 230.823 21.722 231.336 21.722C232.017 21.722 232.554 21.54 232.946 21.176C233.347 20.8213 233.548 20.3407 233.548 19.734V18.082L233.772 16.584L233.548 15.1V13.35H234.808V19.734C234.808 20.3687 234.659 20.924 234.36 21.4C234.071 21.876 233.66 22.2493 233.128 22.52C232.605 22.7907 231.999 22.926 231.308 22.926ZM231.308 19.888C230.701 19.888 230.155 19.7433 229.67 19.454C229.194 19.1647 228.816 18.768 228.536 18.264C228.256 17.7507 228.116 17.1767 228.116 16.542C228.116 15.9073 228.256 15.3427 228.536 14.848C228.816 14.344 229.194 13.9473 229.67 13.658C230.155 13.3593 230.701 13.21 231.308 13.21C231.831 13.21 232.293 13.3127 232.694 13.518C233.095 13.7233 233.413 14.0127 233.646 14.386C233.889 14.75 234.019 15.1793 234.038 15.674V17.438C234.01 17.9233 233.875 18.3527 233.632 18.726C233.399 19.09 233.081 19.3747 232.68 19.58C232.279 19.7853 231.821 19.888 231.308 19.888ZM231.56 18.698C231.971 18.698 232.33 18.6093 232.638 18.432C232.955 18.2547 233.198 18.0073 233.366 17.69C233.534 17.3633 233.618 16.9853 233.618 16.556C233.618 16.1267 233.529 15.7533 233.352 15.436C233.184 15.1093 232.946 14.8573 232.638 14.68C232.33 14.4933 231.966 14.4 231.546 14.4C231.126 14.4 230.757 14.4933 230.44 14.68C230.123 14.8573 229.871 15.1093 229.684 15.436C229.507 15.7533 229.418 16.122 229.418 16.542C229.418 16.962 229.507 17.3353 229.684 17.662C229.871 17.9887 230.123 18.2453 230.44 18.432C230.767 18.6093 231.14 18.698 231.56 18.698ZM240.592 20V10.564H241.852V20H240.592ZM238.954 14.498V13.35H243.49V14.498H238.954ZM247.557 20.14C246.903 20.14 246.315 19.986 245.793 19.678C245.27 19.37 244.855 18.9547 244.547 18.432C244.239 17.9 244.085 17.3073 244.085 16.654C244.085 16.01 244.239 15.4313 244.547 14.918C244.855 14.3953 245.27 13.98 245.793 13.672C246.315 13.364 246.903 13.21 247.557 13.21C248.201 13.21 248.784 13.364 249.307 13.672C249.839 13.9707 250.259 14.3813 250.567 14.904C250.875 15.4267 251.029 16.01 251.029 16.654C251.029 17.3073 250.875 17.9 250.567 18.432C250.259 18.9547 249.839 19.37 249.307 19.678C248.784 19.986 248.201 20.14 247.557 20.14ZM247.557 18.922C247.977 18.922 248.35 18.824 248.677 18.628C249.003 18.432 249.26 18.166 249.447 17.83C249.633 17.4847 249.727 17.0927 249.727 16.654C249.727 16.2247 249.629 15.842 249.433 15.506C249.246 15.17 248.989 14.9087 248.663 14.722C248.345 14.526 247.977 14.428 247.557 14.428C247.137 14.428 246.763 14.526 246.437 14.722C246.11 14.9087 245.853 15.17 245.667 15.506C245.48 15.842 245.387 16.2247 245.387 16.654C245.387 17.0927 245.48 17.4847 245.667 17.83C245.853 18.166 246.11 18.432 246.437 18.628C246.763 18.824 247.137 18.922 247.557 18.922ZM258.119 22.926C257.437 22.926 256.831 22.8 256.299 22.548C255.776 22.296 255.356 21.9413 255.039 21.484L255.851 20.658C256.121 21.0033 256.443 21.2647 256.817 21.442C257.19 21.6287 257.633 21.722 258.147 21.722C258.828 21.722 259.365 21.54 259.757 21.176C260.158 20.8213 260.359 20.3407 260.359 19.734V18.082L260.583 16.584L260.359 15.1V13.35H261.619V19.734C261.619 20.3687 261.469 20.924 261.171 21.4C260.881 21.876 260.471 22.2493 259.939 22.52C259.416 22.7907 258.809 22.926 258.119 22.926ZM258.119 19.888C257.512 19.888 256.966 19.7433 256.481 19.454C256.005 19.1647 255.627 18.768 255.347 18.264C255.067 17.7507 254.927 17.1767 254.927 16.542C254.927 15.9073 255.067 15.3427 255.347 14.848C255.627 14.344 256.005 13.9473 256.481 13.658C256.966 13.3593 257.512 13.21 258.119 13.21C258.641 13.21 259.103 13.3127 259.505 13.518C259.906 13.7233 260.223 14.0127 260.457 14.386C260.699 14.75 260.83 15.1793 260.849 15.674V17.438C260.821 17.9233 260.685 18.3527 260.443 18.726C260.209 19.09 259.892 19.3747 259.491 19.58C259.089 19.7853 258.632 19.888 258.119 19.888ZM258.371 18.698C258.781 18.698 259.141 18.6093 259.449 18.432C259.766 18.2547 260.009 18.0073 260.177 17.69C260.345 17.3633 260.429 16.9853 260.429 16.556C260.429 16.1267 260.34 15.7533 260.163 15.436C259.995 15.1093 259.757 14.8573 259.449 14.68C259.141 14.4933 258.777 14.4 258.357 14.4C257.937 14.4 257.568 14.4933 257.251 14.68C256.933 14.8573 256.681 15.1093 256.495 15.436C256.317 15.7533 256.229 16.122 256.229 16.542C256.229 16.962 256.317 17.3353 256.495 17.662C256.681 17.9887 256.933 18.2453 257.251 18.432C257.577 18.6093 257.951 18.698 258.371 18.698ZM266.506 20.14C265.853 20.14 265.265 19.986 264.742 19.678C264.219 19.37 263.804 18.9547 263.496 18.432C263.188 17.9 263.034 17.3073 263.034 16.654C263.034 16.01 263.188 15.4313 263.496 14.918C263.804 14.3953 264.219 13.98 264.742 13.672C265.265 13.364 265.853 13.21 266.506 13.21C267.15 13.21 267.733 13.364 268.256 13.672C268.788 13.9707 269.208 14.3813 269.516 14.904C269.824 15.4267 269.978 16.01 269.978 16.654C269.978 17.3073 269.824 17.9 269.516 18.432C269.208 18.9547 268.788 19.37 268.256 19.678C267.733 19.986 267.15 20.14 266.506 20.14ZM266.506 18.922C266.926 18.922 267.299 18.824 267.626 18.628C267.953 18.432 268.209 18.166 268.396 17.83C268.583 17.4847 268.676 17.0927 268.676 16.654C268.676 16.2247 268.578 15.842 268.382 15.506C268.195 15.17 267.939 14.9087 267.612 14.722C267.295 14.526 266.926 14.428 266.506 14.428C266.086 14.428 265.713 14.526 265.386 14.722C265.059 14.9087 264.803 15.17 264.616 15.506C264.429 15.842 264.336 16.2247 264.336 16.654C264.336 17.0927 264.429 17.4847 264.616 17.83C264.803 18.166 265.059 18.432 265.386 18.628C265.713 18.824 266.086 18.922 266.506 18.922ZM274.226 20.14C273.619 20.14 273.068 19.9907 272.574 19.692C272.079 19.384 271.687 18.9687 271.398 18.446C271.118 17.9233 270.978 17.3353 270.978 16.682C270.978 16.0287 271.118 15.4407 271.398 14.918C271.687 14.3953 272.074 13.98 272.56 13.672C273.054 13.364 273.61 13.21 274.226 13.21C274.73 13.21 275.178 13.3173 275.57 13.532C275.971 13.7373 276.293 14.0267 276.536 14.4C276.778 14.764 276.914 15.1887 276.942 15.674V17.676C276.914 18.152 276.778 18.5767 276.536 18.95C276.302 19.3233 275.985 19.6173 275.584 19.832C275.192 20.0373 274.739 20.14 274.226 20.14ZM274.436 18.95C275.061 18.95 275.565 18.74 275.948 18.32C276.33 17.8907 276.522 17.3447 276.522 16.682C276.522 16.2247 276.433 15.828 276.256 15.492C276.088 15.1467 275.845 14.8807 275.528 14.694C275.21 14.498 274.842 14.4 274.422 14.4C274.002 14.4 273.628 14.498 273.302 14.694C272.984 14.89 272.732 15.1607 272.546 15.506C272.368 15.842 272.28 16.2293 272.28 16.668C272.28 17.116 272.368 17.5127 272.546 17.858C272.732 18.194 272.989 18.46 273.316 18.656C273.642 18.852 274.016 18.95 274.436 18.95ZM276.438 20V18.208L276.676 16.584L276.438 14.974V13.35H277.712V20H276.438ZM279.546 20V10.004H280.806V20H279.546ZM284.764 20.14C284.39 20.14 284.036 20.0933 283.7 20C283.373 19.8973 283.07 19.7573 282.79 19.58C282.51 19.3933 282.267 19.174 282.062 18.922L282.874 18.11C283.116 18.4087 283.396 18.6327 283.714 18.782C284.031 18.922 284.386 18.992 284.778 18.992C285.17 18.992 285.473 18.9267 285.688 18.796C285.902 18.656 286.01 18.4647 286.01 18.222C286.01 17.9793 285.921 17.7927 285.744 17.662C285.576 17.522 285.356 17.41 285.086 17.326C284.815 17.2327 284.526 17.144 284.218 17.06C283.919 16.9667 283.634 16.85 283.364 16.71C283.093 16.57 282.869 16.3787 282.692 16.136C282.524 15.8933 282.44 15.5713 282.44 15.17C282.44 14.7687 282.538 14.4233 282.734 14.134C282.93 13.8353 283.2 13.6067 283.546 13.448C283.9 13.2893 284.325 13.21 284.82 13.21C285.342 13.21 285.804 13.3033 286.206 13.49C286.616 13.6673 286.952 13.938 287.214 14.302L286.402 15.114C286.215 14.8713 285.982 14.6847 285.702 14.554C285.431 14.4233 285.123 14.358 284.778 14.358C284.414 14.358 284.134 14.4233 283.938 14.554C283.751 14.6753 283.658 14.848 283.658 15.072C283.658 15.296 283.742 15.4687 283.91 15.59C284.078 15.7113 284.297 15.814 284.568 15.898C284.848 15.982 285.137 16.0707 285.436 16.164C285.734 16.248 286.019 16.3647 286.29 16.514C286.56 16.6633 286.78 16.864 286.948 17.116C287.125 17.368 287.214 17.6993 287.214 18.11C287.214 18.7353 286.99 19.23 286.542 19.594C286.103 19.958 285.51 20.14 284.764 20.14ZM123.509 40.14C123.005 40.14 122.548 40.0373 122.137 39.832C121.736 39.6173 121.414 39.3233 121.171 38.95C120.928 38.5767 120.793 38.152 120.765 37.676V35.674C120.793 35.1887 120.928 34.764 121.171 34.4C121.423 34.0267 121.75 33.7373 122.151 33.532C122.562 33.3173 123.014 33.21 123.509 33.21C124.116 33.21 124.662 33.364 125.147 33.672C125.642 33.98 126.029 34.3953 126.309 34.918C126.589 35.4407 126.729 36.0287 126.729 36.682C126.729 37.3353 126.589 37.9233 126.309 38.446C126.029 38.9687 125.642 39.384 125.147 39.692C124.662 39.9907 124.116 40.14 123.509 40.14ZM120.009 40V30.004H121.269V34.974L121.031 36.584L121.269 38.208V40H120.009ZM123.299 38.95C123.719 38.95 124.088 38.852 124.405 38.656C124.722 38.46 124.974 38.194 125.161 37.858C125.348 37.5127 125.441 37.116 125.441 36.668C125.441 36.2293 125.348 35.8373 125.161 35.492C124.974 35.1467 124.722 34.8807 124.405 34.694C124.088 34.498 123.724 34.4 123.313 34.4C122.893 34.4 122.524 34.498 122.207 34.694C121.89 34.8807 121.642 35.1467 121.465 35.492C121.288 35.8373 121.199 36.234 121.199 36.682C121.199 37.1207 121.283 37.5127 121.451 37.858C121.628 38.194 121.876 38.46 122.193 38.656C122.52 38.852 122.888 38.95 123.299 38.95ZM131.195 40.14C130.542 40.14 129.954 39.986 129.431 39.678C128.909 39.37 128.493 38.9547 128.185 38.432C127.877 37.9 127.723 37.3073 127.723 36.654C127.723 36.01 127.877 35.4313 128.185 34.918C128.493 34.3953 128.909 33.98 129.431 33.672C129.954 33.364 130.542 33.21 131.195 33.21C131.839 33.21 132.423 33.364 132.945 33.672C133.477 33.9707 133.897 34.3813 134.205 34.904C134.513 35.4267 134.667 36.01 134.667 36.654C134.667 37.3073 134.513 37.9 134.205 38.432C133.897 38.9547 133.477 39.37 132.945 39.678C132.423 39.986 131.839 40.14 131.195 40.14ZM131.195 38.922C131.615 38.922 131.989 38.824 132.315 38.628C132.642 38.432 132.899 38.166 133.085 37.83C133.272 37.4847 133.365 37.0927 133.365 36.654C133.365 36.2247 133.267 35.842 133.071 35.506C132.885 35.17 132.628 34.9087 132.301 34.722C131.984 34.526 131.615 34.428 131.195 34.428C130.775 34.428 130.402 34.526 130.075 34.722C129.749 34.9087 129.492 35.17 129.305 35.506C129.119 35.842 129.025 36.2247 129.025 36.654C129.025 37.0927 129.119 37.4847 129.305 37.83C129.492 38.166 129.749 38.432 130.075 38.628C130.402 38.824 130.775 38.922 131.195 38.922ZM139.125 40.14C138.472 40.14 137.884 39.986 137.361 39.678C136.838 39.37 136.423 38.9547 136.115 38.432C135.807 37.9 135.653 37.3073 135.653 36.654C135.653 36.01 135.807 35.4313 136.115 34.918C136.423 34.3953 136.838 33.98 137.361 33.672C137.884 33.364 138.472 33.21 139.125 33.21C139.769 33.21 140.352 33.364 140.875 33.672C141.407 33.9707 141.827 34.3813 142.135 34.904C142.443 35.4267 142.597 36.01 142.597 36.654C142.597 37.3073 142.443 37.9 142.135 38.432C141.827 38.9547 141.407 39.37 140.875 39.678C140.352 39.986 139.769 40.14 139.125 40.14ZM139.125 38.922C139.545 38.922 139.918 38.824 140.245 38.628C140.572 38.432 140.828 38.166 141.015 37.83C141.202 37.4847 141.295 37.0927 141.295 36.654C141.295 36.2247 141.197 35.842 141.001 35.506C140.814 35.17 140.558 34.9087 140.231 34.722C139.914 34.526 139.545 34.428 139.125 34.428C138.705 34.428 138.332 34.526 138.005 34.722C137.678 34.9087 137.422 35.17 137.235 35.506C137.048 35.842 136.955 36.2247 136.955 36.654C136.955 37.0927 137.048 37.4847 137.235 37.83C137.422 38.166 137.678 38.432 138.005 38.628C138.332 38.824 138.705 38.922 139.125 38.922ZM146.131 40.14C145.757 40.14 145.403 40.0933 145.067 40C144.74 39.8973 144.437 39.7573 144.157 39.58C143.877 39.3933 143.634 39.174 143.429 38.922L144.241 38.11C144.483 38.4087 144.763 38.6327 145.081 38.782C145.398 38.922 145.753 38.992 146.145 38.992C146.537 38.992 146.84 38.9267 147.055 38.796C147.269 38.656 147.377 38.4647 147.377 38.222C147.377 37.9793 147.288 37.7927 147.111 37.662C146.943 37.522 146.723 37.41 146.453 37.326C146.182 37.2327 145.893 37.144 145.585 37.06C145.286 36.9667 145.001 36.85 144.731 36.71C144.46 36.57 144.236 36.3787 144.059 36.136C143.891 35.8933 143.807 35.5713 143.807 35.17C143.807 34.7687 143.905 34.4233 144.101 34.134C144.297 33.8353 144.567 33.6067 144.913 33.448C145.267 33.2893 145.692 33.21 146.187 33.21C146.709 33.21 147.171 33.3033 147.573 33.49C147.983 33.6673 148.319 33.938 148.581 34.302L147.769 35.114C147.582 34.8713 147.349 34.6847 147.069 34.554C146.798 34.4233 146.49 34.358 146.145 34.358C145.781 34.358 145.501 34.4233 145.305 34.554C145.118 34.6753 145.025 34.848 145.025 35.072C145.025 35.296 145.109 35.4687 145.277 35.59C145.445 35.7113 145.664 35.814 145.935 35.898C146.215 35.982 146.504 36.0707 146.803 36.164C147.101 36.248 147.386 36.3647 147.657 36.514C147.927 36.6633 148.147 36.864 148.315 37.116C148.492 37.368 148.581 37.6993 148.581 38.11C148.581 38.7353 148.357 39.23 147.909 39.594C147.47 39.958 146.877 40.14 146.131 40.14ZM151.013 40V30.564H152.273V40H151.013ZM149.375 34.498V33.35H153.911V34.498H149.375ZM157.123 40.14C156.75 40.14 156.395 40.0933 156.059 40C155.732 39.8973 155.429 39.7573 155.149 39.58C154.869 39.3933 154.626 39.174 154.421 38.922L155.233 38.11C155.476 38.4087 155.756 38.6327 156.073 38.782C156.39 38.922 156.745 38.992 157.137 38.992C157.529 38.992 157.832 38.9267 158.047 38.796C158.262 38.656 158.369 38.4647 158.369 38.222C158.369 37.9793 158.28 37.7927 158.103 37.662C157.935 37.522 157.716 37.41 157.445 37.326C157.174 37.2327 156.885 37.144 156.577 37.06C156.278 36.9667 155.994 36.85 155.723 36.71C155.452 36.57 155.228 36.3787 155.051 36.136C154.883 35.8933 154.799 35.5713 154.799 35.17C154.799 34.7687 154.897 34.4233 155.093 34.134C155.289 33.8353 155.56 33.6067 155.905 33.448C156.26 33.2893 156.684 33.21 157.179 33.21C157.702 33.21 158.164 33.3033 158.565 33.49C158.976 33.6673 159.312 33.938 159.573 34.302L158.761 35.114C158.574 34.8713 158.341 34.6847 158.061 34.554C157.79 34.4233 157.482 34.358 157.137 34.358C156.773 34.358 156.493 34.4233 156.297 34.554C156.11 34.6753 156.017 34.848 156.017 35.072C156.017 35.296 156.101 35.4687 156.269 35.59C156.437 35.7113 156.656 35.814 156.927 35.898C157.207 35.982 157.496 36.0707 157.795 36.164C158.094 36.248 158.378 36.3647 158.649 36.514C158.92 36.6633 159.139 36.864 159.307 37.116C159.484 37.368 159.573 37.6993 159.573 38.11C159.573 38.7353 159.349 39.23 158.901 39.594C158.462 39.958 157.87 40.14 157.123 40.14ZM163.896 40V33.35H165.156V40H163.896ZM168.39 40V35.982C168.39 35.4873 168.236 35.1 167.928 34.82C167.629 34.5307 167.251 34.386 166.794 34.386C166.486 34.386 166.21 34.4513 165.968 34.582C165.725 34.7127 165.529 34.8947 165.38 35.128C165.23 35.3613 165.156 35.6413 165.156 35.968L164.638 35.716C164.638 35.212 164.745 34.7733 164.96 34.4C165.184 34.0267 165.487 33.7373 165.87 33.532C166.252 33.3173 166.682 33.21 167.158 33.21C167.624 33.21 168.044 33.3127 168.418 33.518C168.8 33.7233 169.099 34.0127 169.314 34.386C169.538 34.7593 169.65 35.2027 169.65 35.716V40H168.39ZM172.884 40V35.982C172.884 35.4873 172.73 35.1 172.422 34.82C172.123 34.5307 171.75 34.386 171.302 34.386C170.994 34.386 170.714 34.4513 170.462 34.582C170.219 34.7127 170.023 34.8947 169.874 35.128C169.724 35.3613 169.65 35.6413 169.65 35.968L168.936 35.716C168.964 35.2027 169.099 34.764 169.342 34.4C169.594 34.0267 169.916 33.7373 170.308 33.532C170.7 33.3173 171.129 33.21 171.596 33.21C172.081 33.21 172.515 33.3127 172.898 33.518C173.28 33.7233 173.584 34.0127 173.808 34.386C174.041 34.7593 174.158 35.2073 174.158 35.73V40H172.884ZM178.91 40.14C178.257 40.14 177.669 39.986 177.146 39.678C176.624 39.37 176.208 38.9547 175.9 38.432C175.592 37.9 175.438 37.3073 175.438 36.654C175.438 36.01 175.592 35.4313 175.9 34.918C176.208 34.3953 176.624 33.98 177.146 33.672C177.669 33.364 178.257 33.21 178.91 33.21C179.554 33.21 180.138 33.364 180.66 33.672C181.192 33.9707 181.612 34.3813 181.92 34.904C182.228 35.4267 182.382 36.01 182.382 36.654C182.382 37.3073 182.228 37.9 181.92 38.432C181.612 38.9547 181.192 39.37 180.66 39.678C180.138 39.986 179.554 40.14 178.91 40.14ZM178.91 38.922C179.33 38.922 179.704 38.824 180.03 38.628C180.357 38.432 180.614 38.166 180.8 37.83C180.987 37.4847 181.08 37.0927 181.08 36.654C181.08 36.2247 180.982 35.842 180.786 35.506C180.6 35.17 180.343 34.9087 180.016 34.722C179.699 34.526 179.33 34.428 178.91 34.428C178.49 34.428 178.117 34.526 177.79 34.722C177.464 34.9087 177.207 35.17 177.02 35.506C176.834 35.842 176.74 36.2247 176.74 36.654C176.74 37.0927 176.834 37.4847 177.02 37.83C177.207 38.166 177.464 38.432 177.79 38.628C178.117 38.824 178.49 38.922 178.91 38.922ZM184.619 40V30.564H185.879V40H184.619ZM182.981 34.498V33.35H187.517V34.498H182.981ZM188.765 40V33.35H190.025V40H188.765ZM189.395 32.02C189.162 32.02 188.97 31.9453 188.821 31.796C188.672 31.6373 188.597 31.4413 188.597 31.208C188.597 30.984 188.672 30.7973 188.821 30.648C188.97 30.4893 189.162 30.41 189.395 30.41C189.628 30.41 189.82 30.4893 189.969 30.648C190.118 30.7973 190.193 30.984 190.193 31.208C190.193 31.4413 190.118 31.6373 189.969 31.796C189.82 31.9453 189.628 32.02 189.395 32.02ZM194.164 40L191.112 33.35H192.512L194.962 38.964H194.15L196.614 33.35H197.958L194.906 40H194.164ZM201.601 40.14C200.994 40.14 200.443 39.9907 199.949 39.692C199.454 39.384 199.062 38.9687 198.773 38.446C198.493 37.9233 198.353 37.3353 198.353 36.682C198.353 36.0287 198.493 35.4407 198.773 34.918C199.062 34.3953 199.449 33.98 199.935 33.672C200.429 33.364 200.985 33.21 201.601 33.21C202.105 33.21 202.553 33.3173 202.945 33.532C203.346 33.7373 203.668 34.0267 203.911 34.4C204.153 34.764 204.289 35.1887 204.317 35.674V37.676C204.289 38.152 204.153 38.5767 203.911 38.95C203.677 39.3233 203.36 39.6173 202.959 39.832C202.567 40.0373 202.114 40.14 201.601 40.14ZM201.811 38.95C202.436 38.95 202.94 38.74 203.323 38.32C203.705 37.8907 203.897 37.3447 203.897 36.682C203.897 36.2247 203.808 35.828 203.631 35.492C203.463 35.1467 203.22 34.8807 202.903 34.694C202.585 34.498 202.217 34.4 201.797 34.4C201.377 34.4 201.003 34.498 200.677 34.694C200.359 34.89 200.107 35.1607 199.921 35.506C199.743 35.842 199.655 36.2293 199.655 36.668C199.655 37.116 199.743 37.5127 199.921 37.858C200.107 38.194 200.364 38.46 200.691 38.656C201.017 38.852 201.391 38.95 201.811 38.95ZM203.813 40V38.208L204.051 36.584L203.813 34.974V33.35H205.087V40H203.813ZM207.916 40V30.564H209.176V40H207.916ZM206.278 34.498V33.35H210.814V34.498H206.278ZM212.062 40V33.35H213.322V40H212.062ZM212.692 32.02C212.459 32.02 212.267 31.9453 212.118 31.796C211.969 31.6373 211.894 31.4413 211.894 31.208C211.894 30.984 211.969 30.7973 212.118 30.648C212.267 30.4893 212.459 30.41 212.692 30.41C212.925 30.41 213.117 30.4893 213.266 30.648C213.415 30.7973 213.49 30.984 213.49 31.208C213.49 31.4413 213.415 31.6373 213.266 31.796C213.117 31.9453 212.925 32.02 212.692 32.02ZM218.217 40.14C217.564 40.14 216.976 39.986 216.453 39.678C215.93 39.37 215.515 38.9547 215.207 38.432C214.899 37.9 214.745 37.3073 214.745 36.654C214.745 36.01 214.899 35.4313 215.207 34.918C215.515 34.3953 215.93 33.98 216.453 33.672C216.976 33.364 217.564 33.21 218.217 33.21C218.861 33.21 219.444 33.364 219.967 33.672C220.499 33.9707 220.919 34.3813 221.227 34.904C221.535 35.4267 221.689 36.01 221.689 36.654C221.689 37.3073 221.535 37.9 221.227 38.432C220.919 38.9547 220.499 39.37 219.967 39.678C219.444 39.986 218.861 40.14 218.217 40.14ZM218.217 38.922C218.637 38.922 219.01 38.824 219.337 38.628C219.664 38.432 219.92 38.166 220.107 37.83C220.294 37.4847 220.387 37.0927 220.387 36.654C220.387 36.2247 220.289 35.842 220.093 35.506C219.906 35.17 219.65 34.9087 219.323 34.722C219.006 34.526 218.637 34.428 218.217 34.428C217.797 34.428 217.424 34.526 217.097 34.722C216.77 34.9087 216.514 35.17 216.327 35.506C216.14 35.842 216.047 36.2247 216.047 36.654C216.047 37.0927 216.14 37.4847 216.327 37.83C216.514 38.166 216.77 38.432 217.097 38.628C217.424 38.824 217.797 38.922 218.217 38.922ZM227.813 40V36.122C227.813 35.618 227.654 35.2027 227.337 34.876C227.019 34.5493 226.609 34.386 226.105 34.386C225.769 34.386 225.47 34.4607 225.209 34.61C224.947 34.7593 224.742 34.9647 224.593 35.226C224.443 35.4873 224.369 35.786 224.369 36.122L223.851 35.828C223.851 35.324 223.963 34.876 224.187 34.484C224.411 34.092 224.723 33.784 225.125 33.56C225.526 33.3267 225.979 33.21 226.483 33.21C226.987 33.21 227.43 33.336 227.813 33.588C228.205 33.84 228.513 34.1713 228.737 34.582C228.961 34.9833 229.073 35.4127 229.073 35.87V40H227.813ZM223.109 40V33.35H224.369V40H223.109ZM231.884 40.14C231.623 40.14 231.404 40.0513 231.226 39.874C231.058 39.6873 230.974 39.468 230.974 39.216C230.974 38.9547 231.058 38.74 231.226 38.572C231.404 38.3947 231.623 38.306 231.884 38.306C232.146 38.306 232.36 38.3947 232.528 38.572C232.706 38.74 232.794 38.9547 232.794 39.216C232.794 39.468 232.706 39.6873 232.528 39.874C232.36 40.0513 232.146 40.14 231.884 40.14Z" fill="#141414"/>
<path fill-rule="evenodd" clip-rule="evenodd" d="M336.935 20.6547C336.617 19.7817 335.383 19.7817 335.065 20.6547L333.622 24.6218L329.655 26.0648C328.782 26.3828 328.782 27.6168 329.655 27.9348L333.622 29.3778L335.065 33.3448C335.383 34.2178 336.617 34.2178 336.935 33.3448L338.378 29.3778L342.345 27.9348C343.218 27.6168 343.218 26.3828 342.345 26.0648L338.378 24.6218L336.935 20.6547Z" fill="url(#paint2_linear_2391_3575)"/>
<path fill-rule="evenodd" clip-rule="evenodd" d="M329.968 12.3274C329.809 11.8909 329.191 11.8909 329.032 12.3274L328.311 14.311L326.327 15.0325C325.891 15.1915 325.891 15.8085 326.327 15.9675L328.311 16.689L329.032 18.6726C329.191 19.1091 329.809 19.1091 329.968 18.6726L330.689 16.689L332.673 15.9675C333.109 15.8085 333.109 15.1915 332.673 15.0325L330.689 14.311L329.968 12.3274Z" fill="url(#paint3_linear_2391_3575)"/>
<path fill-rule="evenodd" clip-rule="evenodd" d="M326.801 33.5612C326.529 32.8129 325.471 32.8129 325.199 33.5612L323.962 36.9616L320.561 38.1985C319.813 38.4711 319.813 39.5289 320.561 39.8015L323.962 41.0384L325.199 44.4388C325.471 45.1871 326.529 45.1871 326.801 44.4388L328.038 41.0384L331.439 39.8015C332.187 39.5289 332.187 38.4711 331.439 38.1985L328.038 36.9616L326.801 33.5612Z" fill="#F7C663"/>
<defs>
<linearGradient id="paint0_linear_2391_3575" x1="13.9998" y1="19" x2="13.9998" y2="32.9995" gradientUnits="userSpaceOnUse">
<stop stop-color="#F7C663"/>
<stop offset="1" stop-color="#F4DEB1"/>
</linearGradient>
<linearGradient id="paint1_linear_2391_3575" x1="20.5" y1="12" x2="20.5" y2="19" gradientUnits="userSpaceOnUse">
<stop stop-color="#FBEFD7"/>
<stop offset="1" stop-color="#F7C663"/>
</linearGradient>
<linearGradient id="paint2_linear_2391_3575" x1="336" y1="20" x2="336" y2="33.9995" gradientUnits="userSpaceOnUse">
<stop stop-color="#F7C663"/>
<stop offset="1" stop-color="#F4DEB1"/>
</linearGradient>
<linearGradient id="paint3_linear_2391_3575" x1="329.5" y1="12" x2="329.5" y2="19" gradientUnits="userSpaceOnUse">
<stop stop-color="#FBEFD7"/>
<stop offset="1" stop-color="#F7C663"/>
</linearGradient>
</defs>
</svg>
