<svg width="208" height="139" viewBox="0 0 208 139" fill="none" xmlns="http://www.w3.org/2000/svg">
<path d="M194.253 33.9067C189.288 26.9425 182.719 21.2767 175.1 17.3888C164.878 12.2026 148.715 5.13619 136.704 5.35251C117.759 5.69085 75.1357 28.9591 52.8492 33.3854C30.5627 37.8116 -2.18209 54.3379 4.63199 87.9784C11.4461 121.619 29.5254 131.65 64.1172 127.224C98.709 122.798 111.023 118.371 139.064 123.968C167.105 129.565 199.334 125.748 202.731 85.6183C205.227 56.2349 201.55 44.096 194.253 33.9067Z" fill="#F7C663"/>
<path opacity="0.7" d="M194.253 33.9067C189.288 26.9425 182.719 21.2767 175.1 17.3888C164.878 12.2026 148.715 5.13619 136.704 5.35251C117.759 5.69085 75.1357 28.9591 52.8492 33.3854C30.5627 37.8116 -2.18209 54.3379 4.63199 87.9784C11.4461 121.619 29.5254 131.65 64.1172 127.224C98.709 122.798 111.023 118.371 139.064 123.968C167.105 129.565 199.334 125.748 202.731 85.6183C205.227 56.2349 201.55 44.096 194.253 33.9067Z" fill="white"/>
<path d="M111.767 56.368C111.767 56.368 120.835 77.9057 123.018 79.0455C125.201 80.1853 189.187 74.6304 189.187 74.6304L187.37 72.6086L187.284 58.6698L189.678 58.5644L165.234 26.3716L110 30.4068C110 30.4068 107.052 32.448 106.641 34.234C106.231 36.02 106.336 38.6907 106.336 38.6907L111.767 56.368Z" fill="#263238"/>
<path d="M125.156 79.3172C123.938 79.3172 123.17 79.2673 122.957 79.1564C120.755 78.0082 112.01 57.2914 111.641 56.415V56.4012L106.197 38.7156V38.6962C106.197 38.6685 106.111 35.9756 106.505 34.2034C106.899 32.4312 109.797 30.3762 109.922 30.2902L109.952 30.2708H109.989L165.292 26.2273L165.336 26.2883L189.947 58.6892L187.423 58.8029L187.509 72.5558L189.475 74.744L189.198 74.7662C186.838 74.9714 136.513 79.3172 125.156 79.3172ZM111.899 56.2985C115.03 63.7339 121.392 78.0165 123.084 78.8984C124.776 79.7804 166.709 76.4163 188.898 74.4916L187.234 72.639V72.5863L187.148 58.5144L189.408 58.4146L165.17 26.5157L110.05 30.5398C109.736 30.7645 107.135 32.6587 106.777 34.2644C106.405 35.9284 106.466 38.4244 106.472 38.6685L111.899 56.2985Z" fill="#263238"/>
<path d="M187.283 58.6697L124.522 63.7227C123.574 64.3484 122.775 65.1756 122.183 66.1454C121.591 67.1152 121.22 68.2036 121.097 69.3331C120.637 73.2519 122.221 77.2316 123.399 77.8029C124.258 78.1703 125.176 78.3798 126.109 78.4214L187.369 72.5974L187.283 58.6697Z" fill="#E0E0E0"/>
<path d="M126.123 78.5627C125.167 78.5226 124.228 78.3083 123.349 77.9304C122.082 77.3147 120.512 73.2158 120.97 69.3331C121.098 68.1836 121.477 67.076 122.078 66.0882C122.68 65.1003 123.491 64.256 124.453 63.6145L124.511 63.5951L187.422 58.5171L187.51 72.7304L187.383 72.7443L126.123 78.5627ZM124.553 63.8641C123.634 64.485 122.861 65.2977 122.287 66.2461C121.712 67.1945 121.35 68.2562 121.225 69.358C120.762 73.3184 122.412 77.1816 123.444 77.678C124.285 78.0369 125.184 78.2417 126.098 78.2826L187.214 72.4808L187.128 58.8166L124.553 63.8641Z" fill="#263238"/>
<path d="M123.414 10.0226L98.0966 44.9804C98.0966 44.9804 96.7099 46.3394 96.782 49.6701C96.8541 53.0009 97.0178 58.4339 98.0078 58.8221C98.9979 59.2104 172.258 64.7571 172.258 64.7571L189.176 25.6891L187.855 25.1345L188.31 15.5027L189.42 12.3854L125.275 9.37915L123.414 10.0226Z" fill="#F7C663"/>
<path d="M172.347 64.8958H172.247C169.254 64.6712 98.9587 59.3297 97.9603 58.947C97.1588 58.6392 96.765 55.8658 96.643 49.6758C96.5764 46.3228 97.9409 44.9417 97.9991 44.8834L123.328 9.90617L125.253 9.23779H125.28L189.602 12.2552L188.449 15.5305L187.994 25.0319L189.353 25.6143L189.297 25.7447L172.347 64.8958ZM123.5 10.1391L98.2071 45.0609C98.1794 45.0914 96.8565 46.4476 96.9203 49.6674C96.9619 51.8057 97.0923 58.3147 98.0574 58.6863C99.0086 58.9942 146.887 62.691 172.169 64.6185L188.989 25.7613L187.708 25.2066L188.18 15.4528L189.217 12.5076L125.294 9.5179L123.5 10.1391Z" fill="#263238"/>
<path d="M100.374 45.9761C100.374 45.9761 98.083 45.2661 97.4312 47.4681C96.7795 49.6702 98.3825 57.649 98.3825 57.649C98.3825 57.649 99.7498 58.2203 100.379 58.2398C101.009 58.2592 171.507 62.9128 171.507 62.9128L187.85 25.1234L188.311 15.5027L172.675 49.3651L100.374 45.9761Z" fill="white"/>
<path d="M171.596 63.0571H171.499C170.794 63.01 100.992 58.4007 100.374 58.384C99.7552 58.3674 98.3852 57.8072 98.327 57.785L98.2604 57.7545L98.2465 57.6824C98.18 57.3551 96.6463 49.6397 97.3008 47.4349C97.3733 47.1357 97.5065 46.8545 97.6921 46.6089C97.8776 46.3632 98.1117 46.1582 98.3797 46.0067C99.0114 45.7123 99.7278 45.6542 100.399 45.843L172.589 49.2293L188.482 14.7983L187.978 25.1762L171.596 63.0571ZM98.5017 57.5493C98.779 57.663 99.8634 58.0845 100.382 58.1039C101 58.1206 167.38 62.5052 171.418 62.7715L187.714 25.0902L188.139 16.2155L172.763 49.5094H172.669L100.352 46.112H100.332C99.7278 45.9405 99.0822 45.9887 98.51 46.2479C98.2753 46.3834 98.0705 46.5651 97.9079 46.782C97.7454 46.9989 97.6285 47.2465 97.5643 47.5098C96.9653 49.5399 98.3464 56.745 98.5017 57.5493Z" fill="#263238"/>
<path d="M171.058 49.2904L100.374 45.9763C100.374 45.9763 98.083 45.2663 97.4312 47.4684C96.7795 49.6704 98.3825 57.6493 98.3825 57.6493C98.3825 57.6493 99.7498 58.2206 100.379 58.24C101.009 58.2594 171.507 62.9131 171.507 62.9131L171.41 49.6011L171.058 49.2904Z" fill="#E0E0E0"/>
<path d="M171.648 63.0601H171.499C170.794 63.0129 100.992 58.4036 100.374 58.387C99.7552 58.3703 98.3852 57.8101 98.327 57.7879L98.2604 57.7574L98.2465 57.6853C98.18 57.3581 96.6463 49.6427 97.3008 47.4379C97.3733 47.1386 97.5065 46.8575 97.6921 46.6118C97.8776 46.3661 98.1117 46.1612 98.3797 46.0096C99.0114 45.7152 99.7278 45.6571 100.399 45.846L171.119 49.174L171.554 49.5456V49.6094L171.648 63.0601ZM98.5017 57.5494C98.779 57.6631 99.8634 58.0847 100.382 58.1041C100.998 58.1207 166.851 62.4693 171.379 62.7661L171.282 49.6593L171.005 49.4291L100.352 46.1122H100.332C99.7278 45.9407 99.0822 45.9888 98.51 46.2481C98.2753 46.3836 98.0705 46.5653 97.9079 46.7822C97.7454 46.9991 97.6285 47.2466 97.5643 47.51C96.9653 49.5401 98.3464 56.7452 98.5017 57.5494Z" fill="#263238"/>
<path d="M109.868 117.589C109.868 117.589 112.458 121.325 115.165 121.267C133.209 120.873 164.325 129.515 167.936 129.515C171.547 129.515 174.232 129.196 174.232 128.428C174.232 127.659 161.533 77.3982 161.533 77.3982L159.014 76.6328L167.662 125.682C167.662 125.682 156.932 124.151 135.255 120.537C113.579 116.924 114.455 113.881 111.837 114.419C109.219 114.958 109.868 117.589 109.868 117.589Z" fill="#F7C663"/>
<path d="M167.937 129.648C166.844 129.648 163.294 128.874 158.383 127.803C146.945 125.307 127.795 121.125 115.168 121.425H115.094C112.37 121.425 109.855 117.842 109.749 117.689L109.727 117.642C109.727 117.592 109.428 116.399 110.043 115.423C110.244 115.127 110.505 114.875 110.808 114.684C111.111 114.493 111.45 114.367 111.804 114.314C112.747 114.12 113.263 114.364 114.389 114.902C116.538 115.925 121.009 118.052 135.272 120.432C155.163 123.76 165.956 125.327 167.487 125.549L158.832 76.4607L161.641 77.3177L161.661 77.3925C162.179 79.4448 174.365 127.673 174.365 128.447C174.365 129.221 172.208 129.648 167.937 129.648ZM116.408 121.122C129.06 121.122 147.361 125.113 158.441 127.532C163.336 128.599 166.872 129.37 167.937 129.37C172.477 129.37 174.093 128.882 174.093 128.422C174.055 127.676 165.796 94.8479 161.408 77.5118L159.19 76.8351L167.834 125.851L167.643 125.823C167.537 125.807 156.663 124.248 135.233 120.676C120.929 118.294 116.436 116.153 114.275 115.129C113.166 114.605 112.717 114.386 111.868 114.575C111.549 114.622 111.244 114.735 110.971 114.906C110.697 115.077 110.463 115.304 110.282 115.57C109.955 116.178 109.857 116.882 110.004 117.556C110.221 117.858 112.681 121.206 115.171 121.161C115.571 121.125 115.987 121.122 116.408 121.122Z" fill="#263238"/>
<path d="M170.51 128.203C166.788 127.984 159.547 126.101 141.667 122.432C123.787 118.762 110.401 116.541 110.401 116.541L110.023 117.831C110.642 118.643 112.855 121.325 115.151 121.275C133.209 120.873 164.325 129.515 167.936 129.515C171.547 129.515 174.232 129.196 174.232 128.428C174.232 128.361 172.365 128.314 170.51 128.203Z" fill="#263238"/>
<path d="M167.936 129.648C166.843 129.648 163.294 128.874 158.382 127.803C146.945 125.307 127.8 121.128 115.168 121.425C112.8 121.486 110.561 118.76 109.926 117.925L109.885 117.869L110.315 116.397L110.437 116.416C110.57 116.438 124.048 118.682 141.709 122.307C148.11 123.621 153.121 124.7 157.145 125.568C164.234 127.096 168.139 127.937 170.518 128.064C171.225 128.106 171.938 128.139 172.545 128.167C174.37 128.253 174.37 128.253 174.37 128.422C174.37 129.237 172.207 129.648 167.936 129.648ZM116.408 121.122C129.06 121.122 147.361 125.113 158.44 127.532C163.335 128.599 166.871 129.37 167.936 129.37C172.127 129.37 173.827 128.954 174.062 128.538C173.807 128.511 173.183 128.483 172.532 128.452C171.924 128.425 171.211 128.391 170.502 128.35C168.103 128.208 164.189 127.365 157.087 125.837C153.063 124.969 148.051 123.896 141.653 122.576C124.888 119.134 111.898 116.94 110.512 116.707L110.19 117.817C110.85 118.674 112.944 121.145 115.101 121.145H115.162C115.57 121.125 115.986 121.122 116.408 121.122Z" fill="#263238"/>
<path d="M51.4 75.4348C51.4 75.4348 50.0854 75.873 49.8691 76.8575C49.6528 77.8421 37.0591 128.317 38.2627 128.442C39.4663 128.566 105.816 128.996 106.581 128.222C107.346 127.449 109.867 117.589 109.867 117.589L104.276 125.152L46.6881 123.73L53.5854 76.6495L51.4 75.4348Z" fill="#F7C663"/>
<path d="M79.8477 128.816C60.8254 128.816 38.611 128.608 38.2477 128.574C38.2204 128.572 38.1941 128.564 38.1706 128.55C38.1471 128.536 38.127 128.517 38.1118 128.494C37.9121 128.217 37.3019 127.357 49.1524 79.2035C49.4963 77.8169 49.7071 76.9571 49.732 76.8379C49.965 75.7896 51.299 75.332 51.3544 75.3153L51.4127 75.2959L53.7395 76.5744L46.8533 123.593L104.217 125.013L110.177 116.946L110.002 117.634C109.744 118.646 107.453 127.545 106.674 128.316C106.297 128.702 93.9473 128.816 79.8477 128.816ZM38.3309 128.303C40.5301 128.364 105.052 128.838 106.502 128.108C107.057 127.554 108.751 121.347 109.553 118.255L104.35 125.294H104.278L46.5316 123.868L46.5538 123.713L53.4372 76.7269L51.3877 75.601C51.1437 75.6953 50.1758 76.1168 50.001 76.9017C49.9761 77.0237 49.7681 77.8696 49.4214 79.2729C39.3958 120.021 38.1395 127.573 38.3309 128.303Z" fill="#263238"/>
<path d="M106.581 128.22C107.35 127.451 109.868 117.598 109.868 117.598L109.496 118.097L106.035 127.019L38.9203 127.884L38.252 128.439C39.4667 128.547 105.816 128.985 106.581 128.22Z" fill="#263238"/>
<path d="M79.8469 128.816C60.8246 128.816 38.6102 128.608 38.2469 128.574L37.9141 128.544L38.8792 127.74H38.9291L105.941 126.877L109.386 118.016L110.176 116.946L110.001 117.634C109.743 118.646 107.453 127.545 106.673 128.316C106.296 128.702 93.9493 128.816 79.8469 128.816ZM38.6351 128.308C43.9045 128.389 104.887 128.818 106.493 128.111C107.048 127.509 108.667 121.647 109.491 118.499L106.13 127.152H106.038L38.9846 128.017L38.6351 128.308Z" fill="#263238"/>
<path d="M52.934 74.7886L51.4003 75.4459L40.7812 126.794L106.035 127.013L110.414 115.737L49.1013 118.693L54.7949 74.6804L52.934 74.7886Z" fill="white"/>
<path d="M106.129 127.152H106.035L40.6094 126.933L51.2812 75.3488L52.9257 74.6527L54.9531 74.5334L54.9336 74.6998L49.2594 118.546L110.622 115.59L106.129 127.152ZM40.956 126.658L105.946 126.875L110.214 115.887L48.9432 118.84L48.9654 118.677L54.6341 74.8274L52.9701 74.9273L51.5252 75.5457L40.956 126.658Z" fill="#263238"/>
<path d="M45.1603 120.335L42.1846 125.285L40.7812 126.794L106.035 127.013L110.414 115.737L49.1013 118.693L45.1603 120.335Z" fill="#E0E0E0"/>
<path d="M106.13 127.152H106.036L40.4629 126.933L42.0742 125.2L45.0666 120.224L49.0963 118.56L110.623 115.595L106.13 127.152ZM41.098 126.658L105.941 126.875L110.209 115.887L49.1323 118.832L45.2497 120.446L42.2822 125.38L41.098 126.658Z" fill="#263238"/>
<path d="M110.414 115.737V105.664L57.7515 111.466L53.8105 118.366L110.414 115.737Z" fill="#B8B8B8"/>
<path d="M53.5645 118.516L57.6662 111.338H57.7383L110.554 105.514V115.87H110.421L53.5645 118.516ZM57.8382 111.596L54.0553 118.213L110.276 115.604V105.819L57.8382 111.596Z" fill="#263238"/>
<path d="M55.3411 69.2057L53.8102 69.4248L45.1602 120.335C45.1602 120.335 52.2765 119.78 61.9111 117.489C71.5457 115.199 91.1448 111.685 97.7148 112.672C104.285 113.66 109.868 117.589 109.868 117.589C109.868 117.589 118.066 119.217 127.262 121.078C136.458 122.939 150.145 125.793 159.233 127.321C168.321 128.849 170.509 128.195 170.509 128.195L159.233 75.7508L158.137 75.4346L164.158 122.95C164.158 122.95 126.186 112.453 121.144 112.453C116.102 112.453 113.379 107.087 103.298 105.118C93.2165 103.149 81.9429 107.087 72.422 108.723C66.4526 109.777 60.5629 111.241 54.7947 113.105L57.3129 69.2002L55.3411 69.2057Z" fill="#E0E0E0"/>
<path d="M168.646 128.486C167.01 128.486 164.112 128.292 159.217 127.465C151.562 126.187 140.669 123.968 131.916 122.174L127.235 121.222C118.144 119.384 109.923 117.75 109.84 117.734L109.788 117.711C109.732 117.673 104.152 113.779 97.693 112.808C91.0204 111.807 70.7917 115.512 61.9448 117.623C56.4276 118.966 50.8227 119.919 45.1716 120.474L44.9941 120.488L45.0246 120.313L53.6913 69.3001L55.3553 69.0671H57.4741L54.9587 112.914C60.6738 111.084 66.5054 109.64 72.4141 108.593C74.8158 108.179 77.2924 107.628 79.916 107.042C87.7173 105.301 95.7822 103.504 103.34 104.982C108.795 106.05 112.12 108.116 114.793 109.774C117.076 111.194 118.879 112.315 121.158 112.315C126.02 112.315 160.711 121.849 164.009 122.759L157.971 75.2378L159.358 75.651L159.375 75.7315L170.671 128.3L170.549 128.336C170.507 128.35 170.019 128.486 168.646 128.486ZM109.923 117.467C110.461 117.576 118.465 119.165 127.29 120.951L131.971 121.902C140.721 123.685 151.612 125.901 159.255 127.191C167.04 128.505 169.764 128.2 170.349 128.098L159.114 75.8701L158.301 75.6261L164.322 123.136L164.123 123.081C163.743 122.975 126.106 112.589 121.136 112.589C118.776 112.589 116.943 111.449 114.624 110.007C111.973 108.36 108.67 106.307 103.254 105.251C95.7656 103.784 87.7229 105.575 79.9576 107.309C77.3312 107.894 74.8518 108.448 72.4418 108.864C66.4798 109.92 60.5968 111.381 54.8339 113.238L54.6398 113.305L57.1663 69.3334H55.3525L53.9298 69.5358L45.3325 120.171C50.9085 119.607 56.4394 118.661 61.8865 117.343C71.0385 115.16 90.9427 111.519 97.7402 112.523C104.041 113.479 109.51 117.182 109.923 117.467Z" fill="#263238"/>
<path d="M49.1011 118.693L45.1602 120.335L53.8102 69.4249L57.3129 69.2058L49.1011 118.693Z" fill="white"/>
<path d="M44.9805 120.559L53.6915 69.2916L57.4799 69.0559L49.2264 118.793L44.9805 120.559ZM53.9272 69.5551L45.3299 120.11L48.9685 118.593L57.1388 69.3554L53.9272 69.5551Z" fill="#263238"/>
<path d="M109.1 62.4165C109.1 62.4165 110.087 60.6637 119.064 62.9711C128.041 65.2786 137.443 71.0582 145.109 72.1509C152.774 73.2436 157.802 74.3252 157.802 74.3252L168.205 127.099C168.205 127.099 151.24 124.8 135.255 120.54C119.269 116.28 112.494 113.429 110.414 115.737L109.1 62.4165Z" fill="white"/>
<path d="M168.382 127.274L168.191 127.246C168.022 127.224 151.03 124.897 135.219 120.673C131.414 119.658 128.169 118.732 125.31 117.919C116.479 115.404 112.042 114.142 110.517 115.831L110.284 116.086L108.961 62.3834L108.98 62.3501C109.022 62.2725 110.12 60.5308 119.097 62.8299C123.196 63.881 127.39 65.6587 131.444 67.3754C136.345 69.4526 140.971 71.4161 145.128 72.0096C152.707 73.0912 157.788 74.1895 157.838 74.2006L157.927 74.22L168.382 127.274ZM112.874 114.774C115.287 114.774 119.217 115.884 125.396 117.653C128.255 118.466 131.497 119.389 135.302 120.407C150.175 124.381 166.122 126.675 168.036 126.944L157.691 74.4529C156.981 74.3032 152.111 73.2881 145.089 72.2842C140.896 71.6852 136.253 69.7161 131.336 67.6333C127.293 65.9166 123.108 64.1445 119.028 63.0989C110.985 61.0356 109.427 62.2669 109.241 62.4638L110.545 115.434C111.08 114.977 111.834 114.774 112.874 114.774Z" fill="#263238"/>
<path d="M154.986 80.9814C137.314 77.0987 136.252 76.9823 136.213 76.9795V76.7021C136.235 76.7021 136.987 76.7465 155.036 80.7124L154.986 80.9814Z" fill="#263238"/>
<path d="M155.372 83.2583C153.121 82.7619 151.046 82.3015 149.185 81.8855C146.831 81.3614 144.798 80.9093 143.178 80.5626C137.06 79.2509 136.419 79.1954 136.395 79.1926L136.408 78.9153C136.431 78.9153 137.005 78.9569 143.236 80.3019C144.856 80.6486 146.889 81.1034 149.243 81.6276L155.433 82.9976L155.372 83.2583Z" fill="#263238"/>
<path d="M155.762 85.5378C153.416 85.022 151.1 84.4951 149.053 84.0291C146.871 83.5327 144.988 83.1056 143.44 82.7728C137.433 81.486 136.609 81.4139 136.576 81.4111L136.596 81.1338C136.626 81.1338 137.428 81.2004 143.498 82.501C145.046 82.8338 146.932 83.2637 149.117 83.7601C151.161 84.2233 153.477 84.7502 155.823 85.2661L155.762 85.5378Z" fill="#263238"/>
<path d="M156.138 87.8176C153.919 87.3323 151.659 86.8053 149.465 86.295C147.319 85.7986 145.289 85.3272 143.691 84.9833C137.82 83.7242 136.758 83.6326 136.758 83.6299L136.777 83.3525C136.819 83.3525 137.845 83.4413 143.763 84.7115C145.363 85.0554 147.394 85.5241 149.543 86.0233C151.737 86.5308 154.005 87.0577 156.199 87.543L156.138 87.8176Z" fill="#263238"/>
<path d="M156.54 90.0973C154.521 89.6536 152.247 89.1156 150.051 88.597C147.79 88.0645 145.655 87.557 143.963 87.2103C138.239 85.9817 136.949 85.8652 136.936 85.8652L136.958 85.5879C137.008 85.5879 138.261 85.7016 144.021 86.9385C145.716 87.3018 147.851 87.8066 150.123 88.3418C152.319 88.8604 154.591 89.3957 156.607 89.8394L156.54 90.0973Z" fill="#263238"/>
<path d="M156.928 92.377C155.114 91.9777 152.871 91.4397 150.699 90.9183C148.403 90.3636 146.026 89.7923 144.226 89.4068C138.649 88.2087 137.132 88.0701 137.115 88.0701L137.14 87.7927C137.201 87.7927 138.679 87.9314 144.284 89.135C146.087 89.5233 148.464 90.0946 150.766 90.6465C152.934 91.1679 155.175 91.7087 156.986 92.1053L156.928 92.377Z" fill="#263238"/>
<path d="M157.317 94.6566C155.711 94.3043 153.612 93.7913 151.387 93.2477C148.941 92.6487 146.395 92.0302 144.487 91.617C139.065 90.4522 137.315 90.2913 137.299 90.2886L137.321 90.0112C137.338 90.0112 139.099 90.1721 144.546 91.3424C146.47 91.7584 149.005 92.3769 151.454 92.9759C153.673 93.5167 155.772 94.0298 157.375 94.382L157.317 94.6566Z" fill="#263238"/>
<path d="M157.706 96.9362C156.32 96.6284 154.27 96.1237 152.115 95.5884C149.506 94.9394 146.807 94.2711 144.752 93.8273C139.483 92.6958 137.5 92.51 137.48 92.51L137.505 92.2327C137.525 92.2327 139.519 92.4212 144.81 93.5555C146.868 93.9993 149.569 94.6649 152.182 95.3194C154.337 95.8546 156.37 96.3594 157.765 96.6644L157.706 96.9362Z" fill="#263238"/>
<path d="M158.094 99.216C156.896 98.9525 154.946 98.4617 152.886 97.943C150.229 97.2719 147.217 96.512 145.012 96.0378C139.898 94.9284 137.682 94.7315 137.66 94.7287L137.685 94.4514C137.707 94.4514 139.937 94.665 145.071 95.7687C147.289 96.243 150.293 97.0029 152.952 97.674C155.013 98.1926 156.96 98.6835 158.155 98.947L158.094 99.216Z" fill="#263238"/>
<path d="M158.483 101.504C157.479 101.285 155.71 100.836 153.685 100.314C150.851 99.5877 147.639 98.7668 145.276 98.2565C140.318 97.1915 137.866 96.9586 137.844 96.9558L137.869 96.6785C137.894 96.6785 140.365 96.9142 145.335 97.9847C147.703 98.495 150.917 99.3159 153.754 100.043C155.787 100.561 157.543 101.013 158.544 101.232L158.483 101.504Z" fill="#263238"/>
<path d="M158.871 103.778C158.055 103.598 156.422 103.174 154.53 102.683C151.654 101.937 148.077 101.019 145.536 100.464C140.736 99.4295 138.048 99.1716 138.023 99.1716L138.048 98.8943C140.587 99.1929 143.107 99.6253 145.6 100.189C148.146 100.744 151.726 101.668 154.605 102.408C156.494 102.899 158.125 103.323 158.937 103.501L158.871 103.778Z" fill="#263238"/>
<path d="M159.261 106.058C158.62 105.916 157.203 105.542 155.409 105.07C152.508 104.308 148.534 103.262 145.799 102.671C143.292 102.11 140.756 101.681 138.203 101.387L138.231 101.11C140.794 101.406 143.34 101.836 145.858 102.4C148.598 102.99 152.575 104.039 155.481 104.804C157.27 105.273 158.684 105.636 159.319 105.786L159.261 106.058Z" fill="#263238"/>
<path d="M159.65 108.338C159.176 108.232 157.928 107.899 156.35 107.478C153.255 106.646 149.017 105.52 146.061 104.882C143.527 104.322 140.965 103.896 138.387 103.606L138.412 103.329C141.001 103.619 143.574 104.046 146.119 104.607C149.081 105.248 153.329 106.38 156.422 107.209C157.997 107.628 159.239 107.96 159.708 108.063L159.65 108.338Z" fill="#263238"/>
<path d="M160.038 110.617C159.716 110.545 158.726 110.279 157.356 109.907C154.433 109.114 149.535 107.788 146.324 107.092C143.759 106.536 141.167 106.113 138.559 105.825L138.586 105.547C141.203 105.835 143.802 106.259 146.374 106.82C149.594 107.514 154.494 108.842 157.42 109.635C158.787 110.007 159.775 110.273 160.088 110.342L160.038 110.617Z" fill="#263238"/>
<path d="M160.425 112.897C160.239 112.855 159.524 112.658 158.442 112.362C155.53 111.557 150.122 110.065 146.584 109.311C143.995 108.756 141.379 108.337 138.746 108.055L138.774 107.777C141.417 108.062 144.043 108.484 146.642 109.042C150.175 109.805 155.6 111.299 158.514 112.093C159.554 112.37 160.306 112.586 160.483 112.625L160.425 112.897Z" fill="#263238"/>
<path d="M160.814 115.176C160.742 115.16 160.362 115.054 159.677 114.863C157.02 114.117 150.802 112.367 146.847 111.516C144.236 110.963 141.598 110.546 138.943 110.265L138.968 109.988C141.638 110.271 144.292 110.691 146.919 111.244C150.883 112.101 157.109 113.848 159.766 114.594C160.378 114.766 160.822 114.891 160.889 114.905L160.814 115.176Z" fill="#263238"/>
<path d="M161.193 117.453C161.105 117.428 152.158 114.819 147.108 113.726C143.242 112.894 139.151 112.489 139.109 112.484L139.137 112.206C141.833 112.487 144.512 112.902 147.166 113.452C152.224 114.561 161.182 117.159 161.271 117.184L161.193 117.453Z" fill="#263238"/>
<path d="M133.398 76.2001C129.956 74.6165 127.535 73.2354 125.591 72.126C123.569 70.9696 121.969 70.0599 120.205 69.4886C117.706 68.7349 115.125 68.2861 112.518 68.1518V67.8745C115.151 68.0089 117.759 68.4624 120.283 69.2251C122.077 69.8048 123.686 70.7227 125.724 71.8848C127.666 72.9941 130.078 74.3808 133.509 75.9477L133.398 76.2001Z" fill="#263238"/>
<path d="M133.583 78.4519C130.496 77.032 128.222 75.7507 126.395 74.7218C124.262 73.5209 122.576 72.5725 120.598 71.9318C116.766 70.6866 112.877 70.4814 112.578 70.5285L112.506 70.2512C112.689 70.1957 116.666 70.3566 120.684 71.66C122.69 72.309 124.384 73.263 126.531 74.4722C128.447 75.551 130.621 76.7768 133.7 78.194L133.583 78.4519Z" fill="#263238"/>
<path d="M133.758 80.7039C131.007 79.4365 128.974 78.3078 127.179 77.3094C124.947 76.0669 123.183 75.0907 120.984 74.3697C116.68 72.9663 112.838 72.8332 112.603 72.9026L112.52 72.6252C112.852 72.5198 116.829 72.7112 121.07 74.0951C123.288 74.8217 125.069 75.8062 127.315 77.057C129.104 78.0499 131.131 79.1786 133.874 80.4405L133.758 80.7039Z" fill="#263238"/>
<path d="M133.935 82.9588C131.5 81.8494 129.62 80.8066 127.961 79.9081C125.743 78.6823 123.801 77.6256 121.369 76.8269C116.832 75.3404 113.024 75.1629 112.616 75.2933L112.533 75.0298C113.088 74.8523 117.012 75.1074 121.455 76.5634C123.915 77.3677 125.851 78.4327 128.094 79.664C129.758 80.5737 131.625 81.6054 134.049 82.7147L133.935 82.9588Z" fill="#263238"/>
<path d="M134.11 85.2134C131.977 84.2316 130.255 83.297 128.735 82.4733C126.427 81.2198 124.436 80.1409 121.752 79.2562C116.893 77.6588 113.154 77.4952 112.63 77.6616L112.547 77.3981C113.221 77.1818 117.198 77.4674 121.84 78.9928C124.547 79.883 126.555 80.9702 128.868 82.2293C130.382 83.0613 132.102 83.982 134.223 84.961L134.11 85.2134Z" fill="#263238"/>
<path d="M134.284 87.4654C132.437 86.6167 130.942 85.8153 129.5 85.0387C127.129 83.7685 125.079 82.6703 122.137 81.7107C116.998 80.0134 113.315 79.8387 112.644 80.0467L112.561 79.7832C113.406 79.5059 117.361 79.8359 122.223 81.4472C125.19 82.4262 127.348 83.5827 129.63 84.8058C131.07 85.5795 132.562 86.3782 134.401 87.2241L134.284 87.4654Z" fill="#263238"/>
<path d="M134.459 89.7173C132.881 88.9934 131.544 88.2834 130.254 87.5984C127.933 86.3698 125.742 85.2078 122.522 84.1401C117.233 82.3901 113.487 82.1544 112.657 82.4206L112.574 82.1433C113.567 81.8271 117.444 82.1433 122.608 83.8655C125.85 84.9416 128.052 86.1064 130.373 87.3433C131.663 88.0255 132.997 88.7299 134.567 89.4538L134.459 89.7173Z" fill="#263238"/>
<path d="M134.633 91.972C133.307 91.3619 132.137 90.7434 130.992 90.1471C128.64 88.913 126.416 87.7482 122.905 86.5834C117.261 84.7059 113.633 84.4923 112.671 84.7974L112.588 84.5339C113.833 84.1373 117.904 84.6282 122.993 86.3199C126.527 87.4931 128.862 88.7189 131.122 89.9031C132.256 90.4966 133.429 91.1123 134.75 91.7196L134.633 91.972Z" fill="#263238"/>
<path d="M134.81 94.224C133.717 93.722 132.746 93.2172 131.717 92.6848C129.021 91.221 126.202 89.996 123.292 89.024C117.784 87.188 113.932 86.7803 112.687 87.1769L112.604 86.9135C113.935 86.4891 117.781 86.8968 123.381 88.7605C126.304 89.7377 129.136 90.9682 131.845 92.4379C132.871 92.9704 133.839 93.4724 134.926 93.9716L134.81 94.224Z" fill="#263238"/>
<path d="M134.984 96.4759C134.108 96.0738 133.289 95.6439 132.421 95.2085C129.622 93.7164 126.702 92.4649 123.691 91.4673C117.576 89.4234 113.957 89.1627 112.714 89.5565L112.631 89.293C113.973 88.8659 117.606 89.1432 123.78 91.2038C126.809 92.2053 129.747 93.4625 132.563 94.9617C133.425 95.4054 134.243 95.8242 135.114 96.2263L134.984 96.4759Z" fill="#263238"/>
<path d="M135.159 98.7308C134.479 98.4175 133.811 98.0763 133.101 97.7186C130.197 96.2032 127.175 94.9287 124.063 93.908C116.344 91.326 113.554 91.6672 112.714 91.9362L112.631 91.6588C114.461 91.0792 118.66 91.7975 124.149 93.6335C127.275 94.6565 130.311 95.9366 133.226 97.4607C133.933 97.8184 134.598 98.1568 135.275 98.4674L135.159 98.7308Z" fill="#263238"/>
<path d="M135.339 100.983C134.834 100.75 134.31 100.486 133.755 100.209C130.762 98.6766 127.65 97.3857 124.451 96.3484C117.163 93.905 114.056 93.8939 112.734 94.3155L112.65 94.0382C114.592 93.4169 118.716 94.1214 124.54 96.0766C127.751 97.1211 130.875 98.4194 133.88 99.9592C134.435 100.237 134.956 100.497 135.456 100.727L135.339 100.983Z" fill="#263238"/>
<path d="M135.508 103.237C135.158 103.074 134.789 102.891 134.362 102.683C132.665 101.851 130.1 100.567 124.83 98.8C118.801 96.7727 114.735 96.0682 112.741 96.7006L112.658 96.4371C114.735 95.777 118.746 96.4621 124.919 98.5365C130.205 100.314 132.782 101.587 134.484 102.439C134.911 102.649 135.278 102.832 135.624 102.993L135.508 103.237Z" fill="#263238"/>
<path d="M135.683 105.489C135.463 105.387 135.217 105.267 134.928 105.126C133.428 104.388 130.915 103.154 125.222 101.243C118.843 99.0968 114.88 98.409 112.761 99.0829L112.678 98.8056C114.855 98.1123 118.868 98.8056 125.31 100.969C131.026 102.893 133.55 104.133 135.056 104.874C135.333 105.015 135.588 105.134 135.805 105.234L135.683 105.489Z" fill="#263238"/>
<path d="M135.857 107.741L135.435 107.539C134.326 107.006 131.772 105.755 125.601 103.675C118.856 101.401 115.018 100.736 112.772 101.457L112.686 101.193C114.996 100.458 118.884 101.124 125.69 103.412C131.877 105.5 134.456 106.754 135.557 107.295C135.724 107.378 135.86 107.444 135.973 107.494L135.857 107.741Z" fill="#263238"/>
<path d="M136.031 109.996L135.87 109.918C133.757 108.898 130.432 107.619 125.983 106.116C118.959 103.745 115.134 103.082 112.785 103.831L112.699 103.554C115.145 102.777 118.895 103.418 126.072 105.844C130.532 107.35 133.868 108.632 135.99 109.658L136.148 109.733L136.031 109.996Z" fill="#263238"/>
<path d="M136.203 112.245C136.181 112.245 133.879 111.1 126.369 108.559C118.964 106.063 115.275 105.417 112.799 106.208L112.713 105.944C115.264 105.132 118.989 105.769 126.458 108.296C133.993 110.845 136.306 111.987 136.328 111.998L136.203 112.245Z" fill="#263238"/>
<path d="M109.1 62.4168L110.414 115.737C110.414 115.737 106.474 107.636 95.9626 107.972C85.4516 108.307 62.2416 116.402 58.5226 117.168C54.8035 117.933 49.1016 118.699 49.1016 118.699L55.3416 67.7887C55.3416 67.7887 82.9224 62.7468 88.7464 60.9941C94.5704 59.2413 99.5873 57.3887 103.309 58.2568C107.031 59.1248 109.1 59.7904 109.1 62.4168Z" fill="white"/>
<path d="M48.9434 118.854L48.9655 118.676L55.2166 67.6692L55.3165 67.6498C55.5938 67.5999 82.9666 62.5968 88.6963 60.8662C89.447 60.6388 90.1865 60.4123 90.915 60.1868C95.821 58.667 100.067 57.3552 103.334 58.1262C106.998 58.9887 109.244 59.6571 109.244 62.4193L110.575 116.374L110.298 115.803C110.259 115.723 106.268 107.783 95.9735 108.107C88.2526 108.348 73.6843 112.789 64.9788 115.44C61.8227 116.402 59.5403 117.104 58.553 117.301C54.87 118.061 49.1846 118.829 49.1236 118.837L48.9434 118.854ZM55.4662 67.8994L49.2623 118.532C50.2551 118.393 55.1834 117.7 58.4892 117.023C59.4654 116.824 61.8588 116.094 64.89 115.171C73.6094 112.514 88.186 108.068 95.9514 107.824C104.918 107.547 109.186 113.429 110.256 115.188L108.956 62.4165C108.956 59.8567 106.898 59.2466 103.262 58.3924C100.056 57.6381 95.8543 58.9471 90.9871 60.4475C90.2605 60.6693 89.5228 60.8995 88.7684 61.1269C83.1996 62.8076 57.3022 67.5638 55.4662 67.8994Z" fill="#263238"/>
<path d="M82.2639 69.3179L61.7305 73.9275L61.7915 74.1993L82.325 69.5897L82.2639 69.3179Z" fill="#263238"/>
<path d="M61.1548 76.336L61.0938 76.0587C65.5838 75.0464 74.1284 73.1134 74.3697 73.0385C74.647 72.9498 81.4306 71.4411 81.719 71.3745L81.7773 71.6518C79.3395 72.2065 74.6692 73.241 74.4529 73.3158C74.1478 73.4074 61.6845 76.2168 61.1548 76.336Z" fill="#263238"/>
<path d="M60.9302 78.6157L60.8691 78.3383C60.9967 78.3078 73.6625 75.4208 74.2532 75.235C74.844 75.0492 81.3863 73.5987 81.6664 73.5349L81.7274 73.8122C81.6581 73.8122 74.8828 75.332 74.3365 75.504C73.7346 75.712 61.4543 78.4853 60.9302 78.6157Z" fill="#263238"/>
<path d="M60.7083 80.8953L60.6445 80.618C60.7693 80.5902 73.2466 77.7115 74.1396 77.4314C74.9716 77.1707 81.3502 75.7536 81.6137 75.6953L81.6747 75.9726C81.6082 75.9893 75.0409 77.4453 74.2228 77.7032C73.3214 77.9861 61.2214 80.7788 60.7083 80.8953Z" fill="#263238"/>
<path d="M60.4837 83.1777L60.4199 82.9004C60.5447 82.8727 72.8334 80.0023 74.0231 79.6279C75.1325 79.2812 81.3004 77.914 81.5638 77.8557L81.6221 78.133C81.5583 78.133 75.199 79.5558 74.1063 79.8997C72.9055 80.2768 60.9885 83.0585 60.4837 83.1777Z" fill="#263238"/>
<path d="M60.2591 85.4547L60.1953 85.1774C60.3173 85.1496 72.4202 82.2903 73.9094 81.8216C75.2961 81.389 81.2588 80.0689 81.5112 80.0134L81.5722 80.2908C81.5084 80.3046 75.3599 81.6774 73.9926 82.0934C72.4923 82.5649 60.7583 85.3382 60.2591 85.4547Z" fill="#263238"/>
<path d="M60.0345 87.7371L59.9707 87.4598C60.09 87.4321 72.0042 84.5839 73.793 84.0209C75.457 83.4995 81.4002 82.1877 81.4585 82.1738L81.5195 82.4512C81.4585 82.465 75.518 83.774 73.8762 84.2899C72.0791 84.864 60.1537 87.7066 60.0345 87.7371Z" fill="#263238"/>
<path d="M59.8099 90.0168L59.7461 89.7395C59.8626 89.7117 71.591 86.8718 73.6766 86.2173C75.6179 85.61 81.3504 84.3453 81.4086 84.3342L81.4668 84.6116C81.4086 84.6254 75.6789 85.8873 73.7597 86.4891C71.6659 87.1464 59.9291 89.9863 59.8099 90.0168Z" fill="#263238"/>
<path d="M59.5853 92.2965L59.5215 92.0192C59.6352 91.9887 71.1695 89.1599 73.5629 88.4139C75.7649 87.7205 81.3005 86.5058 81.3559 86.4919L81.417 86.7693C81.3587 86.7693 75.837 87.9951 73.6516 88.6829C71.2499 89.4344 59.7018 92.2688 59.5853 92.2965Z" fill="#263238"/>
<path d="M59.3623 94.5707L59.293 94.2933C59.4094 94.2656 70.7607 91.4451 73.437 90.5992C75.9163 89.8199 81.2411 88.6579 81.2938 88.644L81.3548 88.9214C81.3021 88.9214 75.9884 90.0945 73.5202 90.8627C70.8356 91.7252 59.476 94.5485 59.3623 94.5707Z" fill="#263238"/>
<path d="M59.1377 96.8558L59.0684 96.5784C59.1821 96.5507 70.3447 93.7385 73.3316 92.8012C76.0828 91.9359 81.1996 90.8182 81.2523 90.8071L81.3105 91.0845C81.2606 91.0845 76.1549 92.2104 73.412 93.0702C70.4224 94.0159 59.2486 96.828 59.1377 96.8558Z" fill="#263238"/>
<path d="M58.9131 99.1354L58.8438 98.8581C58.9547 98.8304 69.9371 96.0293 73.2152 94.9976C76.2436 94.0464 81.1497 92.9786 81.1996 92.9675L81.2578 93.2449C81.2107 93.2449 76.313 94.3181 73.2984 95.2666C70.0064 96.3039 59.024 99.1077 58.9131 99.1354Z" fill="#263238"/>
<path d="M58.6885 101.415L58.6191 101.138C58.7273 101.11 69.5183 98.3201 73.0987 97.1941C76.4018 96.1541 81.1026 95.1363 81.1414 95.1252L81.1996 95.4026C81.1525 95.4026 76.4655 96.4287 73.1736 97.4632C69.5932 98.5947 58.7939 101.387 58.6885 101.415Z" fill="#263238"/>
<path d="M58.4639 103.695L58.3945 103.417C58.4999 103.39 69.1024 100.608 72.985 99.3906C76.5626 98.2646 81.0527 97.294 81.097 97.2856L81.1553 97.563C81.1109 97.563 76.632 98.5392 73.0682 99.6596C69.18 100.883 58.572 103.667 58.4639 103.695Z" fill="#263238"/>
<path d="M58.2401 105.975L58.168 105.697C58.2734 105.667 68.6872 102.896 72.8666 101.582C76.7188 100.373 81.0008 99.4518 81.0424 99.4407L81.1007 99.718C81.0591 99.718 76.7909 100.644 72.9498 101.853C68.7787 103.168 58.3455 105.941 58.2401 105.975Z" fill="#263238"/>
<path d="M58.0174 108.254L57.9453 107.977C58.0479 107.949 68.2732 105.187 72.7521 103.778C76.8816 102.48 80.9529 101.609 80.9945 101.601L81.05 101.878C81.0111 101.878 76.951 102.755 72.8353 104.047C68.3509 105.464 58.12 108.227 58.0174 108.254Z" fill="#263238"/>
<path d="M57.7928 110.534L57.7207 110.257C57.8205 110.229 67.86 107.483 72.6385 105.975C77.0397 104.588 80.903 103.756 80.9418 103.756L81.0001 104.033C80.9612 104.033 77.1174 104.865 72.7217 106.252C67.946 107.752 57.8926 110.506 57.7928 110.534Z" fill="#263238"/>
<path d="M84.7442 68.6648L84.6582 68.3875C85.4403 68.1379 103.844 62.3139 106.637 65.384L106.432 65.5726C103.758 62.6439 84.9328 68.6038 84.7442 68.6648Z" fill="#263238"/>
<path d="M84.6836 70.8754L84.5977 70.6119C84.6642 70.5897 91.1455 68.5097 96.9113 67.4254C99.3573 66.9705 105.204 66.0831 106.646 67.6694L106.44 67.858C105.506 66.8263 101.961 66.7681 96.9612 67.6972C91.2148 68.7788 84.7474 70.8532 84.6836 70.8754Z" fill="#263238"/>
<path d="M84.6223 73.0857L84.5391 72.8222C84.6028 72.8 91.1951 70.6618 96.8887 69.6079C101.822 68.7149 105.658 68.8453 106.654 69.9407L106.448 70.1293C105.53 69.1171 101.706 69.02 96.9386 69.8825C91.2699 70.9308 84.6888 73.0635 84.6223 73.0857Z" fill="#263238"/>
<path d="M84.5634 75.296L84.4746 75.0326C84.5439 75.0104 91.2526 72.8 96.8631 71.7933C101.553 70.9613 105.674 71.1277 106.661 72.2121L106.456 72.4007C105.544 71.3967 101.442 71.2525 96.913 72.0651C91.322 73.069 84.6299 75.2738 84.5634 75.296Z" fill="#263238"/>
<path d="M84.5039 77.5064L84.418 77.2291C84.4845 77.2069 91.3097 74.9355 96.8425 73.9621C101.371 73.1661 105.689 73.388 106.671 74.4696L106.466 74.6582C105.673 73.7846 101.787 73.3742 96.8896 74.2339C91.379 75.2184 84.5871 77.4842 84.5039 77.5064Z" fill="#263238"/>
<path d="M84.4442 79.7194L84.3555 79.456C84.4248 79.431 91.3637 77.0986 96.8188 76.1585C101.639 75.3265 105.807 75.7979 106.681 76.7547L106.473 76.9433C105.779 76.1779 101.958 75.5566 96.866 76.433C91.433 77.376 84.5135 79.6945 84.4442 79.7194Z" fill="#263238"/>
<path d="M84.3837 81.9298L84.2949 81.6663C84.3643 81.6414 91.4196 79.248 96.7971 78.3383C101.972 77.4703 105.941 78.208 106.69 79.04L106.484 79.2286C105.855 78.5352 102.094 77.7448 96.8415 78.6295C91.4889 79.517 84.453 81.9048 84.3837 81.9298Z" fill="#263238"/>
<path d="M84.3231 84.1402L84.2344 83.8767C84.3065 83.8518 91.4783 81.4002 96.7726 80.5266C102.067 79.653 106.033 80.5682 106.698 81.2976L106.493 81.4861C105.88 80.8122 101.912 79.9608 96.8198 80.7983C91.5449 81.6692 84.3952 84.1153 84.3231 84.1402Z" fill="#263238"/>
<path d="M84.2653 86.3505L84.1738 86.0899C84.2459 86.0621 91.5342 83.5523 96.7509 82.7092C101.926 81.8772 106.042 82.8395 106.707 83.5689L106.496 83.7547C105.942 83.1446 101.97 82.1434 96.7897 82.9809C91.6091 83.8185 84.3375 86.3256 84.2653 86.3505Z" fill="#263238"/>
<path d="M84.2028 88.5608L84.1113 88.3001C84.1862 88.2724 91.5993 85.7043 96.7272 84.8917C101.997 84.0597 106.112 85.169 106.711 85.8402L106.506 86.0288C106.062 85.5407 102.157 84.3149 96.766 85.1663C91.6576 85.9733 84.2777 88.5359 84.2028 88.5608Z" fill="#263238"/>
<path d="M84.1423 90.7712L84.0508 90.5105C84.1257 90.4828 91.6442 87.8564 96.7055 87.0771C102.183 86.2313 106.243 87.5846 106.723 88.1116L106.518 88.3002C106.185 87.9341 102.43 86.4725 96.7471 87.3489C91.7135 88.1282 84.2172 90.7462 84.1423 90.7712Z" fill="#263238"/>
<path d="M84.0818 92.9843L83.9902 92.7208C84.0679 92.693 91.7029 90.0112 96.681 89.2597C102.458 88.3861 106.374 89.9891 106.732 90.369L106.526 90.5576C106.23 90.2276 102.366 88.6689 96.7226 89.5204C91.7694 90.2803 84.1594 92.9565 84.0818 92.9843Z" fill="#263238"/>
<path d="M84.0318 95.1946L83.9375 94.9312C84.0152 94.9062 91.7666 92.1578 96.6671 91.4423C102.402 90.6103 106.429 92.3021 106.748 92.6543L106.543 92.8429C106.368 92.6487 102.616 90.8461 96.7087 91.7169C91.8249 92.4352 84.1011 95.1669 84.0318 95.1946Z" fill="#263238"/>
<path d="M83.9634 97.4051L83.8691 97.1445C83.9496 97.1139 91.8147 94.3212 96.6265 93.6251C102.345 92.7931 106.411 94.5653 106.738 94.9258L106.533 95.1144C106.308 94.8897 102.473 93.0649 96.6653 93.8996C91.8841 94.5902 84.0328 97.3774 83.9634 97.4051Z" fill="#263238"/>
<path d="M83.9021 99.6153L83.8105 99.3546C83.8882 99.3269 91.8726 96.4842 96.6122 95.8103C102.608 94.9783 106.569 96.989 106.757 97.197L106.555 97.3856C106.241 97.1082 102.353 95.2945 96.6511 96.0849C91.9392 96.756 83.9825 99.5876 83.9021 99.6153Z" fill="#263238"/>
<path d="M83.8423 101.826L83.748 101.565C83.8285 101.537 91.9266 98.6364 96.5886 97.993C102.568 97.1804 106.573 99.2548 106.767 99.4684L106.561 99.657C106.542 99.657 102.74 97.4383 96.6274 98.2703C91.9932 98.9054 83.9228 101.798 83.8423 101.826Z" fill="#263238"/>
<path d="M83.7818 104.036L83.6875 103.775C83.7707 103.745 91.9853 100.788 96.5669 100.17C102.76 99.338 106.706 101.687 106.745 101.709L106.601 101.948C106.562 101.923 102.696 99.6347 96.6029 100.447C92.0519 101.057 83.8622 104 83.7818 104.036Z" fill="#263238"/>
<path d="M131.677 120.898C131.677 120.898 130.817 120.684 129.48 120.404L129.539 120.127C130.881 120.404 131.738 120.621 131.757 120.623L131.677 120.898Z" fill="#263238"/>
<path d="M128.485 120.202C127.314 119.972 126.341 119.134 125.312 118.261C124.014 117.151 122.672 115.984 120.786 115.928C117.083 115.859 113.398 116.473 109.917 117.739L109.809 117.781L109.748 117.681C109.323 117.034 108.856 116.416 108.348 115.831L108.556 115.651C109.049 116.218 109.505 116.815 109.923 117.44C113.41 116.194 117.092 115.589 120.794 115.651C122.777 115.709 124.158 116.899 125.495 118.05C126.494 118.91 127.437 119.714 128.546 119.941L128.485 120.202Z" fill="#263238"/>
<path d="M107.625 115.027C106.938 114.309 106.196 113.646 105.406 113.044L105.573 112.825C106.374 113.434 107.125 114.107 107.819 114.835L107.625 115.027Z" fill="#263238"/>
<path d="M105.411 113.044C104.295 112.185 103.061 111.491 101.747 110.983C96.0454 108.82 89.7001 110.445 88.9901 110.637L88.918 110.359C89.6307 110.165 96.0565 108.521 101.842 110.717C103.179 111.234 104.436 111.941 105.572 112.816L105.411 113.044Z" fill="#263238"/>
<path d="M72.8384 114.586L72.7773 114.308C72.9327 114.272 88.369 110.825 94.964 110.98C97.5352 111.017 100.083 111.47 102.51 112.32L102.416 112.581C100.014 111.739 97.4919 111.295 94.9474 111.263C88.3884 111.111 72.9937 114.552 72.8384 114.586Z" fill="#263238"/>
<path d="M104.915 113.776C104.509 113.511 104.081 113.28 103.637 113.085L103.75 112.833C104.209 113.037 104.651 113.275 105.073 113.546L104.915 113.776Z" fill="#263238"/>
<path d="M104.001 118.026L62.0938 120.032L62.107 120.309L104.014 118.303L104.001 118.026Z" fill="#263238"/>
<path d="M107.944 117.832L105.656 117.941L105.67 118.218L107.958 118.109L107.944 117.832Z" fill="#263238"/>
<path d="M75.1769 121.943L72.7344 122.005L72.7414 122.282L75.1839 122.22L75.1769 121.943Z" fill="#263238"/>
<path d="M71.3348 122.043L51.9609 122.533L51.968 122.811L71.3418 122.32L71.3348 122.043Z" fill="#263238"/>
<path d="M101.89 123.508L99.7383 123.573L99.7466 123.85L101.899 123.785L101.89 123.508Z" fill="#263238"/>
<path d="M98.0064 123.621L70.7168 124.44L70.7251 124.717L98.0147 123.899L98.0064 123.621Z" fill="#263238"/>
<path d="M90.6059 121.15L84.8906 121.346L84.9001 121.623L90.6154 121.428L90.6059 121.15Z" fill="#263238"/>
<path d="M106.346 120.612L92.1719 121.097L92.1814 121.374L106.356 120.889L106.346 120.612Z" fill="#263238"/>
<path d="M66.0841 124.285L64.1074 124.339L64.115 124.617L66.0917 124.562L66.0841 124.285Z" fill="#263238"/>
<path d="M62.8738 124.373L44.4824 124.877L44.49 125.154L62.8814 124.65L62.8738 124.373Z" fill="#263238"/>
</svg>
