<svg width="43" height="43" viewBox="0 0 43 43" fill="none" xmlns="http://www.w3.org/2000/svg">
<path fill-rule="evenodd" clip-rule="evenodd" d="M14.9118 31.9095C15.5493 32.5471 16.583 32.5471 17.2205 31.9095L35.6908 13.4393C36.3283 12.8017 36.3283 11.7681 35.6908 11.1305C35.0532 10.493 34.0195 10.493 33.382 11.1305L14.9118 29.6007C14.2742 30.2383 14.2742 31.272 14.9118 31.9095Z" fill="black"/>
<path fill-rule="evenodd" clip-rule="evenodd" d="M7.6227 22.4528C8.26025 21.8152 9.29392 21.8152 9.93147 22.4528L16.8578 29.3791C17.4954 30.0167 17.4954 31.0503 16.8578 31.6879C16.2203 32.3254 15.1866 32.3254 14.549 31.6879L7.6227 24.7616C6.98514 24.124 6.98514 23.0903 7.6227 22.4528Z" fill="black"/>
</svg>
